<svg id="瓜" xmlns="http://www.w3.org/2000/svg" viewBox="0 0 17.86 4.3"><title>arrow</title><path d="M92.47,32.93s0.08,0,0,0H92c-0.21,0-.41,0-0.64,0l0,0-0.94,0-1.74.15s0,0,0,0l-0.91.07-0.15,0-0.05,0a4.06,4.06,0,0,1-.42,0c-1.64.06-3.41,0.1-5.23,0.08H81.65l0,0.12h0l0,0h0l0.09,0,0.22,0,0.45,0c0.56,0,1.27.06,1.81,0.09-0.08-.08,1.25,0,1-0.1,0.36,0,.91.07,0.94,0.05a3.69,3.69,0,0,1,1.34-.07c0.38,0,.95.06,1.08,0s-0.48,0-.27-0.06c-1.13,0-2.26-.14-3.39-0.22l-1.7-.1-0.86,0H82l-0.25,0-0.16,0a0.37,0.37,0,0,0-.28.36l0,0.29h0.32l1.56,0c0.49,0,2.13,0,4,0,0.93,0,1.89-.15,2.72-0.21s1.57,0,2.07,0h0.49a13.24,13.24,0,0,1,1.41,0l1.32,0.1,1.07,0.09-0.45-.1c0.36,0.05.72,0.1,0.86,0.11,0.78,0.05.34,0,.05-0.1a0.68,0.68,0,0,0-.25-0.11l0.6,0.07a4,4,0,0,1-.57-0.09c0.23,0,.49.05,0.73,0.08-0.08,0-.83-0.1-0.79-0.13a4.43,4.43,0,0,0,.72.09l-0.35,0c0.74,0.06,1.15.07,0.48,0l0.81,0.09h0l-0.45-.05,0.42,0L98,33.5l-0.32,0,0.28,0-0.23-.05c-0.33-.05-0.64-0.11-0.82-0.13-0.73-.09-1.45-0.23-2.19-0.29l-1.11-.11Z" transform="translate(-80.25 -31.21)" fill="#4d4d4d"/><path d="M81.32,32.16s0,0,0,0-0.16.12-.24,0.21v0l-0.21.17c-0.12.13-.21,0.27-0.32,0.41s0,0,0,0l-0.28.34,0,0.06s0,0,0,0a0.6,0.6,0,0,0,.13.16l0.23,0.22L80.75,34,81,34.2l0.62,0.47,0.28,0.18,0.4,0.33a1.11,1.11,0,0,0,.33,0,0.83,0.83,0,0,0,.22.14,0.44,0.44,0,0,1,.39.06l0.21,0.1s-0.08-.08,0-0.08a5.73,5.73,0,0,1-.89-0.59c-0.31-.23-0.61-0.48-0.91-0.75-0.05,0-.19-0.14-0.34-0.29s-0.43-.42-0.38-0.37,0.2-.27.34-0.43l0.39-.39,0,0c0.19-.17.42-0.37,0.57-0.54l0.2-.23-0.12.06a1.24,1.24,0,0,0,.19-0.16c0.15-.16,0-0.11-0.06-0.09s0-.05-0.1,0l0.14-.11a0.52,0.52,0,0,1-.14.09c0.06,0,.11-0.09.16-0.14s-0.19.14-.2,0.12a0.55,0.55,0,0,0,.16-0.13l-0.08.06c0.16-.14.23-0.24,0.06-0.14l0.19-.14h0l-0.11.08,0.1-.08h0l-0.08.05,0.06-.05-0.07,0a1.89,1.89,0,0,0-.22.11C82,31.6,81.64,31.87,81.32,32.16Z" transform="translate(-80.25 -31.21)" fill="#4d4d4d"/></svg>