<svg id="瓜" xmlns="http://www.w3.org/2000/svg" viewBox="0 0 15.62 3.61"><title>arrow_right</title><path d="M184.17,33.9s-0.08,0,0,0c0.38,0,.68,0,1.06,0l0,0h0.9c0.57,0,1.14-.07,1.7-0.08,0,0,0,0,0,0h1l0.05,0h0.41c1.38,0,2.87-.2,4.37-0.23l0-.15a0.38,0.38,0,0,1-.08-0.09l-0.06,0-0.17,0-0.39,0c-0.38,0-.76,0-1.14.06-0.55,0-1.25,0-1.79,0a9.39,9.39,0,0,0-1,.16c-0.36,0-.89,0-0.92,0a3.58,3.58,0,0,1-1.3.16c-0.37,0-.94,0-1.07,0s0.48,0,.27.05c1.29,0,2.56,0,3.83,0l1.92,0h1l0.5,0,0.27,0,0.16,0a0.48,0.48,0,0,0,.13-0.06l0.09-.08a0.39,0.39,0,0,0,.07-0.27l0-.26h-0.77c-0.53,0-2.27.13-4.22,0.15s-3.93.17-4.74,0.15H184.2l-2.73.06-1.05.05,0.45,0c-0.36,0-.72,0-0.85,0-0.76,0-.33.06,0,0.11a0.65,0.65,0,0,0,.26.07h-0.6s0.73,0,.57,0h-0.72c0.08,0,.82,0,0.79,0a6.37,6.37,0,0,0-.71,0h0.35c-0.73,0-1.14,0-.47.08h-0.66l0.24,0c0.33,0,.65.05,0.82,0.05C181.28,33.92,182.72,33.94,184.17,33.9Z" transform="translate(-178.63 -31.84)" fill="#4d4d4d"/><path d="M193,34.44s0,0,0,0,0.18-.13.25-0.22v0L193.5,34l0.19-.18,0.37-.34s0,0,0,0,0.38-.23.07-0.31l-0.08,0h0l-0.2-.12-0.46-.22L193,32.58l-0.78-.32-0.34-.12c-0.16-.06-0.36-0.16-0.52-0.23a1.32,1.32,0,0,0-.34,0,0.62,0.62,0,0,0-.27-0.09,0.47,0.47,0,0,1-.42.06c-0.1,0-.26-0.09-0.3-0.09s0.13,0.08.07,0.08l0.56,0.16c0.19,0.06.38,0.16,0.57,0.23a12.07,12.07,0,0,1,1.15.53l0.44,0.2,0.34,0.18,0.17,0.09h0a4.72,4.72,0,0,1-.65.65l0,0c-0.2.19-.44,0.42-0.6,0.59l-0.21.25,0.13-.06c-0.08.07-.17,0.13-0.2,0.16s0,0.11.05,0.1,0,0.06.11,0l-0.16.11a0.64,0.64,0,0,1,.16-0.08c-0.06,0-.13.09-0.19,0.14s0.22-.14.23-0.12a0.7,0.7,0,0,0-.19.13l0.1-.06c-0.17.15-.35,0.22-0.09,0.15l-0.3.11h0l0.17-.06-0.15.06h0l0.12,0-0.11,0h0.1a0.88,0.88,0,0,0,.3-0.1A7.51,7.51,0,0,0,193,34.44Z" transform="translate(-178.63 -31.84)" fill="#4d4d4d"/></svg>