<svg id="瓜" xmlns="http://www.w3.org/2000/svg" viewBox="0 0 3.71 12.41"><title>arrow_down</title><path d="M166.23,58.61s0-.06,0,0c0,0.29,0,.52,0,0.8l0,0,0,0.69c0,0.42,0,.84,0,1.3,0,0,0,0,0,0,0,0.23,0,.44,0,0.69v0.11a0.07,0.07,0,0,0,0,0c0,0.11,0,.21,0,0.32,0,0.91.1,1.82,0.19,2.83v0.16h0.15a0.26,0.26,0,0,0,.15-0.06l0-.07a0.46,0.46,0,0,0,0-.1,1,1,0,0,0,0-.15c0-.1,0-0.19,0-0.29l0-.58-0.09-.87-0.09-1.36a5.9,5.9,0,0,0-.23-0.72,6,6,0,0,0-.07-0.7,2,2,0,0,1-.22-1c0-.28,0-0.72,0-0.82s0,0.37-.05.21c0,1.06.12,2.09,0.19,3.12l0.11,1.54a8.88,8.88,0,0,1,0,1.48,0.8,0.8,0,0,1,.23.14l0.3,0c-0.12-1-.16-5.48-0.16-6.68V58.64a17.74,17.74,0,0,0-.05-2.09l-0.09-.8,0,0.34c0-.27,0-0.54,0-0.65-0.06-.58-0.08-0.25-0.11,0a0.43,0.43,0,0,0-.06.2l0-.45a3.5,3.5,0,0,1,0,.43c0-.17,0-0.37,0-0.55,0,0.06,0,.63,0,0.6a3.87,3.87,0,0,0,0-.54,2.55,2.55,0,0,0,0,.27c0-.56-0.08-0.86-0.1-0.35,0-.15,0-0.42,0-0.62h0c0,0.08,0,.27,0,0.34V54.48c0,0.1,0,.19,0,0.24V54.51l0,0.18c0,0.25,0,.5,0,0.63C166.21,56.43,166.27,57.51,166.23,58.61Z" transform="translate(-164.69 -54.4)" fill="#4d4d4d"/><path d="M167.45,65s0,0,0,0a2.29,2.29,0,0,1-.16.2v0l-0.15.15-0.24.33s0,0,0,0l-0.15.15,0,0a0,0,0,0,0,0,0l-0.05,0a0.21,0.21,0,0,1,0,.07L166.58,66l-0.48-.42a2.3,2.3,0,0,1-.22-0.18,3.64,3.64,0,0,1-.28-0.34A1.33,1.33,0,0,0,165.3,65a0.65,0.65,0,0,0-.15-0.18c-0.06,0-.16,0-0.32-0.22a3.06,3.06,0,0,1-.11-0.32c0-.06,0,0.16,0,0.1a2.6,2.6,0,0,0,.59,1c0.23,0.27.47,0.51,0.71,0.76l0.11,0.1,0.22,0.22,0.18,0.19,0.1,0.1s0.07,0.09.1,0l0.42-.44a8.45,8.45,0,0,0,.77-0.95l0,0a4.28,4.28,0,0,0,.35-0.6l0.09-.25-0.09.08a0.87,0.87,0,0,0,.1-0.19c0.07-.18,0-0.1-0.09-0.07s0,0-.1,0l0.08-.12a0.39,0.39,0,0,1-.09.11,1.78,1.78,0,0,0,.09-0.16s-0.12.17-.13,0.15a0.41,0.41,0,0,0,.1-0.15,0.26,0.26,0,0,0-.05.07c0.09-.16.11-0.26,0-0.14,0,0,.08-0.11.11-0.17h0l-0.06.09,0.06-.09h0l0,0.06,0-.06-0.06,0a1.31,1.31,0,0,0-.15.15Z" transform="translate(-164.69 -54.4)" fill="#4d4d4d"/></svg>