<svg id="Page_1" data-name="Page 1" xmlns="http://www.w3.org/2000/svg" viewBox="0 0 93.58 66.28"><title>car</title><g id="Layer_1" data-name="Layer 1"><path d="M23.07,582.69a32.49,32.49,0,0,1,3.92.54,2.16,2.16,0,0,1,1.75,2,2.3,2.3,0,0,1-1.41,2.23,26.51,26.51,0,0,1-3,1.09c-1.5.53-1.85,1.07-1.62,2.69a7.94,7.94,0,0,0,.38,1.55c0.34,1,.94,1.17,1.82.55,0.43-.31,1.31-0.53,1.31.07,0,2.32,3,1.28,3.34,3.19,0.09,0.47,1.17.24,1.27-.26,0.3-1.54,1.47-2.84,1.17-4.53s0.7-2.49,1.85-3.22a9.7,9.7,0,0,1,13,2.82c1.15,1.75,2.1,3.64,3.3,5.76,0.53-.92.87-1.62,1.31-2.25a1.3,1.3,0,0,1,.9-0.57,1.18,1.18,0,0,1,.65.78c0.11,0.36-.1.84,0,1.17a1.78,1.78,0,0,0,.91,1,2.37,2.37,0,0,0,1.34-.56,1.89,1.89,0,0,0,.4-0.68c0.38-.67.63-1.66,1.61-1.38,0.27,0.08.23,1.16,0.37,1.78a2,2,0,0,0,2.86,1,3,3,0,0,0,.74-0.89c0.34-.53.37-1.41,1.23-1.35s0.62,1,.86,1.55a1.37,1.37,0,0,0,.4.62,1.82,1.82,0,0,0,1-.46c0.25-.28.25-0.81,0.52-1.05a3.17,3.17,0,0,1,1.31-.63,1.9,1.9,0,0,1,.46.94,1,1,0,0,0,.89,1.1,4.12,4.12,0,0,0,2,0c0.89-.41,1.66-1.6,2.44-1.56s1.3,1.59,2.58,1.44c0.53-.06,1.06,0,1.59,0a2.18,2.18,0,0,0,2.32-1.76c0.19-.77.42-1.54,0.65-2.3a8.11,8.11,0,0,1,8-5.94,15.17,15.17,0,0,1,4.7.8A6.12,6.12,0,0,1,96,592.36a13.55,13.55,0,0,1-1.67,11.49,10.33,10.33,0,0,1-2.48,2.57c-2.52,1.83-5,2.47-8.1.71-2.48-1.43-4.17-3.11-4.91-5.9-0.58-2.19-.71-2.21-3.06-2.17-2.79.05-5.59,0.12-8.37,0.33a60.83,60.83,0,0,1-11.16,0c-1.45-.15-2.93-0.09-4.38-0.26-1.71-.19-2.74.33-3.25,2.1-1.15,4-4.22,6-8,7.14a6.62,6.62,0,0,1-8.09-3.36,11,11,0,0,1-1.2-3.37c-0.27-2.07-1.47-3-3.34-3.39-0.78-.17-1.52-0.48-2.29-0.7a5.13,5.13,0,0,1-3.83-4.18,22.74,22.74,0,0,1-.65-5.52c0.73-13.64,6.19-25.18,15.92-34.69a22.19,22.19,0,0,1,9.73-5.32c6.66-1.84,13.42-3.34,20.17-4.89a25.87,25.87,0,0,1,10.71.07c8.8,1.68,14.78,6.85,18.35,15A33.09,33.09,0,0,1,99.17,572c0,2.11.45,2.61,2.41,3,1.57,0.29,3.18.4,4.73,0.75a15.6,15.6,0,0,1,3.75,1.28,7.78,7.78,0,0,1,4.37,5.84c0.69,4.3.53,8.51-1.56,12.44a8.09,8.09,0,0,1-6.16,4.58c-2.76.39-5.52,0.71-8.29,1a0.75,0.75,0,0,1-.6-0.38,1.39,1.39,0,0,1,.29-1,30.31,30.31,0,0,1,4.19-1.09,26,26,0,0,1,3.19-.07,6.78,6.78,0,0,0,6.22-4.27,16.42,16.42,0,0,0,.85-10.93,6.23,6.23,0,0,0-4.85-4.8,53.46,53.46,0,0,0-6.29-1.06c-4.27-.55-4.22-0.52-4.13-4.73a30.3,30.3,0,0,0-6-19.48c-4.91-6.36-11.87-9.21-20-8.64-1.3.09-2.07,0.87-1.77,2.11,0.69,2.89.32,5.8,0.46,8.7,0.08,1.59-.12,3.19-0.15,4.78a0.92,0.92,0,0,0,1.35.89c1-.45,1.89-1,2.83-1.47s2.09-1.18,3.19-1.64a3.33,3.33,0,0,1,1.43.13,3.44,3.44,0,0,1-.63.94,17.8,17.8,0,0,1-1.72,1c-1.61.94-3.22,1.87-4.82,2.83a6.07,6.07,0,0,0-1.29.93,3.31,3.31,0,0,0-.46,1,2.13,2.13,0,0,0,1,.25c1.24-.47,2.44-1,3.66-1.58,1.83-.79,3.65-1.59,5.49-2.34a0.72,0.72,0,0,1,.65.28,0.73,0.73,0,0,1-.25.67c-1.4.76-2.86,1.41-4.24,2.19-2.19,1.24-4.35,2.51-6.46,3.87a1.91,1.91,0,0,0-.18,1.43,1.18,1.18,0,0,0,1,.25c2.29-1.06,4.57-2.15,6.81-3.32,1.65-.86,3.22-1.88,4.84-2.79,0.74-.42,1.89-0.32,1.71,0a3.28,3.28,0,0,1-1,1.12c-2.49,1.53-5,3-7.54,4.5a5.85,5.85,0,0,0-1.71,1c-1.34,1.73-3.2,1.68-5.06,1.66A1.28,1.28,0,0,1,67,570.29c0-2.11-.14-4.24,0-6.33s0.76-3.89,1.08-5.85c0.61-3.76,0-4.1-3.35-2.48A11.46,11.46,0,0,1,60.26,557c0-1.2.83-1.19,1.36-1.47,1.76-.93,3.56-1.79,5.32-2.74a2.52,2.52,0,0,0,.6-0.93,2.3,2.3,0,0,0-1,0c-1.42.72-2.79,1.56-4.21,2.28a10.11,10.11,0,0,1-1.81.53c-0.23-1,.42-1,0.81-1.29,1.78-1.17,3.59-2.29,5.33-3.51a2.6,2.6,0,0,0,1.16-1.5,5.45,5.45,0,0,0-.4-3.05c-0.56-1-1.69-.22-2.55,0-1.82.4-3.66,0.76-5.43,1.32a33.19,33.19,0,0,0-3.6,1.61c-0.4-.06-0.79-0.12-1.18-0.15a10.48,10.48,0,0,0-5.23,1.39,1.11,1.11,0,0,0-.4,1,0.83,0.83,0,0,0,1.19.6,10.87,10.87,0,0,0,1.41-.67l4.14-2.17a1.77,1.77,0,0,1,.74,0,0.69,0.69,0,0,1,0,.63,20.7,20.7,0,0,1-1.91,1.4c-1.55,1-3.11,2-4.74,3,0.75,0.81,1.31.19,1.76,0,2.8-1.24,5.55-2.56,8.35-3.81a1.88,1.88,0,0,1,.93.32,1.71,1.71,0,0,1-.4.61c-1.63.9-3.27,1.78-4.93,2.62-0.95.48-1.94,0.87-2.91,1.32-1.43.66-3,1.27-3.64,2.81-0.34.8,1.86,0.47,4.58-1a26.64,26.64,0,0,1,2.9-1.18,0.45,0.45,0,0,1,.31.21,0.41,0.41,0,0,1,.05.36,1.72,1.72,0,0,1-.53.55q-2.81,1.49-5.64,2.94a7.53,7.53,0,0,0-1.76.86,1.92,1.92,0,0,0-.25,1.43,1.15,1.15,0,0,0,1,.32c1.22-.51,2.4-1.12,3.58-1.73,0.94-.48,1.85-1,2.8-1.5a0.76,0.76,0,0,1,.69.2,0.67,0.67,0,0,1,0,.66,23.72,23.72,0,0,1-2.55,1.9c-1.36.83-2.77,1.58-4.19,2.32a2.48,2.48,0,0,0-1.59,2.5c0.06,1.06,0,2.13,0,3.19,0,4.24,0,4.28,4,4.28,6.66,0,13.31,0,20-.07,0.93,0,1.91.12,2.55-.77,1-1.4,2.54-1.86,4-2.46,1.73-.69,3.42-1.47,5.16-2.14a1.54,1.54,0,0,1,1.94.07A7.76,7.76,0,0,1,83,569.73c-0.85.38-1.71,0.75-2.54,1.16-1.14.56-1.81,1.63-1.33,2a2.27,2.27,0,0,0,2.61.28c1.68-.79,3.34-1.62,5-2.4a4.17,4.17,0,0,1,1.13-.27,0.44,0.44,0,0,1,.29.25,0.43,0.43,0,0,1,0,.38c-0.71.57-1.47,1.09-2.13,1.7a2.46,2.46,0,0,0-.36,1,2.29,2.29,0,0,0,1.11.24A10,10,0,0,0,88.4,573c1.11-.76,1.39-0.66,2.39.77a1.88,1.88,0,0,0,.79.76c1,0.31,2,.52,3.11.78-0.39.84-1.12,0.58-1.67,0.58a34.14,34.14,0,0,1-5.18-.23c-7.67-1.24-15.42-.65-23.12-1.13-3.44-.22-6.91.24-10.37,0.26-2.92,0-5.85-.15-8.77-0.26-1.33,0-2.66-.18-4-0.2a74.88,74.88,0,0,1-12.73-.86,14.85,14.85,0,0,0-2-.2,1.37,1.37,0,0,0-1.57,1.38c-0.08.95,0.63,1,1.29,1.13a17.7,17.7,0,0,1,2,.32c0.93,0.26,1.89.77,1.83,1.81a2.87,2.87,0,0,1-1.22,1.87,25.7,25.7,0,0,1-3.24,1.51c-0.94.45-1.86,1-2.78,1.45-0.11.92-.28,1.82-0.32,2.73a1.39,1.39,0,0,0,.51,1c0.6,0.46,2.57,0,2.82-.72s-0.62-.9-1.12-1.25A18.28,18.28,0,0,1,23.07,582.69Zm88.48,3.36a6.1,6.1,0,0,1-2.21,4.66,3.58,3.58,0,0,1-6-2.25,10,10,0,0,1,.36-3.13c0.92-3.06,3-3.84,6.3-2.86C111.23,582.84,111.65,583.9,111.56,586.05Zm-6.56,1a14.69,14.69,0,0,0,.44,1.5c0.27,0.66,1.55,1.13,2,.67a1.91,1.91,0,0,0,.26-1.33,23.59,23.59,0,0,0-.45-3.06,1,1,0,0,0-.69-0.7,1.24,1.24,0,0,0-.83.67A21.1,21.1,0,0,0,105,587.07ZM29.83,566a54.31,54.31,0,0,0,9.82-5.18c0.87-.56,1.64-1.84,3-0.94-0.24,1.23-1.44,1.46-2.22,2.11a19.25,19.25,0,0,1-2.32,1.56c-2.49,1.52-5,3-7.5,4.5a4.8,4.8,0,0,1-1.49.31,2.18,2.18,0,0,0-2,2.35,1,1,0,0,0,.8.63,5.8,5.8,0,0,0,1.86-.63c3.4-1.82,6.77-3.68,10.15-5.53,1.16-.63,2.33-1.28,3.51-1.87a0.76,0.76,0,0,1,.69.18,0.67,0.67,0,0,1,0,.65,3.69,3.69,0,0,1-.93.72l-9,5.1c-0.57.32-1.15,0.65-1.68,1a0.8,0.8,0,0,0,.25,1.29c0.75,0.07,1.91.28,2.22-.11,1.69-2.08,4.21-2.72,6.35-4,1.37-.82,2.79-1.56,4.09-2.47a2.45,2.45,0,0,0,1-1.58c0.31-4,.53-7.95.71-11.92a1.41,1.41,0,0,0-2.11-1.43,20.83,20.83,0,0,0-2.53,1.17A30.07,30.07,0,0,0,29.83,566Zm6.3,33.81a10,10,0,0,0,.36,1.91,3.1,3.1,0,0,0,2.56,2.21A4.4,4.4,0,0,0,44.39,600c0.43-3.12-.63-5.51-3-6.74a2.73,2.73,0,0,0-3.81.87A8.54,8.54,0,0,0,36.14,599.78Zm47.92,0c0,0.4,0,.8,0,1.19,0.11,1.27.56,2.45,1.88,2.75a4.43,4.43,0,0,0,4.13-.71c2.15-2,2.62-6.75,1-9.29a2.69,2.69,0,0,0-4.39-.44A10.39,10.39,0,0,0,84.06,599.75Zm-37.71-31.7a2.54,2.54,0,0,0-1-.3c-2,1-3.93,2.07-5.88,3.13a1.58,1.58,0,0,0-.56.53,0.91,0.91,0,0,0-.18.69,0.69,0.69,0,0,0,.63.26c1.74-.9,3.47-1.8,5.15-2.79A14.74,14.74,0,0,0,46.35,568.05Zm-19.8,9.37c-0.45,0-.7,0-1,0a1.31,1.31,0,0,0-1.43,1,1.12,1.12,0,0,0,0,.73c0.45,0.72,1.12.45,1.69,0.21a8.25,8.25,0,0,0,1.6-.94,0.69,0.69,0,0,0-.07-0.64A3.46,3.46,0,0,0,26.55,577.42Zm18.38-4.54c1,0.06,1.55-.37,1.41-1.06a0.85,0.85,0,0,0-.43-0.57c-0.68-.23-1.93.54-1.73,1.05A1.82,1.82,0,0,0,44.93,572.89Z" transform="translate(-21.22 -542.48)" fill="#333"/></g></svg>