<svg id="Page_1" data-name="Page 1" xmlns="http://www.w3.org/2000/svg" viewBox="0 0 107.73 189.4"><title>chemistry.</title><g id="Layer_1" data-name="Layer 1"><path d="M156.1,139.68c-1.23-.07-2.45-0.12-3.68-0.2a3.91,3.91,0,0,1-1.22-.23,0.83,0.83,0,0,1-.38-0.65,0.76,0.76,0,0,1,.4-0.6c1.53-.11,3.06-0.14,4.59-0.24,0.78-.05,1.74-0.53,2.3-0.23,1,0.56.51,1.77,0.47,2.7-0.33,7.16-.72,14.32-1,21.49-0.22,5.06-.53,10.12-0.45,15.18a58.34,58.34,0,0,1-2.47,18.32,22.56,22.56,0,0,1-1,2.79c-2.5,5.43-5.32,7.05-11.36,6.67a26,26,0,0,1-8.67-1.56,34.28,34.28,0,0,1-4.5-2.27,11,11,0,0,1-5.44-9,156,156,0,0,1-.08-25.7c0.65-8.69,2.34-17.29,2.23-26a9.28,9.28,0,0,1,.24-2.51c0.46-1.7.25-3-1.48-3.88a4.42,4.42,0,0,1-2.24-3.85,3,3,0,0,1,2.6-3.26,12.22,12.22,0,0,1,2.1,0,164.41,164.41,0,0,0,19.39-.33c5.09-.4,10.09.56,15,1.61,2.44,0.52,3.37,2.59,2.51,4.87a2.82,2.82,0,0,1-2.45,2c-1.26.13-2.52,0.29-3.78,0.3-5.05.05-10.12,0.47-15.14-.5a5.93,5.93,0,0,1-1.61-.42,1.24,1.24,0,0,1-.6-1,1.2,1.2,0,0,1,.74-0.85,4.51,4.51,0,0,1,1.65,0c5.46,0.82,11,.35,16.43.34a4.85,4.85,0,0,0,2-.52,1.51,1.51,0,0,0,.49-1,0.88,0.88,0,0,0-.37-0.68,2.86,2.86,0,0,0-1.14-.49c-3.61-.53-7.22-1.36-10.85-1.44-6.18-.13-12.37.24-18.56,0.34-1.68,0-3.36-.21-5-0.2a1.74,1.74,0,0,0-1.38.67,2.83,2.83,0,0,0,.16,2,3,3,0,0,0,2.87,1.4c2.53,0.08,5.06.18,7.59,0.28a5.41,5.41,0,0,1,1.25.1,0.83,0.83,0,0,1,.48.55,1.31,1.31,0,0,1-.65.79c-1.26.05-2.53-.07-3.79,0a8.72,8.72,0,0,0-2.9.37,2.37,2.37,0,0,0-1,1.65,2.26,2.26,0,0,0,.9,1.2c0.18,0.17.58,0.1,0.78,0.26a1.48,1.48,0,0,1,.68.84,1.42,1.42,0,0,1-.8.8c-0.72.33-1.84,0-2.11,1-0.36,1.4,1,1.43,1.73,2,0.54,0.41.64,0.89-.06,1.24a4.79,4.79,0,0,0-1.18.39,1.84,1.84,0,0,0-.67,1.32c0.48,1.25.81,2.39-.27,3.49,0.42,2.84-1,5.35-1.4,8.07a177.71,177.71,0,0,0-.92,33.28,10.83,10.83,0,0,0,6.07,9.46,7.62,7.62,0,0,0,1.48.38,3.86,3.86,0,0,0-.47-1.16,16.47,16.47,0,0,1-5-10.39c-0.29-2.51-.33-5.05-0.56-7.57-0.34-3.82.35-7.54,0.95-11.22a25.15,25.15,0,0,1,8.07.14c2.78,0.33,5.61.21,8.41,0.31,2.24,0.08,4.49.09,6.71,0.34,1.39,0.16,1.91.89,1.89,2.34-0.09,4.64-.09,9.28-0.46,13.9a31.4,31.4,0,0,1-1.7,7.37c-1,2.84-2.47,5.37-5.36,6.76a2.15,2.15,0,0,0-.5.93,4,4,0,0,0,1.18.27,6.36,6.36,0,0,0,4.6-2.64,16.57,16.57,0,0,0,2.86-6.06,60,60,0,0,0,2.15-16.68,206.32,206.32,0,0,1,1.05-24,82.92,82.92,0,0,0,.19-8.85c0-1.13-.43-1.34-1.65-1.32s-2.47,0-3.7-.11a0.86,0.86,0,0,1-.41-0.66,0.74,0.74,0,0,1,.39-0.6c1.62-.29,3.25-0.53,4.87-0.78ZM141.58,59.53a5.78,5.78,0,0,1,.74-1.42,1.62,1.62,0,0,1,1.12-.27,0.85,0.85,0,0,1,.62.47,3.46,3.46,0,0,1-.5,3.53,0.91,0.91,0,0,1-1.39-.25C141.94,60.94,141.79,60.27,141.58,59.53ZM135,53c0-2.62,1.37-4.12,3.53-4.2a2.48,2.48,0,0,1,2.63,2.59,14.81,14.81,0,0,1-1.08,3.54,2.2,2.2,0,0,1-2.39,1.31,2.4,2.4,0,0,1-2.24-1.59A15.1,15.1,0,0,1,135,53Zm14.1,2.7c-2.31.1-3.56-1.22-3.32-3.14,0.34-2.78,2.34-4.54,4.79-4.2a2.09,2.09,0,0,1,1.87,2,5.83,5.83,0,0,1-2.14,4.82A4.48,4.48,0,0,1,149.15,55.67Zm35,26.63a6,6,0,0,1,1.3.52,1.27,1.27,0,0,1,.58.94,1.1,1.1,0,0,1-.77.76,8.58,8.58,0,0,1-2.38-.47,1.19,1.19,0,0,1-.61-0.93c0-.69.63-0.8,1.21-0.81h0.67ZM92.88,53.14c-0.49-.13-1.44-0.32-2.35-0.64a1.3,1.3,0,0,1-.78-0.81c-0.12-.85.69-0.82,1.14-0.77a19.46,19.46,0,0,1,3.25.69,1,1,0,0,1,.54.87,2,2,0,0,1-.91.65A3.32,3.32,0,0,1,92.88,53.14Zm93.81,25.43c-1.25-.28-2.95.08-4-1.24-0.69-.85,1.82-1.44,4.38-0.85a2.07,2.07,0,0,1,.77.29,6.48,6.48,0,0,1,.77.8,6.46,6.46,0,0,1-.89.78A3.6,3.6,0,0,1,186.69,78.57Zm0.09-7a14.63,14.63,0,0,1,2.64.83,3.56,3.56,0,0,1,.86,1.31,3.63,3.63,0,0,1-1.3.6,13.26,13.26,0,0,1-2-.39c-2.06-.32-3-1-2.47-1.37A10.22,10.22,0,0,1,186.78,71.62ZM125.66,54.89c-0.13-4.16,1.86-7.23,5-9.76A17.54,17.54,0,0,1,140,41.65a24.45,24.45,0,0,1,19.48,6.28c3.18,2.76,3.65,5.53,2.1,9.48-1.43,3.68-3.91,6.31-7.83,6.94-3.36.54-4.63,2.2-5,5.49-0.56,4.64-1.76,5.34-6.44,4.94-2.51-.21-3.27-0.88-3.61-3.25a25.22,25.22,0,0,1-.14-2.53c-0.14-3.42-.14-3.42-3.56-4.59-1.2-.41-2.41-0.77-3.59-1.23C127.06,61.49,125.68,59.46,125.66,54.89Zm17.45-10.81a16.27,16.27,0,0,0-12.16,3.75,8.79,8.79,0,0,0-3.24,9,5,5,0,0,0,3.61,4.27c2.55,0.78,5.09,1.6,7.67,2.25a1.92,1.92,0,0,1,1.7,2c0.06,1.69.07,3.38,0.23,5.05A2.16,2.16,0,0,0,143,72.63c1.51,0.14,2.73-.39,3.07-1.61a28.71,28.71,0,0,0,.83-4.53,3.25,3.25,0,0,1,2.85-3.14,33.65,33.65,0,0,0,5.68-1.55,7.4,7.4,0,0,0,2.06-12.66,14.09,14.09,0,0,0-2.07-1.44C151.49,45.41,147.38,43.65,143.11,44.07ZM139,85.14c-0.73-1.58-2.12-2-3.37-2.62-1.52-.72-3.09-1.35-4.65-2a2.12,2.12,0,0,0-2.35.42,10.74,10.74,0,0,1-1.92,1.63,7.14,7.14,0,0,1-2.76.85c-1.54.1-2.72-1.71-1.85-2.91a13.24,13.24,0,0,0,2.37-5.75,3.86,3.86,0,0,1,.52-1.15,2,2,0,0,1,3.48-.22,5.54,5.54,0,0,1,.83,2.32c0.18,1.63,1.13,2.38,2.56,3,2.72,1.14,5.39,2.39,8,3.71a2.73,2.73,0,0,0,3.11-.18c1.74-1.19,3.6-2.2,5.34-3.38,2.62-1.76,4.81-3.82,5.26-7.24a7.16,7.16,0,0,1,1.35-3c0.91-1.29,3.22-.93,3.29.56a10.8,10.8,0,0,0,1.94,6.48c0.53,0.7-.17,2-1,2.54A2.79,2.79,0,0,1,155.7,78c-0.64-.68-0.23-1.25.49-1.65a5.5,5.5,0,0,0,.65-0.49,3,3,0,0,0-1-.32,2.09,2.09,0,0,0-1.13.48,91.45,91.45,0,0,1-9.86,7.19c-1.36.91-1.35,1.71-.15,2.63,0.66,0.51,1.41.91,2.11,1.38,1.27,0.84,2.5,1.14,3.84.07a5.25,5.25,0,0,1,1.9-.87,2.87,2.87,0,0,1,3.23,1.4,2.8,2.8,0,0,1-.55,3.12,2.4,2.4,0,0,1-.63.55c-1.41.73-1.75,1.95-1.91,3.45-0.21,1.88-1.33,2.87-2.59,2.76-1.71-.15-2.72-1.65-2.52-3.72a2.06,2.06,0,0,1,.16-0.82c1.21-2.05-.06-3.1-1.61-4s-3.14-1.85-4.7-2.77c-1.55.93-3.13,1.81-4.65,2.8-1.29.84-2.5,1.82-3.76,2.7a5,5,0,0,0-2,3.52c-0.09.6,0.68,1.62,1.21,1.46a1.8,1.8,0,0,0,1.13-1,26.46,26.46,0,0,0,.25-2.9,0.75,0.75,0,0,1,.59-0.4,0.9,0.9,0,0,1,.68.35,4.11,4.11,0,0,1,0,4.4,3,3,0,0,1-5.22.31,16.39,16.39,0,0,1-2.21-4.94c-0.66-2.64,1.16-4.23,3.86-3.71a3.64,3.64,0,0,0,2,.1,25.44,25.44,0,0,0,3.64-2.12A27.69,27.69,0,0,0,139,85.14ZM126.8,79.56a1.24,1.24,0,0,0-.51-0.43A2.11,2.11,0,0,0,124,80.56a0.72,0.72,0,0,0,.27.65A2.14,2.14,0,0,0,126.8,79.56Zm25.12,11a3.25,3.25,0,0,0,1.17-.44,1.26,1.26,0,0,0,.32-1.06,1.15,1.15,0,0,0-1-.39,2.25,2.25,0,0,0-1.09.53,0.86,0.86,0,0,0-.3.69A3.65,3.65,0,0,0,151.91,90.59ZM126.72,77.27a6.07,6.07,0,0,0,.56-1.41,3.43,3.43,0,0,0-.26-1.05,4.23,4.23,0,0,0-1.05.83A5.3,5.3,0,0,0,126.72,77.27Zm25.08,87.63a2,2,0,0,1-.82-0.7,1.23,1.23,0,0,1,.63-0.89,2.4,2.4,0,0,1,1.22-.16,1.2,1.2,0,0,1,.69.34,1.77,1.77,0,0,1-.46,1A4.3,4.3,0,0,1,151.79,164.9Zm1.6-8.38c-0.87-.18-1.56-0.28-2.22-0.49a0.82,0.82,0,0,1-.34-0.67,0.78,0.78,0,0,1,.42-0.6,9.36,9.36,0,0,1,2.06-.24c0.82,0,1.67.88,1.31,1.23A5.89,5.89,0,0,1,153.4,156.52Zm-0.94-4.9a12.09,12.09,0,0,1-1.61-.51,0.72,0.72,0,0,1-.17-0.68c0.67-.91,3.17-1.06,4.19-0.25a0.83,0.83,0,0,1-.08.72C154,151.18,153.24,151.39,152.45,151.62Zm0.22-6.22a11.63,11.63,0,0,1,1.63.37,1.1,1.1,0,0,1,.28.69,0.43,0.43,0,0,1-.16.34,3.11,3.11,0,0,1-3.83-.14,0.8,0.8,0,0,1,.13-0.72A19.67,19.67,0,0,1,152.67,145.4Zm2,14.27a1,1,0,0,1-.19.34,4.65,4.65,0,0,1-3.85.92,0.86,0.86,0,0,1-.45-0.61,0.88,0.88,0,0,1,.21-0.71c1.32-.24,2.65-0.42,4-0.57A2,2,0,0,1,154.7,159.68ZM156.3,116c-0.08,1.67-.12,3.35-0.27,5a1.07,1.07,0,0,1-.8.69,1.11,1.11,0,0,1-.83-0.69c-0.11-1.39-.11-2.79-0.11-4.19,0-1.68.07-3.37,0-5.05a1.38,1.38,0,0,0-.88-0.6,0.77,0.77,0,0,0-.59.45c-0.2,1-.33,1.93-0.45,2.9-0.29,2.37-.54,4.75-0.87,7.11a2.56,2.56,0,0,1-.69.91,2.82,2.82,0,0,1-.84-1.14c0-1.26.33-2.51,0.37-3.77a52.82,52.82,0,0,0-.07-5.44,1.44,1.44,0,0,0-1.05-1,1.59,1.59,0,0,0-1.17.94c-0.42,1.78-.7,3.59-1,5.39-0.17,1.11-.16,2.25-0.38,3.35a1.73,1.73,0,0,1-.84,1.2c-1,0-.79-0.95-0.74-1.54,0.16-1.82.46-3.63,0.64-5.45a21.23,21.23,0,0,0,.06-3.36,1,1,0,0,0-1.87-.24,11.3,11.3,0,0,0-.55,2.42c-0.32,2.37-.58,4.74-0.94,7.11a1.35,1.35,0,0,1-.9.56,0.79,0.79,0,0,1-.54-0.52c0-1.26.08-2.51,0.15-3.76,0.12-2.1.29-4.2,0.36-6.3a1.42,1.42,0,0,0-.86-0.69,0.77,0.77,0,0,0-.66.37,41.87,41.87,0,0,0-.93,4.5c-0.23,1.81-.24,3.64-0.43,5.46a1.36,1.36,0,0,1-.83.63,0.86,0.86,0,0,1-.52-0.53,29.69,29.69,0,0,1-.15-3.33c0.05-2.11.21-4.21,0.27-6.32a2.53,2.53,0,0,0-.35-1.19,0.9,0.9,0,0,0-.67-0.4,0.85,0.85,0,0,0-.68.38,13,13,0,0,0-.68,2.4c-0.45,2.92-.82,5.84-1.27,8.76a2.55,2.55,0,0,1-.74.9,2.35,2.35,0,0,1-.74-0.92,32.36,32.36,0,0,1,.13-3.75c0.21-2.38.5-4.75,0.69-7.13a2.53,2.53,0,0,0-.36-1.59,2.29,2.29,0,0,0-1.4-.75,1.23,1.23,0,0,0-.89.7,6.24,6.24,0,0,0-.49,2c-0.15,2.94-.2,5.89-0.37,8.83a15,15,0,0,1-.56,2.84,0.83,0.83,0,0,1-.66.39,0.81,0.81,0,0,1-.65-0.41,7.14,7.14,0,0,1-.27-2.05c0.26-4.07.51-8.14,0.9-12.2a3.7,3.7,0,0,0-1.55-3.64,3,3,0,0,0-2.72-.67c-8.12,2-15-.79-21.17-5.75a18,18,0,0,1-7-13.45c0-.84-0.09-1.69-0.06-2.53a3.57,3.57,0,0,0-1.49-3.29c-3-2.16-4.58-5.26-5.62-8.7-0.53-1.75-1.09-3.49-1.53-5.27a32.31,32.31,0,0,1,2.41-22.18,23.89,23.89,0,0,1,11.16-11.11,39.4,39.4,0,0,1,20.88-4.09,7.39,7.39,0,0,0,6-2.2c6.24-5.58,13.5-9.11,22-9.71,10.47-.74,18.54,3.57,24.72,11.82,0.75,2.64,2.83,3.75,5,5.09A12,12,0,0,1,184.79,41a16.89,16.89,0,0,1,.19,2.52A4.86,4.86,0,0,0,186.33,47c3.94,4.31,5.5,9.73,6.86,15.21a31.91,31.91,0,0,1-.11,14.65,21.38,21.38,0,0,1-6.22,11.28c-1.74,1.64-3.56,3.2-5.35,4.77a17.2,17.2,0,0,1-9.21,3.88,6.29,6.29,0,0,0-4.9,3.38c-1.73,2.89-3.78,5.62-6.85,7.32a3.13,3.13,0,0,0-1.61,2.78c-0.1,1.68-.17,3.37-0.23,5.06,0,1.4,0,2.81-.11,4.21s-1.09,2.73-1.26,2.34a7.1,7.1,0,0,1-.5-2.36c-0.08-1.11,0-2.23,0-3.35Zm9.84-18.35a27.27,27.27,0,0,1-2.53-1.49,1.22,1.22,0,0,1-.32-1.09,1.13,1.13,0,0,1,.9-0.63,26,26,0,0,0,10-.62,24.48,24.48,0,0,0,4.3-1.62,1,1,0,0,0,.43-1.67,1.29,1.29,0,0,1-.16-1.86,2.89,2.89,0,0,0,.73-1.44,1.12,1.12,0,0,1,1.36-1.18,8.72,8.72,0,0,1,2.1.11c2.3,0.67,3.71-.4,4.87-2.21,1-1.5.7-2-1.23-2.43a16.16,16.16,0,0,1-2.45-.56,1.62,1.62,0,0,1-.55-1,0.86,0.86,0,0,1,.59-0.45c1.54,0.06,3.08.12,4.61,0.29a1.31,1.31,0,0,0,1.6-1c0.57-2.31,1.09-4.64,1.52-7,0.32-1.75.13-1.94-1.5-2.34-1.23-.3-2.47-0.54-3.68-0.91a1.06,1.06,0,0,1-.57-0.87A1.19,1.19,0,0,1,187,67c1.24,0.05,2.47.25,3.71,0.41,0.8,0.1,1.22-.37,1.12-1.3-0.14-1.4-.44-1.76-1.72-1.94-1.11-.16-2.24-0.21-3.33-0.44a1.13,1.13,0,0,1-.65-0.89,1.16,1.16,0,0,1,.69-0.88c1-.1,2,0,2.93,0s1.64-.58,1.28-1.6a76,76,0,0,0-3.6-9.43c-1.55-3-2.67-2.73-4-.27a3.83,3.83,0,0,1-1,1.34,2.05,2.05,0,0,1-1.46.2,1.25,1.25,0,0,1-.31-1.09,18.57,18.57,0,0,1,1.1-2.26c1.88-3.72,1.44-7.43-.37-11-1.51-2.94-4.58-5.73-9.48-4.3a3.87,3.87,0,0,1-1.22.21,0.88,0.88,0,0,1-.58-0.5,0.93,0.93,0,0,1,0-.78,7.22,7.22,0,0,1,1.15-1.19c1.79-1.5,1.9-1.59.71-3.32a22.57,22.57,0,0,0-16.41-10c-9.48-1.19-17.75,1.94-25.17,7.59a13,13,0,0,0-4.8,6.79,35.42,35.42,0,0,1-1.31,3.55,0.81,0.81,0,0,1-.68.35,0.72,0.72,0,0,1-.47-0.53c0.13-1.25.3-2.5,0.49-3.75,0.25-1.58,0-2.15-1.62-2.23a56.27,56.27,0,0,0-8.41,0,26.16,26.16,0,0,0-9,2.24,1.64,1.64,0,0,0-1.28,1.46c0,0.55.06,1.09,0.09,1.64-0.66,0-1.33,0-2,0a7.58,7.58,0,0,0-1.21-.31,3.06,3.06,0,0,0-1.49.54,0.94,0.94,0,0,0,0,1.46,4.92,4.92,0,0,1,.67,1.05,0.79,0.79,0,0,1-.86,1.06c-0.69-.1-1.37-0.29-2.07-0.38a2,2,0,0,0-1.24.06A3.89,3.89,0,0,0,93.84,40c-0.4.86,0.4,1.17,1,1.47a13.86,13.86,0,0,1,1.89.91,1.28,1.28,0,0,1,.53,1,1.13,1.13,0,0,1-.87.59,7.25,7.25,0,0,1-1.65-.24c-0.83-.15-1.65-0.36-2.48-0.44a1.34,1.34,0,0,0-1.45,1.22,1,1,0,0,0,.7,1.29,3.16,3.16,0,0,1,.8.26c1.25,0.79,3.15.2,4,1.88-1.45,1.7-3.06,0-4.59.21A2.12,2.12,0,0,1,90.91,48a1.34,1.34,0,0,0-1.84,1.18C88.69,51.07,88.44,53,88.16,55a1.5,1.5,0,0,0,1.23,1.88c1.09,0.27,2.18.54,3.24,0.88a0.8,0.8,0,0,1,.37.65,0.77,0.77,0,0,1-.42.6c-1.11.13-2.24,0.1-3.33,0.31a1.53,1.53,0,0,0-1,1A2.38,2.38,0,0,0,89.06,62a11.11,11.11,0,0,0,2.46.4,1.34,1.34,0,0,1,.9.75,1.28,1.28,0,0,1-.64.94,9.55,9.55,0,0,0-1.53.6c-0.15.14,0.52,1.18,0.37,1.33-1.43,1.37-.76,2.83-0.32,4.27a13,13,0,0,0,4.14,6.26c1.69,1.39,3.32,3.06,5.78,3.15,0.76,0,1.71-.42,2.24.57,0.29,0.53-.62,1.08-2.24,1.34a6.26,6.26,0,0,1-1.26,0,1.27,1.27,0,0,0-1.49,1.53,16.3,16.3,0,0,0,2.95,9.09,24,24,0,0,0,14.05,9.41,21,21,0,0,0,6.68.47c3-.25,3.55-1.3,2.38-3.83a12.7,12.7,0,0,1-.87-2.37c-0.32-1.36-.55-2.74-0.76-4.11a1,1,0,0,1,.34-0.7,1.35,1.35,0,0,1,.93.41c0.88,2.22,1.67,4.48,2.54,6.71,1.53,3.94,4.47,6.31,8.41,7.68a62,62,0,0,0,12.39,2.48,23.75,23.75,0,0,0,6.71-.4,9.4,9.4,0,0,0,3.82-1.57,9.68,9.68,0,0,1,2.48-1.37,7.39,7.39,0,0,0,2.79-1.78A17.6,17.6,0,0,0,166.15,97.69Zm-15.68,87.65c0.09-.68.2-1.36,0.23-2a1.31,1.31,0,0,0-.52-0.42,1.44,1.44,0,0,0-.37.66,18.94,18.94,0,0,0,.75,1.87c-1.45,1.12-.9,2.58-0.62,4C150.12,188.05,150.3,186.7,150.46,185.34ZM134.67,198c0.29-.94.65-1.86-0.36-2.65a5.83,5.83,0,0,1-2.35-6.17,2.42,2.42,0,0,0-.18-1.58c-0.9-1.52-1.92-3-3.27-5a18.06,18.06,0,0,0,.55,6.89c1.14,3.29,2.1,6.8,5.7,8.47a9.92,9.92,0,0,0,11.41-.59c0.4-.28,1-0.65.56-1.26-1.37.61-2.7,1.27-4.09,1.76a2.4,2.4,0,0,1-1.56-.2c-1.18-.5-1.53-1-2.56-3l-1.61,2.52A2.48,2.48,0,0,1,134.67,198ZM150,178.3a6.88,6.88,0,0,0,.61-4.8,1.14,1.14,0,0,0-.91-0.58,1,1,0,0,0-.64.77c0.15,0.66.58,1.25,0.75,1.91A19,19,0,0,1,150,178.3Zm-10.36,0a2,2,0,0,0,.5-0.55,15.47,15.47,0,0,0,.4-1.51,1.27,1.27,0,0,0-.28-0.07c-0.29.6-.57,1.21-0.83,1.82A0.78,0.78,0,0,0,139.67,178.32Zm-10.51-4a2.4,2.4,0,0,0,.82-0.63,8.5,8.5,0,0,0-.11-1.48,1.34,1.34,0,0,0-.59.38A12.7,12.7,0,0,0,129.16,174.32Z" transform="translate(-86.26 -15.35)" fill="#333"/></g></svg>