<svg id="Page_1" data-name="Page 1" xmlns="http://www.w3.org/2000/svg" viewBox="0 0 189.33 104.27"><title>factory</title><g id="Layer_1" data-name="Layer 1"><path d="M946.4,1188.61a2.29,2.29,0,0,1-2.45,1.51c-2.94.13-4.15,2-5.26,4.41a148.87,148.87,0,0,1-12.43,22.66,19.74,19.74,0,0,1-9.31,7.11,6.63,6.63,0,0,1-5.55-.18c-4.47-2.07-6.91-5.66-7.85-10.39a11.33,11.33,0,0,1-.17-1.63c-0.13-2.72-.6-5.45,1-8a18.43,18.43,0,0,1,7.64-7.26,81.14,81.14,0,0,1,18.16-6.41c5.82-1.21,5.81-1.26,8.14-6.6,0.27-.61.47-1.25,0.67-1.79-0.66-.77-1.12-0.24-1.56,0a27.92,27.92,0,0,1-2.54,1.34c-2.58,1-4.33-.39-4.16-3.19,0.07-1.09.36-2.16,0.49-3.25,0.09-.78.09-1.57,0.15-2.86-1.42.89-2.48,1.46-3.42,2.18-1.74,1.33-3.42,2.75-5.1,4.15a18.53,18.53,0,0,1-6.1,3.33,3.34,3.34,0,0,1-4.62-2.66,21,21,0,0,1,.08-5.7,48.32,48.32,0,0,1,1.44-5.56c0.33-1.25,0-1.72-1.34-1.9-1.49-.2-3-0.44-4.47-0.59s-2-2-3.67-1.39a28.91,28.91,0,0,1-3.83,1.46c-3.33.75-5.31,2.78-6.92,5.77-2.59,4.83-6.73,8.23-11.55,10.8a5.72,5.72,0,0,1-1.88.78c-3.34.39-6.05-.42-5.73-4.79,0-.55.17-1.09,0.17-1.63,0-1,.83-2.44-0.32-2.93s-1.77,1-2.57,1.69c-2.62,2.21-5.14,4.53-7.8,6.69a14.93,14.93,0,0,1-3.52,2,1.81,1.81,0,0,1-2.66-1.62,34.51,34.51,0,0,1,.42-6.53c0.49-2.69,1.36-5.3,2.06-8a2.14,2.14,0,0,0-.11-1.72c-0.54.7-1.13,1.37-1.61,2.11a63.74,63.74,0,0,1-7,8.59,37.38,37.38,0,0,1-7.82,5.94,8.87,8.87,0,0,1-5.13,1.19,6.71,6.71,0,0,1-6.12-4.63c-0.17-.52-0.21-1.07-0.35-1.6-0.45-1.78-1-1.95-2.48-.71s-3.14,2.65-4.67,4a8.1,8.1,0,0,1-4.79,2.12c-2.08.19-3.82-.22-4.79-2.31a15.71,15.71,0,0,0-1-1.56c-1,.61-1.91,1.16-2.81,1.74s-2,1.45-3.08,2c-2.44,1.3-4.95,1.64-7.38-.05s-4.1-4.1-3.48-7.33c0.51-2.69,1.2-5.34,1.83-8,0.16-.67.39-1.32,0.53-2,0.23-1.11-.1-1.6-1.17-1.68-2.6-.19-5.19-0.36-7.79-0.5-1.63-.08-3.25-0.08-4.88-0.11-1.41,1.54-1.12,3.59-1.59,5.41-0.89,3.44-1.51,7-2.41,10.4a21.2,21.2,0,0,1-5.48,9.51,5.73,5.73,0,0,1-5.13,2,2.13,2.13,0,0,1-1.81-1.46c-0.36-1,.37-2.25,1.31-1.94,1.87,0.63,2.54-.38,3.07-1.74,1-2.68,2.18-5.33,2.95-8.09,1.14-4.09,2-8.25,2.95-12.39,0.37-1.67-.23-2.31-2-2.18-1.5.11-3,.3-4.5,0.48a4.75,4.75,0,0,0-3.33,1.37,3,3,0,0,1-1,.67,1.87,1.87,0,0,1-2.09-.89,1.32,1.32,0,0,1,.53-1.78,12.41,12.41,0,0,1,5.83-1.77c1.37-.1,2.74-0.09,4.1-0.24,2.47-.27,2.71-0.56,3.16-2.94,0.66-3.5,1.27-7,2.06-10.48a34.28,34.28,0,0,1,6.88-14.76,29.76,29.76,0,0,1,9.41-7.81,61,61,0,0,1,13.31-5.32,24.28,24.28,0,0,1,9.35-.54c8.59,1.3,10.93,7.61,9.11,14.36-1.22,4.5-4.15,8-7.38,11.21a6.33,6.33,0,0,1-3.7,1.63c-3.18.48-4.55-.63-4.75-3.95a1.37,1.37,0,0,1,.35-1.08c0.65-.34.93,0.24,1.16,0.75a14.25,14.25,0,0,0,.66,1.49,1.07,1.07,0,0,0,1.74.25,21,21,0,0,0,3.19-3.72c2.82-5,3.2-10.39,2.34-15.95a3.16,3.16,0,0,0-3-2.83,20.87,20.87,0,0,0-7.35.14,53.09,53.09,0,0,0-13.76,5.29,12,12,0,0,0-3.72,3.16,32.06,32.06,0,0,0-6.55,13.11c-1.08,4.95-2.34,9.86-3.51,14.79a10,10,0,0,0-.22,1.62,1.54,1.54,0,0,0,1.24,1.84,37.89,37.89,0,0,0,4.47.64c1.64,0.11,3.29.07,4.93,0,2.35,0,4.66-.24,6.51-2a3.14,3.14,0,0,1,1.44-.72c1-.21,2.09-0.26,2.59.67a3,3,0,0,1,0,2.32,42.15,42.15,0,0,1-2.6,4.64,24.91,24.91,0,0,0-2.88,8.09,8.67,8.67,0,0,0,.55,5.62,2.62,2.62,0,0,0,2.6,1.64,7.16,7.16,0,0,0,5.75-2.74,22.3,22.3,0,0,0,4.53-10,1.49,1.49,0,0,0-1.08-1.88,18.18,18.18,0,0,1-4.06-1.88,3.35,3.35,0,0,1,.76-6.12c2.39-.91,4.72-1.21,6.91.79,1.54,1.41,1.63,1.23,3.72,0a7,7,0,0,1,2.65-.91,1.76,1.76,0,0,1,1.71,2.55,7.71,7.71,0,0,1-1.45,2c-3.69,3.71-4.84,8.48-5.67,13.4a5.37,5.37,0,0,0,0,1.23,2.26,2.26,0,0,0,3.22,2,8.2,8.2,0,0,0,2.08-1.27c1.92-1.55,3.75-3.21,5.7-4.71a11.07,11.07,0,0,0,3.52-4.43,25.24,25.24,0,0,1,5.85-8.37,12.88,12.88,0,0,1,8.57-3.45,1.94,1.94,0,0,1,1.27.83,1.36,1.36,0,0,1-.93,1.58c-3.88-.54-5.3,2.1-6.53,5-1.13,2.64-2.3,5.27-3.27,8a11.75,11.75,0,0,0-.61,4c0,2.51,1.67,3.54,4.12,2.92a16.09,16.09,0,0,0,7.73-4.44,53,53,0,0,0,7.16-8.44c2.14-3.35,4.5-6.57,6.44-10a78.85,78.85,0,0,0,3.82-8.63c0.47-1.14-.08-1.79-1.38-1.8s-2.74.08-4.11,0.07a2.58,2.58,0,0,1-1.15-.33,0.82,0.82,0,0,1,0-1.31,19.19,19.19,0,0,1,2.81-.37c5.71-.22,5.3-0.47,7.12-5,1.58-3.93,3.45-7.75,5.29-11.58a9.23,9.23,0,0,1,3.37-4.06,1.37,1.37,0,0,1,2.14,1,13.79,13.79,0,0,1-.77,4.38c-1.28,3.16-2.81,6.23-4.26,9.32-0.58,1.24-1.24,2.44-1.78,3.7a1.09,1.09,0,0,0,1,1.73c1.5,0.06,3,0,4.52,0,1.9-.07,3.79-0.22,5.63-0.32a0.88,0.88,0,0,1-.75,1.3c-2.42.46-4.84,0.87-7.27,1.22a16.47,16.47,0,0,1-2.87.07,2.92,2.92,0,0,0-3.11,2.15c-0.18.52-.45,1-0.64,1.51-2.45,6.54-5,13.06-7.3,19.64a62.34,62.34,0,0,0-1.78,7.58,6.11,6.11,0,0,0,0,1.63,0.87,0.87,0,0,0,1.22.66c0.79-.54,1.56-1.1,2.3-1.7,3.49-2.87,7-5.71,10.42-8.66a16.19,16.19,0,0,0,2.94-3.37,19.73,19.73,0,0,1,4.53-4.72,6.12,6.12,0,0,1,1-.69c0.63-.31,1.38-0.57,1.82.16a1.89,1.89,0,0,1,0,1.51,10.5,10.5,0,0,1-1.21,1.64,32.53,32.53,0,0,0-5.2,11.1,17.24,17.24,0,0,0-.34,4.05,1.28,1.28,0,0,0,1.81,1.08,4.79,4.79,0,0,0,1.78-1c2.93-3.1,5.6-6.38,7.14-10.45a3.52,3.52,0,0,0-.46-3.75c-1.83-2.57.06-6.23,3.25-6.77,2.4-.41,3.88.65,4.36,3.12a5.94,5.94,0,0,0,.24,1.61,1.64,1.64,0,0,0,1.18.84,13.88,13.88,0,0,0,6.26-2.87,3.36,3.36,0,0,0,.67-1.45c0.4-1,.71-2.07,1.21-3a3,3,0,0,1,2.23-1.64c2-.34,3.39,1.13,2.57,2.92a23.64,23.64,0,0,1-2.54,3.66,1,1,0,0,0,.61,1.56,23.44,23.44,0,0,0,2.84.4,5,5,0,0,0,4.89-2.28,25.94,25.94,0,0,1,4.77-5c1.67-1.38,3.2-1.17,4.9.08a2.71,2.71,0,0,1,.62,4,7.23,7.23,0,0,1-3.47,2.79,6.75,6.75,0,0,0-3.77,3.57,36,36,0,0,0-3.53,8.29,23.12,23.12,0,0,0-.55,2.4c-0.24,1.72.59,2.43,2.07,1.74a15.92,15.92,0,0,0,3.19-1.84c3.33-2.63,6.6-5.35,9.88-8a9.4,9.4,0,0,0,3-4.34,32.87,32.87,0,0,1,1.9-4.55,17.37,17.37,0,0,1,2.3-3.36c1-1.15,2.09-1.35,2.88-.8a2.39,2.39,0,0,1,.7,3,16,16,0,0,1-1.52,3.33c-2.76,4.65-4,9.87-5.81,14.88a0.91,0.91,0,0,0,.47,1.34,1.47,1.47,0,0,0,1.13-.23c3.74-2.79,7.39-5.62,9.36-10.12a66.2,66.2,0,0,1,4.12-7.58,27.89,27.89,0,0,1,3.22-4.23,2.27,2.27,0,0,1,1.87-.35,1.71,1.71,0,0,1,1.33,1.85,8.78,8.78,0,0,1-.65,2.77q-1.52,3.37-3.27,6.63c-2.71,5.07-5.49,10.11-8.23,15.16a13.18,13.18,0,0,0-.67,1.5,1.2,1.2,0,0,0,.9,1.84C944.88,1188.25,945.63,1188.41,946.4,1188.61Zm-12.92,3.73h0Zm0,0a27.33,27.33,0,0,0-13,3.54,6.46,6.46,0,0,0-1.27,1,43.94,43.94,0,0,0-10.59,15.46,20.43,20.43,0,0,0-1.1,4.35,3.45,3.45,0,0,0,.21,2,7.55,7.55,0,0,0,5.38,4,4.77,4.77,0,0,0,5.07-1.9,21.76,21.76,0,0,0,1.56-1.9,87.83,87.83,0,0,0,4.84-7.61c3-5.83,5.83-11.78,8.7-17.69A4.88,4.88,0,0,0,933.48,1192.34ZM810.7,1164.21h0Zm0,0a3.68,3.68,0,0,0,.51,1.1,4.78,4.78,0,0,0,1.58,1.19,2.59,2.59,0,0,0,1.86,0c0.72-.37.4-1.17,0.16-1.79-0.69-1.78-2-2.35-3.4-1.48A3.4,3.4,0,0,0,810.7,1164.21Z" transform="translate(-766.75 -1120.57)" fill="#333"/></g></svg>