<svg xmlns="http://www.w3.org/2000/svg" viewBox="0 0 102.32 59.12"><title>mall</title><g style="isolation:isolate"><g id="o"><path d="M110.71,111.79a1.45,1.45,0,0,1-1.52,1.36H37.93a1.45,1.45,0,0,1-1.52-1.36h0a1.45,1.45,0,0,1,1.52-1.36h71.26a1.45,1.45,0,0,1,1.52,1.36h0Z" transform="translate(-24.84 -58.73)" fill="#d9d9d9" style="mix-blend-mode:multiply"/><path d="M107.82,110.06H39.06V70.55a1.7,1.7,0,0,1,.56-1.26A2,2,0,0,1,41,68.76H105.9a2,2,0,0,1,1.36.52,1.71,1.71,0,0,1,.56,1.26v39.51Z" transform="translate(-24.84 -58.73)" fill="#4d4d4d"/><polygon points="80.1 48.43 80.1 12.93 17.1 12.93 80.1 48.43" fill="#f2f2f2"/><polygon points="17.1 12.93 17.1 48.43 80.1 48.43 17.1 12.93" fill="#fff"/><rect x="14.8" width="68.18" height="2.6" fill="#be5b7c"/><path d="M107.82,75H39.06v7a5.93,5.93,0,0,0,6.1-2.22,6,6,0,0,0,9.53,0,6,6,0,0,0,9.53,0,6,6,0,0,0,9.57-.06,6,6,0,0,0,9.58.06,6,6,0,0,0,9.53,0,6,6,0,0,0,9.53,0,6,6,0,0,0,4.77,2.38c0.21,0,.42,0,0.63,0V75Z" transform="translate(-24.84 -58.73)" fill="#d9d9d9" style="mix-blend-mode:multiply"/><polygon points="40.41 2.24 39.38 17.48 48.93 17.48 48.92 2.24 40.41 2.24" fill="#ffbf52"/><polygon points="23.38 2.24 20.29 17.48 29.84 17.48 31.89 2.24 23.38 2.24" fill="#ffbf52"/><polygon points="31.89 2.24 29.84 17.48 39.38 17.48 40.41 2.24 31.89 2.24" fill="#e36d94"/><polygon points="14.8 2.24 10.69 17.48 20.29 17.48 23.38 2.24 14.8 2.24" fill="#e36d94"/><polygon points="82.98 2.24 74.47 2.24 77.56 17.48 87.1 17.48 82.98 2.24" fill="#ffbf52"/><polygon points="65.96 2.24 68.02 17.48 77.56 17.48 74.47 2.24 65.96 2.24" fill="#e36d94"/><polygon points="57.44 2.24 58.47 17.48 68.02 17.48 65.96 2.24 57.44 2.24" fill="#ffbf52"/><polygon points="48.92 2.24 48.93 17.48 58.47 17.48 57.44 2.24 48.92 2.24" fill="#e36d94"/><path d="M45.2,76.15a4.81,4.81,0,0,1-9.62,0H45.2Z" transform="translate(-24.84 -58.73)" fill="#be5b7c"/><path d="M54.73,76.15a4.81,4.81,0,0,1-9.62,0h9.62Z" transform="translate(-24.84 -58.73)" fill="#e6ac4a"/><path d="M64.26,76.15a4.81,4.81,0,0,1-9.62,0h9.62Z" transform="translate(-24.84 -58.73)" fill="#be5b7c"/><path d="M73.79,76.15a4.81,4.81,0,0,1-9.62,0h9.62Z" transform="translate(-24.84 -58.73)" fill="#e6ac4a"/><path d="M83.41,76.15a4.81,4.81,0,0,1-9.62,0h9.62Z" transform="translate(-24.84 -58.73)" fill="#be5b7c"/><path d="M92.94,76.15a4.81,4.81,0,0,1-9.62,0h9.62Z" transform="translate(-24.84 -58.73)" fill="#e6ac4a"/><path d="M102.47,76.15a4.81,4.81,0,0,1-9.62,0h9.62Z" transform="translate(-24.84 -58.73)" fill="#be5b7c"/><path d="M112,76.15a4.81,4.81,0,0,1-9.62,0H112Z" transform="translate(-24.84 -58.73)" fill="#e6ac4a"/><rect x="41.97" y="30.9" width="13.43" height="18.18" fill="#4d4d4d"/><rect x="21.42" y="26" width="16.29" height="18.91" fill="#4d4d4d"/><rect x="20.7" y="44.54" width="17.73" height="0.89" fill="#be5b7c"/><rect x="22.42" y="26.93" width="14.29" height="16.51" fill="#fff"/><rect x="59.71" y="26" width="16.3" height="18.91" fill="#4d4d4d"/><rect x="59.09" y="44.54" width="17.73" height="0.89" fill="#be5b7c"/><rect x="43.6" y="32.56" width="10.17" height="6.98" fill="#fff"/><path d="M68.2,101.18a0.27,0.27,0,0,1-.27.27h0a0.27,0.27,0,0,1-.27-0.27v-0.91a0.27,0.27,0,0,1,.27-0.27h0a0.27,0.27,0,0,1,.27.27v0.91Z" transform="translate(-24.84 -58.73)" fill="#ced957"/><polygon points="45.83 38.89 45.72 38.76 48.74 36.32 51.75 38.76 51.65 38.89 48.74 36.53 45.83 38.89" fill="#344756"/><rect x="44.96" y="38.57" width="7.54" height="3.39" fill="#e36d94"/><circle cx="48.74" cy="36.42" r="0.46" fill="#344756"/><path d="M71.26,99.89a0.68,0.68,0,0,1-.46-0.16,0.57,0.57,0,0,1-.2-0.45,1,1,0,0,1,.2-0.61,0.66,0.66,0,0,1,.56-0.31,0.68,0.68,0,0,1,.47.14A0.61,0.61,0,0,1,72,99a1.06,1.06,0,0,1-.18.61A0.63,0.63,0,0,1,71.26,99.89Zm0.09-1.33a0.49,0.49,0,0,0-.4.24,0.82,0.82,0,0,0-.15.48,0.38,0.38,0,0,0,.14.31,0.5,0.5,0,0,0,.33.11,0.45,0.45,0,0,0,.39-0.24A0.88,0.88,0,0,0,71.79,99a0.42,0.42,0,0,0-.1-0.33A0.49,0.49,0,0,0,71.35,98.55Z" transform="translate(-24.84 -58.73)" fill="#fff"/><path d="M72.67,99.26H72.55c0,0.1,0,.27,0,0.51a0.09,0.09,0,0,1,0,.07,0.08,0.08,0,0,1-.06,0,0.08,0.08,0,0,1-.06,0,0.09,0.09,0,0,1,0-.07V99.47c0-.1,0-0.23,0-0.4s0-.32,0-0.4V98.53a0.56,0.56,0,0,1,0-.14,0.08,0.08,0,0,1,.1-0.07h0.23a0.54,0.54,0,0,1,.33.12,0.4,0.4,0,0,1,.17.32,0.46,0.46,0,0,1-.18.38A0.61,0.61,0,0,1,72.67,99.26Zm0-.77H72.58v0.18l0,0.39h0.11A0.45,0.45,0,0,0,72.94,99a0.29,0.29,0,0,0,.12-0.24A0.22,0.22,0,0,0,73,98.56,0.41,0.41,0,0,0,72.72,98.49Z" transform="translate(-24.84 -58.73)" fill="#fff"/><path d="M74.58,98.52h0a1.13,1.13,0,0,0-.32,0l-0.17,0-0.2,0s0,0.08,0,.1,0,0.21,0,.37l0.42,0,0.23,0a0.1,0.1,0,0,1,.07,0,0.1,0.1,0,0,1,0,.07,0.09,0.09,0,0,1-.09.1l-0.23,0-0.45,0v0.13s0,0.08,0,.12a0.57,0.57,0,0,0,0,.25,0.24,0.24,0,0,0,.15,0h0.48a0.1,0.1,0,0,1,0,.2l-0.39,0a0.62,0.62,0,0,1-.39-0.08,0.58,0.58,0,0,1-.09-0.4s0-.09,0-0.14V99.15a0.1,0.1,0,0,1,0,0,0.09,0.09,0,0,1,0-.06c0-.19,0-0.32,0-0.41a1,1,0,0,0,0-.1,1,1,0,0,1,0-.1,0.09,0.09,0,0,1,.1-0.12,0.1,0.1,0,0,1,.07,0l0.22,0,0.19,0a1.06,1.06,0,0,1,.38.06,0.1,0.1,0,0,1,.06.09,0.1,0.1,0,0,1,0,.07A0.09,0.09,0,0,1,74.58,98.52Z" transform="translate(-24.84 -58.73)" fill="#fff"/><path d="M76.44,99.61a1.2,1.2,0,0,1,0,.16,0.1,0.1,0,0,1-.1.1,0.21,0.21,0,0,1-.13-0.07,7.88,7.88,0,0,1-.91-1.08v0.44c0,0.05,0,.13,0,0.24s0,0.19,0,.24,0,0.26-.1.26a0.11,0.11,0,0,1-.09,0,0.11,0.11,0,0,1,0-.07s0-.07,0-0.12a1.14,1.14,0,0,0,0-.12s0-.1,0-0.18,0-.14,0-0.18,0-.11,0-0.19,0-.15,0-0.19,0-.1,0-0.18,0-.14,0-0.18a0.11,0.11,0,0,1,0-.08,0.12,0.12,0,0,1,.09,0,0.21,0.21,0,0,1,.13.11c0.16,0.24.31,0.44,0.44,0.6a5.48,5.48,0,0,0,.5.54,1,1,0,0,0,0-.12V99.33a5.49,5.49,0,0,0,0-.68l0-.1a0.36,0.36,0,0,1,0-.1,0.1,0.1,0,0,1,.1-0.11q0.17,0,.17.63c0,0.07,0,.18,0,0.32S76.44,99.54,76.44,99.61Z" transform="translate(-24.84 -58.73)" fill="#fff"/><rect x="60.72" y="26.93" width="14.29" height="16.51" fill="#fff"/><polygon points="70.17 43.13 69.69 43.13 68.75 31.59 69.58 31.42 69.69 30.88 70.17 30.88 70.27 31.42 71.11 31.58 70.17 43.13" fill="#4d4d4d"/><path d="M95.72,102a0.18,0.18,0,0,1-.18.18H94a0.18,0.18,0,0,1-.18-0.18h0A0.18,0.18,0,0,1,94,101.8h1.54a0.18,0.18,0,0,1,.18.18h0Z" transform="translate(-24.84 -58.73)" fill="#4d4d4d"/><path d="M98.27,91.24l-1.42-.77-1.08-.22a1,1,0,0,1-2,0l-1.08.22-1.42.77,0.6,1.1,0.82-.45v3.84h4.17V91.89l0.82,0.45Z" transform="translate(-24.84 -58.73)" fill="#ffbf52"/><path d="M95.75,92.7a1.92,1.92,0,0,1-.94,1.15,2,2,0,0,1-1-1.14c0-.44.59-0.64,1,0.11C95,92,95.74,92.26,95.75,92.7Z" transform="translate(-24.84 -58.73)" fill="#e36d94"/><path d="M89.53,96.36a0.54,0.54,0,1,0,.67.53A0.61,0.61,0,0,0,89.53,96.36Zm0,0.9A0.35,0.35,0,1,1,90,96.92,0.4,0.4,0,0,1,89.53,97.26Z" transform="translate(-24.84 -58.73)" fill="#4d4d4d"/><path d="M87.62,98.5a0.18,0.18,0,0,1-.23.11l-0.21-.08a0.18,0.18,0,0,1-.11-0.23l0.72-1.9A0.18,0.18,0,0,1,88,96.29l0.21,0.08a0.18,0.18,0,0,1,.11.23Z" transform="translate(-24.84 -58.73)" fill="#4d4d4d"/><path d="M88.93,98.45a0.18,0.18,0,0,1-.18.18H88.52a0.18,0.18,0,0,1-.18-0.18l-0.55-2A0.18,0.18,0,0,1,88,96.24H88.2a0.18,0.18,0,0,1,.18.18Z" transform="translate(-24.84 -58.73)" fill="#ced957"/><path d="M91.44,98.5a0.19,0.19,0,0,0,.24.11l0.21-.08a0.18,0.18,0,0,0,.1-0.23l-0.71-1.9A0.18,0.18,0,0,0,91,96.29l-0.22.08a0.18,0.18,0,0,0-.11.23Z" transform="translate(-24.84 -58.73)" fill="#4d4d4d"/><path d="M90.14,98.45a0.18,0.18,0,0,0,.18.18h0.23a0.18,0.18,0,0,0,.18-0.18l0.55-2a0.18,0.18,0,0,0-.18-0.18H90.87a0.18,0.18,0,0,0-.18.18Z" transform="translate(-24.84 -58.73)" fill="#ced957"/><path d="M92.1,101.94a0.21,0.21,0,0,1-.21.22H87.18a0.21,0.21,0,0,1-.21-0.22l0.14-4.75A0.21,0.21,0,0,1,87.32,97h4.43a0.21,0.21,0,0,1,.21.19Z" transform="translate(-24.84 -58.73)" fill="#ffbf52"/><path d="M88.8,99a0.2,0.2,0,0,1-.2.21H88.11A0.2,0.2,0,0,1,87.92,99V98.63a0.2,0.2,0,0,1,.19-0.21H88.6a0.2,0.2,0,0,1,.2.21V99Z" transform="translate(-24.84 -58.73)" fill="#c7c7c7" style="mix-blend-mode:multiply"/><rect x="62.08" y="38.13" width="5.22" height="2.03" rx="0.22" ry="0.22" fill="#e36d94"/><path d="M88.74,99a0.2,0.2,0,0,1-.19.21H88.05A0.2,0.2,0,0,1,87.86,99V98.55a0.2,0.2,0,0,1,.19-0.21h0.49a0.2,0.2,0,0,1,.19.21V99Z" transform="translate(-24.84 -58.73)" fill="#4d4d4d"/><path d="M88.61,99a0.15,0.15,0,0,1-.17.12H88.13A0.15,0.15,0,0,1,88,99V98.77a0.15,0.15,0,0,1,.17-0.12h0.31a0.15,0.15,0,0,1,.17.12V99Z" transform="translate(-24.84 -58.73)" fill="#ced957"/><path d="M91.22,99a0.2,0.2,0,0,1-.2.21H90.53A0.2,0.2,0,0,1,90.34,99V98.63a0.2,0.2,0,0,1,.19-0.21H91a0.2,0.2,0,0,1,.2.21V99Z" transform="translate(-24.84 -58.73)" fill="#c7c7c7" style="mix-blend-mode:multiply"/><path d="M91.16,99a0.2,0.2,0,0,1-.2.21H90.48A0.2,0.2,0,0,1,90.28,99V98.55a0.2,0.2,0,0,1,.19-0.21H91a0.2,0.2,0,0,1,.2.21V99Z" transform="translate(-24.84 -58.73)" fill="#4d4d4d"/><path d="M91,99a0.15,0.15,0,0,1-.17.12H90.55A0.15,0.15,0,0,1,90.38,99V98.77a0.15,0.15,0,0,1,.17-0.12h0.31a0.15,0.15,0,0,1,.17.12V99Z" transform="translate(-24.84 -58.73)" fill="#ced957"/><path d="M91.08,101.34a0.17,0.17,0,0,1-.17.2H88.15a0.17,0.17,0,0,1-.17-0.2L88.07,100a0.19,0.19,0,0,1,.18-0.17h2.56A0.19,0.19,0,0,1,91,100Z" transform="translate(-24.84 -58.73)" fill="#4d4d4d"/><path d="M90.89,100v0.61a0.15,0.15,0,0,1-.16.15H88.34a0.16,0.16,0,0,1-.16-0.15V100h2.71Z" transform="translate(-24.84 -58.73)" fill="#ced957"/><circle cx="64.7" cy="41.76" r="0.16" fill="#4d4d4d"/><polygon points="31.41 43.14 30.94 43.14 30 29.42 30.83 29.26 30.94 28.72 31.41 28.72 31.52 29.26 32.36 29.42 31.41 43.14" fill="#4d4d4d"/><path d="M58.58,99.84l-1.22-8a9.43,9.43,0,0,0,.71-1.8,4.87,4.87,0,0,0-.53-1.87l-0.72-.14L56,90.34l-0.77-2.27-0.67.14A4.79,4.79,0,0,0,54,90.08a9.69,9.69,0,0,0,.69,1.8l-1.22,8h5.13Z" transform="translate(-24.84 -58.73)" fill="#ffbf52"/><rect x="29.81" y="33.05" width="2.73" height="0.17" fill="#e36d94"/><path d="M57,102a0.18,0.18,0,0,1-.18.18H55.24a0.18,0.18,0,0,1-.18-0.18h0a0.18,0.18,0,0,1,.18-0.18h1.54A0.18,0.18,0,0,1,57,102h0Z" transform="translate(-24.84 -58.73)" fill="#4d4d4d"/><circle cx="30.67" cy="29.42" r="0.14" fill="#fff"/><circle cx="30.79" cy="29.66" r="0.14" fill="#fff"/><circle cx="31.02" cy="29.83" r="0.14" fill="#fff"/><circle cx="31.3" cy="29.83" r="0.14" fill="#fff"/><circle cx="31.52" cy="29.66" r="0.14" fill="#fff"/><circle cx="31.64" cy="29.41" r="0.14" fill="#fff"/><rect x="24.26" y="38.36" width="5.07" height="5.07" rx="0.4" ry="0.4" fill="#be5b7c"/><path d="M53.77,97.1h-1.4l-3.28,3.28v1.39a0.39,0.39,0,0,0,0,.18L54,97.14A0.37,0.37,0,0,0,53.77,97.1Z" transform="translate(-24.84 -58.73)" fill="#ced957"/><polygon points="29.33 39.81 25.71 43.43 27.33 43.43 29.33 41.43 29.33 39.81" fill="#ced957"/><path d="M54.41,98.84H48.86V97.45A0.44,0.44,0,0,1,49.3,97H54a0.44,0.44,0,0,1,.44.44v1.39Z" transform="translate(-24.84 -58.73)" fill="#e36d94"/><path d="M52.86,97.14a0.35,0.35,0,0,0,0-.33,0.4,0.4,0,0,0-.43-0.28,2.22,2.22,0,0,0-.86.26,2.24,2.24,0,0,0-.86-0.26,0.4,0.4,0,0,0-.44.28,0.35,0.35,0,0,0,0,.33,0.59,0.59,0,0,0,.49.19,1.14,1.14,0,0,0,.44-0.09,2.13,2.13,0,0,1-.65.74,0.09,0.09,0,0,0,0,.12,0.09,0.09,0,0,0,.08,0h0A3,3,0,0,0,51.61,97a3,3,0,0,0,.89,1.12h0a0.09,0.09,0,0,0,.08,0,0.09,0.09,0,0,0,0-.12,2.1,2.1,0,0,1-.64-0.74,1.13,1.13,0,0,0,.44.09A0.6,0.6,0,0,0,52.86,97.14Zm-0.39-.43a0.23,0.23,0,0,1,.27.15,0.19,0.19,0,0,1,0,.17,0.75,0.75,0,0,1-.95-0.12A1.89,1.89,0,0,1,52.46,96.71Zm-2,.32a0.17,0.17,0,0,1,0-.17,0.23,0.23,0,0,1,.27-0.15,1.91,1.91,0,0,1,.69.2A0.75,0.75,0,0,1,50.5,97Z" transform="translate(-24.84 -58.73)" fill="#344756"/><path d="M51.73,102.22a0.12,0.12,0,0,1-.12.12h0a0.12,0.12,0,0,1-.12-0.12V97a0.12,0.12,0,0,1,.12-0.12h0a0.12,0.12,0,0,1,.12.12v5.25Z" transform="translate(-24.84 -58.73)" fill="#344756"/><path d="M49,99.72a0.12,0.12,0,0,1-.12-0.12h0A0.12,0.12,0,0,1,49,99.48h5.25a0.12,0.12,0,0,1,.12.12h0a0.12,0.12,0,0,1-.12.12H49Z" transform="translate(-24.84 -58.73)" fill="#344756"/><rect x="12.72" y="50.49" width="71.8" height="2.5" fill="#be5b7c"/><path d="M50.06,87.68H49.52V87.14A0.14,0.14,0,0,0,49.38,87a0.14,0.14,0,0,0-.14.14v0.55H48.7a0.14,0.14,0,0,0,0,.27h0.55V88.5a0.14,0.14,0,0,0,.27,0V88h0.54A0.14,0.14,0,1,0,50.06,87.68Z" transform="translate(-24.84 -58.73)" fill="#ffbf52"/><path d="M52.51,89.31H52V88.76a0.14,0.14,0,0,0-.27,0v0.55H51.14a0.14,0.14,0,0,0,0,.27h0.55v0.55a0.14,0.14,0,1,0,.27,0V89.58h0.54A0.14,0.14,0,1,0,52.51,89.31Z" transform="translate(-24.84 -58.73)" fill="#ffbf52"/><path d="M50.55,91.37H50V90.83a0.14,0.14,0,0,0-.27,0v0.54H49.19a0.14,0.14,0,0,0,0,.27h0.54v0.54a0.14,0.14,0,1,0,.27,0V91.64h0.54A0.14,0.14,0,1,0,50.55,91.37Z" transform="translate(-24.84 -58.73)" fill="#ffbf52"/><path d="M88.66,87.68H88.12V87.14a0.14,0.14,0,0,0-.27,0v0.55H87.3a0.14,0.14,0,1,0,0,.27h0.54V88.5a0.14,0.14,0,0,0,.27,0V88h0.54A0.14,0.14,0,1,0,88.66,87.68Z" transform="translate(-24.84 -58.73)" fill="#ffbf52"/><path d="M91.11,89.31H90.56V88.76a0.14,0.14,0,0,0-.14-0.14,0.14,0.14,0,0,0-.14.14v0.55H89.74a0.14,0.14,0,0,0,0,.27h0.54v0.55a0.14,0.14,0,1,0,.27,0V89.58h0.55A0.14,0.14,0,0,0,91.11,89.31Z" transform="translate(-24.84 -58.73)" fill="#ffbf52"/><path d="M89.15,91.37H88.61V90.83a0.14,0.14,0,0,0-.27,0v0.54H87.79a0.14,0.14,0,1,0,0,.27h0.54v0.54a0.14,0.14,0,1,0,.27,0V91.64h0.54A0.14,0.14,0,0,0,89.15,91.37Z" transform="translate(-24.84 -58.73)" fill="#ffbf52"/><path d="M112.47,117.17a0.63,0.63,0,0,1-.55.68h-2.63a0.63,0.63,0,0,1-.55-0.68h0a0.63,0.63,0,0,1,.55-0.68h2.63a0.63,0.63,0,0,1,.55.68h0Z" transform="translate(-24.84 -58.73)" fill="#d9d9d9" style="mix-blend-mode:multiply"/><path d="M125.87,117.17a0.63,0.63,0,0,1-.54.68h-2.44a0.63,0.63,0,0,1-.55-0.68h0a0.63,0.63,0,0,1,.55-0.68h2.44a0.63,0.63,0,0,1,.54.68h0Z" transform="translate(-24.84 -58.73)" fill="#d9d9d9" style="mix-blend-mode:multiply"/><ellipse cx="92.74" cy="41.93" rx="5.52" ry="8.37" fill="#41ad82"/><path d="M112.06,100.5c0,0.06,0,.11,0,0.16a10.16,10.16,0,0,0,2.35,6.85C115.35,103,112.82,101,112.06,100.5Z" transform="translate(-24.84 -58.73)" fill="#d9d9d9" style="mix-blend-mode:multiply"/><path d="M123,102c-0.94.34-3.25,1.62-3,6.1A8.92,8.92,0,0,0,123,102Z" transform="translate(-24.84 -58.73)" fill="#d9d9d9" style="mix-blend-mode:multiply"/><path d="M119.37,117.16h-2.7s0.59-16.37,1.1-16.37S119.37,117.16,119.37,117.16Z" transform="translate(-24.84 -58.73)" fill="#fff"/><ellipse cx="85.51" cy="47.49" rx="3.66" ry="5.55" fill="#ced957"/><path d="M111.54,117.16h-1.8s0.4-10.86.73-10.86S111.54,117.16,111.54,117.16Z" transform="translate(-24.84 -58.73)" fill="#fff"/><ellipse cx="99.08" cy="48.75" rx="3.24" ry="4.91" fill="#ced957"/><path d="M125,117.16h-1.59s0.35-9.6.65-9.6S125,117.16,125,117.16Z" transform="translate(-24.84 -58.73)" fill="#fff"/><path d="M118.26,103.95l-0.47-.47a12.37,12.37,0,0,1,1.68-1.3A12.39,12.39,0,0,1,118.26,103.95Z" transform="translate(-24.84 -58.73)" fill="#fff"/><path d="M118.44,106.08l-0.47-.47a12.22,12.22,0,0,1,1.69-1.3A12.53,12.53,0,0,1,118.44,106.08Z" transform="translate(-24.84 -58.73)" fill="#fff"/><path d="M117.49,103.34l0.47-.47a12.21,12.21,0,0,0-1.68-1.3A12.34,12.34,0,0,0,117.49,103.34Z" transform="translate(-24.84 -58.73)" fill="#fff"/><path d="M117.32,105.47l0.47-.47a12.32,12.32,0,0,0-1.69-1.3A12.57,12.57,0,0,0,117.32,105.47Z" transform="translate(-24.84 -58.73)" fill="#fff"/><path d="M124.32,109.69l-0.32-.32a8,8,0,0,1,1.15-.89A8.51,8.51,0,0,1,124.32,109.69Z" transform="translate(-24.84 -58.73)" fill="#fff"/><path d="M124.43,111.15l-0.32-.32a8.07,8.07,0,0,1,1.15-.89A8.52,8.52,0,0,1,124.43,111.15Z" transform="translate(-24.84 -58.73)" fill="#fff"/><path d="M123.79,109.28l0.32-.32a8.48,8.48,0,0,0-1.14-.89A8.33,8.33,0,0,0,123.79,109.28Z" transform="translate(-24.84 -58.73)" fill="#fff"/><path d="M123.67,110.73l0.32-.32a8.23,8.23,0,0,0-1.15-.89A8.61,8.61,0,0,0,123.67,110.73Z" transform="translate(-24.84 -58.73)" fill="#fff"/><path d="M110.81,109l-0.35-.35a9.07,9.07,0,0,1,1.26-1A9.52,9.52,0,0,1,110.81,109Z" transform="translate(-24.84 -58.73)" fill="#fff"/><path d="M110.94,110.59l-0.35-.35a9.3,9.3,0,0,1,1.26-1A9.35,9.35,0,0,1,110.94,110.59Z" transform="translate(-24.84 -58.73)" fill="#fff"/><path d="M110.23,108.54l0.35-.35a9,9,0,0,0-1.26-1A9.53,9.53,0,0,0,110.23,108.54Z" transform="translate(-24.84 -58.73)" fill="#fff"/><path d="M110.1,110.13l0.35-.35a9.07,9.07,0,0,0-1.26-1A9.17,9.17,0,0,0,110.1,110.13Z" transform="translate(-24.84 -58.73)" fill="#fff"/><path d="M30.79,102.12a0.78,0.78,0,0,0-1-.67,1.15,1.15,0,0,0-2.07-.78,1,1,0,0,0-1.88.76,0.79,0.79,0,1,0,.1,1.49,1,1,0,0,0,1.82.6,1.14,1.14,0,0,0,2.08-.58,0.78,0.78,0,0,0,1-.82C30.75,101.69,30.83,102.54,30.79,102.12Z" transform="translate(-24.84 -58.73)" fill="#fff"/></g></g></svg>