<?xml version="1.0" encoding="utf-8"?>
<!-- Generator: Adobe Illustrator 19.2.1, SVG Export Plug-In . SVG Version: 6.00 Build 0)  -->
<svg version="1.1" id="图层_1" xmlns="http://www.w3.org/2000/svg" xmlns:xlink="http://www.w3.org/1999/xlink" x="0px" y="0px"
	 viewBox="0 0 42.3 55.6" style="enable-background:new 0 0 42.3 55.6;" xml:space="preserve">
<style type="text/css">
	.st0{fill:#D9D9D9;}
	.st1{fill:#FFFFFF;}
	.st2{fill:#4D4D4D;}
	.st3{fill:#41AD82;}
	.st4{fill:#E36D94;}
	.st5{fill:#BE5B7C;}
	.st6{fill:#CCCCCC;}
	.st7{fill:#FFBF52;}
	.st8{fill:#CED957;}
	.st9{fill:#E6E1DA;}
	.st10{fill:#C7C7C7;}
	.st11{fill:#344756;}
</style>
<title>online-shopping</title>
<g>
	<g id="o">
		<path class="st0" d="M35.5,47.2v-2c0-0.6-0.4-1-1-1.1H18.9c-1.1,0-2.1-0.9-2.1-2.1v-0.8c0-1.1,0.9-2.1,2.1-2.1h20.6
			c0.6,0,1.1-0.5,1.1-1.1l0,0v-0.2c0-0.6-0.5-1.1-1-1.1l0,0H5.4c-1.6,0-2.8-1.3-2.8-2.9v-1c0-1.6,1.3-2.8,2.8-2.8l0,0h11.8v1H5.4
			c-1,0-1.8,0.8-1.8,1.8v1c0,1,0.8,1.8,1.8,1.8l0,0h34.2c1.1,0,2.1,0.9,2.1,2.1v0.2c0,1.1-0.9,2.1-2.1,2.1H18.9
			c-0.6,0-1.1,0.5-1.1,1.1l0,0V42c0,0.6,0.5,1.1,1,1.1l0,0h15.5c1.1,0,2.1,0.9,2.1,2v0.1v2L35.5,47.2L35.5,47.2z"/>
		<path class="st1" d="M35.9,46.6h-0.7v-1.9c0-0.3-0.1-0.6-0.3-0.8s-0.5-0.4-0.8-0.4H18.5c-1.1,0-1.9-0.9-1.9-1.9l0,0v-0.8
			c0-1.1,0.9-1.9,1.9-1.9h20.6c0.7,0,1.2-0.5,1.2-1.2v-0.2c0-0.7-0.5-1.2-1.2-1.2H4.9c-1.5,0-2.7-1.2-2.7-2.7l0,0v-1
			c0-1.5,1.2-2.7,2.7-2.7l0,0h11.6v0.7H4.9c-1.1,0-2,0.9-2,2v1c0,1.1,0.9,2,2,2h34.2c1.1,0,1.9,0.9,1.9,1.9v0.2
			c0,1.1-0.9,1.9-1.9,1.9H18.5c-0.7,0-1.2,0.5-1.2,1.2v0.7c0,0.7,0.5,1.2,1.2,1.2H34c1.1,0,1.9,0.9,1.9,1.9V46.6z"/>
		<path class="st0" d="M29,33.4c-0.1,0.4-0.5,0.7-0.9,0.6H14.4c-0.4,0.1-0.8-0.2-0.9-0.6l0,0c0.1-0.4,0.5-0.7,0.9-0.6h13.7
			C28.5,32.7,28.9,33,29,33.4L29,33.4z"/>
		<polygon class="st2" points="26.4,32.6 15.9,32.6 17.5,27.1 24.8,27.1 		"/>
		<path class="st1" d="M42.3,27.5c0,0.3-0.1,0.6-0.3,0.8c-0.2,0.2-0.5,0.3-0.8,0.3h-40c-0.3,0-0.6-0.1-0.8-0.3
			C0.1,28.1,0,27.8,0,27.5v-8.9h42.3V27.5L42.3,27.5z"/>
		<path class="st2" d="M42.3,25.4H0V1.1c0-0.3,0.1-0.6,0.3-0.8C0.6,0.1,0.9,0,1.2,0h39.9c0.3,0,0.6,0.1,0.8,0.3s0.3,0.5,0.3,0.8
			L42.3,25.4L42.3,25.4z"/>
		<rect x="1.8" y="1.8" class="st1" width="38.7" height="21.9"/>
		<rect x="14.4" y="32.2" class="st1" width="13.5" height="1"/>
		<path class="st0" d="M33.1,50.9c0,2.5,0.7,4.7,3.3,4.7s3.3-2.2,3.3-4.7s-0.5-4.4-3.1-4.5C36.6,45.8,33.1,48.5,33.1,50.9z"/>
		<path class="st2" d="M38.7,50.1c0,2.5-0.7,4.7-3.3,4.7s-3.3-2.2-3.3-4.7s0.6-4.5,3.3-4.5S38.7,47.6,38.7,50.1z"/>
		<path class="st1" d="M36,48.7c0,0.3-0.2,0.6-0.5,0.6l0,0l0,0c-0.3,0-0.6-0.2-0.6-0.6l0,0v-1.4c0-0.3,0.2-0.6,0.5-0.6l0,0l0,0
			c0.3,0,0.6,0.2,0.6,0.6l0,0V48.7z"/>
		<rect x="5.3" y="7.7" class="st3" width="8.9" height="7.6"/>
		<rect x="5.9" y="8.2" class="st1" width="7.8" height="6.7"/>
		<rect x="17.1" y="7.7" class="st4" width="8.9" height="7.6"/>
		<rect x="17.6" y="8.2" class="st1" width="7.8" height="6.7"/>
		<rect x="28.9" y="7.7" class="st3" width="8.8" height="7.6"/>
		<rect x="29.4" y="8.2" class="st1" width="7.8" height="6.7"/>
		<rect x="5.3" y="17.6" class="st4" width="8.9" height="6"/>
		<rect x="5.9" y="18.1" class="st1" width="7.8" height="5.5"/>
		<rect x="17.1" y="17.6" class="st3" width="8.9" height="6"/>
		<rect x="17.6" y="18.1" class="st1" width="7.8" height="5.5"/>
		<rect x="28.9" y="17.6" class="st4" width="8.8" height="6"/>
		<rect x="29.4" y="18.1" class="st1" width="7.8" height="5.5"/>
		<rect x="4.8" y="6.1" class="st2" width="33.3" height="0.2"/>
		<rect x="4.8" y="3.3" class="st2" width="8.4" height="0.6"/>
		<rect x="4.8" y="4.5" class="st5" width="14.4" height="0.2"/>
		<rect x="4.8" y="5.3" class="st5" width="14.4" height="0.2"/>
		<rect x="21" y="4.5" class="st3" width="17" height="0.2"/>
		<rect x="21" y="5.3" class="st3" width="17" height="0.2"/>
		<circle class="st2" cx="35.2" cy="3.5" r="0.3"/>
		<circle class="st2" cx="36.3" cy="3.5" r="0.3"/>
		<circle class="st2" cx="37.6" cy="3.5" r="0.3"/>
		<path class="st6" d="M12.2,10.6C12.1,10.5,12.1,10.5,12.2,10.6L9.7,9.5H9.6c0,0-0.1,0-0.1,0.1l-1.6,3.7v0.1L8,13.5l2.4,1h0.1
			c0,0,0.1,0,0.1-0.1L12.2,10.6C12.2,10.7,12.2,10.6,12.2,10.6z"/>
		<path class="st2" d="M12.1,10.1C12,10.1,12,10.1,12.1,10.1L9.6,9H9.5c0,0-0.1,0-0.1,0.1l-1.6,3.7v0.1c0,0,0,0.1,0.1,0.1l2.4,1h0.1
			c0,0,0.1,0,0.1-0.1l1.6-3.7C12.1,10.2,12.1,10.2,12.1,10.1z"/>
		<rect x="8.3" y="10.2" transform="matrix(0.3907 -0.9205 0.9205 0.3907 -4.437 16.2038)" class="st1" width="3.4" height="2.5"/>
		<polygon class="st4" points="10.1,10.1 9.7,9.9 9.8,9.7 10.2,9.9 		"/>
		<rect x="9.3" y="10.2" transform="matrix(0.3907 -0.9205 0.9205 0.3907 -4.0932 16.0428)" class="st7" width="1.6" height="1.8"/>
		<rect x="9.6" y="11.2" transform="matrix(0.3899 -0.9208 0.9208 0.3899 -5.2668 16.3099)" class="st2" width="0.2" height="1.8"/>
		<rect x="9.8" y="12.6" transform="matrix(0.3878 -0.9217 0.9217 0.3878 -5.6863 17.1936)" class="st7" width="0.6" height="0.5"/>
		<polygon class="st3" points="9.2,12.2 8.8,12 8.8,11.9 9.3,12.1 		"/>
		<rect x="8.9" y="12" transform="matrix(0.3885 -0.9215 0.9215 0.3885 -5.7976 15.7329)" class="st3" width="0.1" height="0.5"/>
		<rect x="8.8" y="12.2" transform="matrix(0.3901 -0.9208 0.9208 0.3901 -6.1202 15.7586)" class="st3" width="0.1" height="0.5"/>
		<polygon class="st3" points="9,12.7 8.6,12.5 8.6,12.4 9.1,12.6 		"/>
		<polygon class="st4" points="9.8,12.5 9.4,12.3 9.4,12.2 9.9,12.4 		"/>
		<polygon class="st4" points="9.8,12.6 9.3,12.4 9.4,12.4 		"/>
		<polygon class="st4" points="9.7,12.8 9.2,12.6 9.3,12.5 9.7,12.7 		"/>
		<polygon class="st4" points="9.6,13 9.2,12.8 9.2,12.7 9.6,12.9 		"/>
		<rect x="10.7" y="9.7" transform="matrix(0.3909 -0.9204 0.9204 0.3909 -2.8919 16.3109)" class="st2" width="0.3" height="1.2"/>
		<path class="st1" d="M9.5,13.4C9.4,13.5,9.4,13.5,9.5,13.4L9,13.2v-0.1l0,0h0.1l0.4,0.2C9.5,13.4,9.5,13.4,9.5,13.4L9.5,13.4z"/>
		<path class="st6" d="M35.2,10.3L32,11.1v-0.3l-0.6,0.1l0.1,0.3h-0.1c-0.2,0-0.3,0.2-0.2,0.4l0.1,0.5l0.4,1.6
			c0,0.2,0.2,0.3,0.4,0.2l0,0l3.9-1c0.2,0,0.3-0.2,0.2-0.4L35.8,11l-0.1-0.5C35.5,10.3,35.4,10.3,35.2,10.3z"/>
		<polygon class="st2" points="31.7,11 31.2,11.1 31,10.6 31.6,10.5 		"/>
		<rect x="31" y="11.3" transform="matrix(0.9705 -0.2409 0.2409 0.9705 -1.934 8.3784)" class="st8" width="4.6" height="1.6"/>
		<path class="st2" d="M31.7,13.7l3.9-1c0.2,0,0.3-0.2,0.2-0.4l-4.5,1.1C31.3,13.6,31.5,13.7,31.7,13.7L31.7,13.7z"/>
		<path class="st2" d="M34.9,10L31,11c-0.2,0-0.3,0.2-0.2,0.4l0.1,0.5l4.5-1.1l-0.1-0.5C35.2,10.1,35.1,10,34.9,10L34.9,10z"/>
		<path class="st1" d="M35,10.4c0,0.1,0,0.2-0.1,0.2l-0.3,0.1c-0.1,0-0.2,0-0.2-0.1l0,0l0,0c0-0.1,0-0.2,0.1-0.2l0.3-0.1
			C34.9,10.3,35,10.4,35,10.4L35,10.4L35,10.4z"/>
		<ellipse transform="matrix(0.9705 -0.2412 0.2412 0.9705 -1.9111 8.3863)" class="st1" cx="33.3" cy="12" rx="1.1" ry="1.1"/>
		<ellipse transform="matrix(0.9705 -0.2411 0.2411 0.9705 -1.9107 8.3826)" class="st2" cx="33.3" cy="12" rx="1" ry="1"/>
		<ellipse transform="matrix(0.9703 -0.2418 0.2418 0.9703 -1.9133 8.4081)" class="st9" cx="33.3" cy="12" rx="0.6" ry="0.6"/>
		<path class="st1" d="M33.1,12.5c-0.2-0.1-0.3-0.4-0.2-0.7c0.1-0.2,0.4-0.3,0.7-0.2l0,0L33.1,12.5z"/>
		<path class="st2" d="M21.9,9.5c-0.2,0-0.4,0.2-0.4,0.4s0.2,0.4,0.4,0.4c0.2,0,0.4-0.1,0.4-0.3C22.4,9.7,22.2,9.5,21.9,9.5z
			 M21.8,10.1c-0.2,0-0.3-0.2-0.3-0.3c0-0.2,0.2-0.4,0.3-0.4s0.4,0.2,0.4,0.3C22.2,10,22,10.2,21.8,10.1
			C21.8,10.2,21.8,10.2,21.8,10.1L21.8,10.1z"/>
		<path class="st6" d="M23.2,14.5l0.4-2.3c0.1,0,0.1-0.1,0.1-0.1l0.3-1.2c0-0.1,0-0.2-0.1-0.2l-3.6-0.8c-0.1,0-0.2,0-0.2,0.1
			l-0.3,1.2c0,0.1,0,0.1,0.1,0.2l-0.6,2.3c0,0.1,0,0.2,0.1,0.2l0,0l3.6,0.8C23.1,14.6,23.2,14.5,23.2,14.5z"/>
		<path class="st8" d="M20.1,10.8c-0.1,0-0.1,0-0.2,0l-0.2-0.1c-0.1-0.1-0.1-0.1,0-0.2l0,0l0.9-1.3c0.1-0.1,0.1-0.1,0.2,0l0,0H21
			c0,0.1,0,0.2,0,0.2l0,0L20.1,10.8z"/>
		<path class="st2" d="M21.1,10.9c0,0.1-0.1,0.1-0.2,0.1l0,0h-0.2c-0.1,0-0.1-0.1-0.1-0.2l0,0l-0.1-1.7C20.5,9,20.6,9,20.7,9l0,0
			h0.2C21,9.1,21,9.2,21,9.3l0,0L21.1,10.9z"/>
		<path class="st8" d="M22.9,9.7h0.2c0.1,0,0.1,0,0.2,0.1l0.2,1.6c0,0.1,0,0.1-0.1,0.2h-0.2c-0.1,0-0.1,0-0.2-0.1l-0.2-1.6
			C22.8,9.8,22.8,9.7,22.9,9.7z"/>
		<path class="st2" d="M22,11.1c0,0.1,0,0.2,0.1,0.2l0,0h0.2c0.1,0,0.2,0,0.2-0.1l0,0l0.8-1.4c0-0.1,0-0.2-0.1-0.2l0,0H23
			c-0.1,0-0.2,0-0.2,0.1l0,0L22,11.1z"/>
		<path class="st2" d="M22.9,14.1c0,0.1-0.1,0.1-0.2,0.1l0,0l-3.6-0.8c-0.1,0-0.1-0.1-0.1-0.2l0,0l0.9-3.6c0-0.1,0.1-0.1,0.2-0.1
			l3.4,0.7c0.1,0,0.1,0.1,0.1,0.2L22.9,14.1z"/>
		<path class="st10" d="M20.9,11.4c0,0.1-0.1,0.1-0.2,0.1l-0.4-0.1c-0.1,0-0.1-0.1-0.1-0.2l0.1-0.3c0-0.1,0.1-0.1,0.2-0.1l0.4,0.1
			c0.1,0,0.1,0.1,0.1,0.2L20.9,11.4z"/>
		<path class="st4" d="M19.6,10.8l0.3-1.2c0-0.1,0.1-0.1,0.2-0.1l3.6,0.8c0.1,0,0.1,0.1,0.1,0.2l-0.3,1.2c0,0.1-0.1,0.1-0.2,0.1
			L19.7,11C19.6,11,19.5,10.9,19.6,10.8z"/>
		<path class="st8" d="M20.9,11.3c0,0.1-0.1,0.1-0.2,0.1l-0.4-0.1c-0.1,0-0.1-0.1-0.1-0.2l0.1-0.3c0-0.1,0.1-0.1,0.2-0.1l0.4,0.1
			c0.1,0,0.1,0.1,0.1,0.2L20.9,11.3z"/>
		<path class="st2" d="M20.8,11.3c0,0.1-0.1,0.1-0.2,0.1l-0.2-0.1c-0.1,0-0.1-0.1-0.1-0.1V11c0-0.1,0.1-0.1,0.1-0.1l0,0l0.2,0.1
			c0.1,0,0.1,0.1,0.1,0.1v0.2H20.8z"/>
		<path class="st10" d="M22.7,11.8c0,0.1-0.1,0.1-0.2,0.1l-0.4-0.1c-0.1,0-0.1-0.1-0.1-0.2l0.1-0.3c0-0.1,0.1-0.1,0.2-0.1l0.4,0.1
			c0.1,0,0.1,0.1,0.1,0.2L22.7,11.8z"/>
		<path class="st8" d="M22.7,11.7c0,0.1-0.1,0.1-0.2,0.1l-0.4-0.1c-0.1,0-0.1-0.1-0.1-0.2l0.1-0.3c0-0.1,0.1-0.1,0.2-0.1l0.4,0.1
			c0.1,0,0.1,0.1,0.1,0.2L22.7,11.7z"/>
		<path class="st2" d="M22.6,11.7c0,0.1-0.1,0.1-0.2,0.1l-0.2-0.1c-0.1,0-0.1-0.1-0.1-0.1v-0.1c0-0.1,0.1-0.1,0.2-0.1l0.2,0.1
			c0.1,0,0.1,0.1,0.1,0.1V11.7z"/>
		<path class="st8" d="M22.3,13.5c0,0.1-0.1,0.1-0.1,0.1l0,0L20,13.2c-0.1,0-0.1-0.1-0.1-0.1l0,0l0.3-1c0-0.1,0.1-0.1,0.2-0.1
			l1.9,0.4c0.1,0,0.1,0.1,0.1,0.2L22.3,13.5z"/>
		<path class="st2" d="M22.3,12.4l-0.1,0.5c0,0.1-0.1,0.1-0.1,0.1l-1.8-0.4c-0.1,0-0.1-0.1-0.1-0.1l0.1-0.5L22.3,12.4z"/>
		<ellipse transform="matrix(0.2168 -0.9762 0.9762 0.2168 4.2427 30.5383)" class="st1" cx="21.2" cy="12.6" rx="0.1" ry="0.1"/>
		<path class="st6" d="M24.1,22.7L24.1,22.7c-0.1-0.5-0.5-1-1-1.3c-0.3-0.5-0.6-0.9-1-1.3c-0.6-0.4-1.2,0.3-0.5,0.9
			c0.5,0.5,0.9,1.1,1.2,1.8c0.1,0.2,0.3,0.4,0.5,0.5c0.2,0.2,0.5,0.2,0.7,0.1C24.2,23.2,24.2,22.9,24.1,22.7z"/>
		<path class="st6" d="M21.3,21.8c-0.4-0.6-0.8-1.2-1-1.9c-0.3-0.9-1.1-0.7-1,0c0.2,0.5,0.4,1,0.6,1.5c0,0.6,0.2,1.1,0.7,1.5l0,0
			c0.2,0.2,0.5,0.3,0.7,0.2c0.2-0.2,0.3-0.4,0.2-0.7C21.5,22.2,21.4,22,21.3,21.8z"/>
		<path class="st2" d="M23,23.2c0.2,0.2,0.5,0.2,0.7,0.1c0.2-0.2,0.3-0.5,0.2-0.7C23.5,22.6,23.2,22.9,23,23.2z"/>
		<path class="st5" d="M21.3,20.9c0.5,0.5,0.9,1.1,1.2,1.8c0.1,0.2,0.3,0.4,0.5,0.5c0.2-0.3,0.5-0.5,0.9-0.6l0,0
			c-0.1-0.5-0.5-1-1-1.3c-0.3-0.5-0.6-0.9-1-1.3C21.2,19.6,20.7,20.2,21.3,20.9z"/>
		<path class="st1" d="M23.2,21.9c0,0,0.4,0.5,0.1,0.7s-0.6-0.1-0.8-0.4c-0.2-0.4-0.4-0.7-0.7-1.1c-0.2-0.3-0.9-0.8-0.5-1
			s0.9,0.6,1.1,1S23.1,21.7,23.2,21.9z"/>
		<path class="st2" d="M21.3,22.4c0,0.2,0,0.5-0.2,0.7c-0.3,0.1-0.5,0-0.7-0.2C20.6,22.6,20.9,22.4,21.3,22.4z"/>
		<path class="st5" d="M20,19.8c0.2,0.7,0.6,1.3,1,1.9c0.1,0.2,0.2,0.4,0.2,0.7c-0.4,0-0.7,0.2-1,0.5l0,0c-0.4-0.4-0.7-0.9-0.7-1.5
			c-0.3-0.5-0.5-1-0.6-1.5C18.9,19.2,19.8,19,20,19.8z"/>
		<path class="st1" d="M20,22c0,0,0.2,0.6,0.6,0.4s0.2-0.6,0-0.9c-0.3-0.3-0.5-0.7-0.6-1.1c-0.2-0.4-0.2-1.2-0.7-0.9
			s0.2,1.1,0.3,1.4S19.9,21.8,20,22z"/>
		<path class="st2" d="M12.8,21.2L12,20.3l-0.7-0.4c-0.1,0.4-0.6,0.6-1,0.5s-0.6-0.6-0.5-1l-0.9-0.1l-1.2,0.2l0.2,1l0.7-0.1l-1,2.8
			l3.1,1l1-2.8l0.5,0.5L12.8,21.2z"/>
		<path class="st4" d="M10.6,21.6c-0.2,0.3-0.6,0.6-1,0.6c-0.3-0.3-0.4-0.7-0.4-1.1c0.1-0.3,0.6-0.3,0.7,0.3
			C10.2,21,10.7,21.3,10.6,21.6z"/>
		<path class="st5" d="M32,19.8h3c0.2,0,0.3,0.1,0.3,0.3v3c0,0.2-0.1,0.3-0.3,0.3h-3c-0.2,0-0.3-0.1-0.3-0.3v-3
			C31.7,19.9,31.9,19.8,32,19.8z"/>
		<path class="st8" d="M35,19.8h-1l-2.3,2.3v1v0.1L35,19.8C35.1,19.9,35,19.8,35,19.8z"/>
		<polygon class="st8" points="35.3,20.8 32.8,23.4 33.9,23.4 35.3,22 		"/>
		<path class="st4" d="M35.5,21h-3.9v-1c0-0.2,0.1-0.3,0.3-0.3h3.3c0.2,0,0.3,0.1,0.3,0.3V21L35.5,21z"/>
		<path class="st11" d="M34.4,19.8c0-0.1,0-0.2,0-0.2c0-0.1-0.2-0.2-0.3-0.2c-0.2,0-0.4,0.1-0.6,0.2c-0.2-0.1-0.4-0.2-0.6-0.2
			c-0.1,0-0.3,0.1-0.3,0.2s0,0.2,0,0.2c0.1,0.1,0.2,0.1,0.3,0.1s0.2,0,0.3-0.1c-0.1,0.2-0.3,0.4-0.5,0.5v0.1l0,0c0,0,0,0,0.1,0l0,0
			c0.3-0.2,0.5-0.5,0.6-0.8c0.1,0.3,0.4,0.6,0.6,0.8l0,0c0,0,0,0,0.1,0v-0.1l0,0c-0.2-0.1-0.3-0.3-0.4-0.5c0.1,0,0.2,0.1,0.3,0.1
			C34.1,20,34.3,20,34.4,19.8z M34.1,19.5c0.1,0,0.2,0,0.2,0.1v0.1c-0.2,0.1-0.5,0.1-0.7-0.1C33.8,19.6,33.9,19.6,34.1,19.5
			L34.1,19.5z M32.7,19.8v-0.1c0-0.1,0.1-0.1,0.2-0.1c0.2,0,0.3,0.1,0.5,0.1C33.2,19.9,32.9,19.9,32.7,19.8L32.7,19.8z"/>
		<path class="st11" d="M33.6,23.4C33.6,23.5,33.5,23.5,33.6,23.4L33.6,23.4L33.6,23.4c-0.1,0.1-0.2,0-0.2,0l0,0v-3.7
			c0,0,0-0.1,0.1-0.1l0,0l0,0c0,0,0.1,0,0.1,0.1l0,0C33.6,19.7,33.6,23.4,33.6,23.4z"/>
		<path class="st11" d="M31.7,21.7C31.6,21.7,31.6,21.6,31.7,21.7C31.6,21.6,31.6,21.6,31.7,21.7L31.7,21.7c-0.1-0.1-0.1-0.2,0-0.2
			l0,0h3.7c0,0,0.1,0,0.1,0.1l0,0l0,0c0,0,0,0.1-0.1,0.1l0,0H31.7L31.7,21.7z"/>
	</g>
</g>
</svg>
