<svg id="Page_1" data-name="Page 1" xmlns="http://www.w3.org/2000/svg" viewBox="0 0 178.63 112.53"><title>pollution</title><g id="Layer_1" data-name="Layer 1"><path d="M1119.79,164.18c-0.65,2-1,3.15-1.4,4.31a39.91,39.91,0,0,1-5.17,11.14,14.11,14.11,0,0,1-2.14,2.46,2,2,0,0,1-3-.13,21.46,21.46,0,0,1-2.2-3.42c-0.5-.92-0.83-1.93-1.48-3.47-0.91,2.2-1.51,3.85-2.26,5.43q-1.76,3.71-3.7,7.33a11.27,11.27,0,0,1-1.7,2.31,2,2,0,0,1-3.2,0,10.49,10.49,0,0,1-2.39-4.26q-1-3.76-2.13-7.51c-0.26-.9-0.58-1.78-0.94-2.89a12.85,12.85,0,0,0-4.84,3.94,4.61,4.61,0,0,0-.65,2.32,81.73,81.73,0,0,1-3.46,16.46,20.35,20.35,0,0,1-2.57,5.56c-1.68,2.52-4.05,2.64-6.25.47a16.31,16.31,0,0,1-2.15-3c-0.58-.92-1-1.93-1.58-2.88a0.74,0.74,0,0,0-1.31.09c-1.05,2.82-2,5.69-3.16,8.47a22.3,22.3,0,0,1-2.52,4.66c-1.5,2-3.57,2-5.13,0a33.86,33.86,0,0,1-2.29-3.86c-1-.22-1,0.65-1.34,1.18-1.43,2.49-2.78,5-4.29,7.48a11.71,11.71,0,0,1-2.41,2.76,2,2,0,0,1-3.41-.76,29.11,29.11,0,0,1-1.67-4.63c-1.13-4.23-2.15-8.5-3.24-12.74-0.33-1.28-.77-2.54-1.23-4.06-1.34,2.51-2.58,4.63-3.59,6.85a4.88,4.88,0,0,0-.17,2.78c1.61,8.23-.26,15.75-4.51,22.8a12.88,12.88,0,0,1-2.36,2.82,2.62,2.62,0,0,1-3.73.06,11.6,11.6,0,0,1-3.82-5.25c-0.52-1.41-1-2.84-1.53-4.25a0.77,0.77,0,0,0-1.32-.19c-1.79,3.63-4.58,6.8-4.46,11.28a14.77,14.77,0,0,1-2.44,7.75,1.24,1.24,0,0,1-2.06-.07,3.63,3.63,0,0,1-.54-1.52,7.17,7.17,0,0,1,.33-3.2c1.6-3,1.08-6.12.65-9.25-0.34-2.44-.84-4.87-1-7.33-0.18-2.71-1.63-5.07-1.62-7.92s-1.15-5.6-1.83-8.39-1.36-5.31-2-8a20.69,20.69,0,0,0-.7-2.36,1.47,1.47,0,0,0-.79-0.69,0.81,0.81,0,0,0-.65.39c-0.66,1.35-1.31,2.71-1.9,4.09-0.37.85-.64,1.75-1,2.64a1.07,1.07,0,0,1-.71-1.67c0.88-2.44,1.79-4.87,2.87-7.23,0.79-1.72,1.81-3.22,1.83-5.33,0-1.36.55-3.34,2.94-3.17a2.75,2.75,0,0,0,1.62-1.06,41,41,0,0,1,9.18-6.88c5.22-3.13,10.82-.22,11.34,5.87a22.62,22.62,0,0,1-1.88,11.65c-1.1,2.36-2.38,4.63-3.59,6.93-0.64,1.21-1.42,2.35-2,3.6a9.7,9.7,0,0,1-3.88,4.59,15.23,15.23,0,0,0-3.59,3.89,3.4,3.4,0,0,0-.57,2.3c0.49,3.53,1.11,7,1.73,10.54a4.11,4.11,0,0,0,.88,1.15c2.19-3.67,4.57-7,4.45-11.38a30.06,30.06,0,0,1,.22-4.1,1.66,1.66,0,0,1,1.56-1.63,1.79,1.79,0,0,1,1.81,1.4,8.08,8.08,0,0,1,.32,2.4,38.76,38.76,0,0,0,4,16.59c0.63,1.35,1.65,1.37,2.49.2a9.55,9.55,0,0,0,2.1-5.68c0-4.1.5-8.23-.92-12.22-0.61-1.71-.8-1.83-2.7-1.28-0.53.15-1,.39-1.56,0.49a1.81,1.81,0,0,1-2.17-1.41c-0.67-2.39-.56-4.62,1.37-6.46a6,6,0,0,1,6.81-1.38c0.38,0.15.72,0.41,1.09,0.58a1.26,1.26,0,0,0,1.74-.6c1.93-3.63,3.92-7.21,3.06-11.62-0.63-3.22-1-6.49-1.48-9.75-0.17-1.22-.18-2.46-0.4-3.67-0.43-2.4,1.29-3.41,2.84-4.51a1.1,1.1,0,0,1,1,.33,8.14,8.14,0,0,1,.86,2.28c0.59,3.09,1.28,6.18,1.62,9.31,0.88,8.18,2.26,16.27,3.75,24.34a47.57,47.57,0,0,0,2,6.67c0.38,1.13,1.15,1.27,1.79.43a36.29,36.29,0,0,0,5.45-10.08,7.33,7.33,0,0,0,.08-4c-1.34-6.43-2.72-12.86-3.94-19.32-0.91-4.84-1.59-9.73-2.39-14.6-0.39-2.38.72-3.92,2.71-5a1.24,1.24,0,0,1,1.91.8,14.37,14.37,0,0,1,.3,1.61c1.73,11.51,3.39,23,5.21,34.54,0.55,3.51,1.51,7,2.33,10.42a1.24,1.24,0,0,0,.8.79,1.94,1.94,0,0,0,1-.5,0.79,0.79,0,0,0,.24-0.33,65.42,65.42,0,0,0,5.7-15.37,9.46,9.46,0,0,0-.46-4,13.78,13.78,0,0,1-.51-5.28A1.43,1.43,0,0,1,1066,183a3.4,3.4,0,0,1,2.23,2.25c1,3.13,2.56,6,3,9.37a30.23,30.23,0,0,0,1.87,6.28,2,2,0,0,0,1.56,1.08,3,3,0,0,0,1.44-1.22,2.64,2.64,0,0,0,.51-1.11c0.83-3.6,2-7.15,1.83-10.91-0.17-3.41-.46-6.82-0.73-10.23-0.13-1.65-.3-3.26,1-4.65s2.23-1.28,3.2.3c0.21,0.35.32,0.76,0.53,1.11,0.56,0.92,1.11,1,2,.33,0.22-.17.41-0.36,0.63-0.52,2.27-1.63,2.81-3.65,2.13-6.44-1.89-7.71-3.43-15.51-5.24-23.24-0.56-2.42.76-3.9,2.1-5.44a0.82,0.82,0,0,1,1.37.21,62.67,62.67,0,0,1,1.83,6.7c1.15,5.91,2.17,11.85,3.25,17.78a7.46,7.46,0,0,0,.5,1.56,0.77,0.77,0,0,0,1.32.3c0.62-.52,1.11-1.2,1.71-1.75a0.79,0.79,0,0,1,.71-0.09,1.47,1.47,0,0,1,.38,1,21.56,21.56,0,0,1-1.9,3.14,3.75,3.75,0,0,0-.81,3.07,99.1,99.1,0,0,0,3.66,15.13,12.33,12.33,0,0,0,1.55-1.62,47,47,0,0,0,5.3-12.44,20.84,20.84,0,0,0,.87-7.72,27.09,27.09,0,0,1,0-3.7,6.12,6.12,0,0,1,1.65-4.1,1.33,1.33,0,0,1,1.06-.37,1.23,1.23,0,0,1,.78.78c0.36,1.88.64,3.77,0.94,5.66,0.63,3.92,1.23,7.84,1.93,11.75a2.26,2.26,0,0,0,1.07,1.54c0.88,0.33,1.55-.4,2-1.12a30.08,30.08,0,0,0,2.28-4.36c1.24-3.33,2.28-6.74,3.45-10.11a12.5,12.5,0,0,0,.36-6.48,25.11,25.11,0,0,1-.35-3.67c0-1.06.54-1.85,1.22-1.85a1.77,1.77,0,0,1,1.71,1.51c0.46,1.71.75,3.47,1.19,5.19,1,3.71,2,7.41,3,11.1a3.81,3.81,0,0,0,.57,1.08,1.49,1.49,0,0,0,2.18.09,6.62,6.62,0,0,0,.84-1.38c1.94-4.29,1.91-8.79,1.2-13.31a1.84,1.84,0,0,0-2.24-1.85,9.8,9.8,0,0,1-2.45-.16,3.55,3.55,0,0,1-2.7-4.69,15.66,15.66,0,0,1,1.23-3,5.07,5.07,0,0,1,6.61-2.51,5.38,5.38,0,0,1,1.11.54c2.47,1.59,3,.93,4.46-1.47a13.42,13.42,0,0,1,.8-1.44c0.88-1.1,1-3.4,2.75-3.06,1.4,0.27.73,2.4,1.3,3.6a25.07,25.07,0,0,1,1,3c1.1,0.08,1.21-.72,1.41-1.27,0.59-1.68,1-3.42,1.64-5.08a28.05,28.05,0,0,1,2.18-4.83c1.39-2.26,2.87-2.3,4.43,0a29.36,29.36,0,0,1,3.08,5.77c1.27,3.17,2.22,6.48,3.43,9.68a24.36,24.36,0,0,0,2.12,3.95,1.1,1.1,0,0,0,1.77,0,14.75,14.75,0,0,0,1.31-2.07c1.91-3.79,3.78-7.6,5.68-11.4a3.5,3.5,0,0,1,1.67-1.73,25.64,25.64,0,0,1-.67,3.08,61.66,61.66,0,0,1-6.85,13.54,15.06,15.06,0,0,1-3.11,3.25c-1.91,1.57-3.9,1.2-5.19-1a14.65,14.65,0,0,1-1.54-3.78c-0.9-3.44-1.68-6.92-2.46-10.39a8.23,8.23,0,0,0-2.06-4,1.3,1.3,0,0,0-2.31.29c-2,5.87-3.76,11.76-2.52,18.09,0.37,1.88.55,3.8,0.76,5.7a7.65,7.65,0,0,1,0,2,2.14,2.14,0,0,1-2.14,1.59c-1.09,0-1.21-.88-1.34-1.71-0.81-5-1.61-10-2.47-15a28.72,28.72,0,0,0-1-3.56,0.78,0.78,0,0,0-1.33-.08,4.22,4.22,0,0,0-1.18,3c0,1,0,1.92.08,2.88,0.57,6.53-1.45,12.46-4.36,18.14a15.58,15.58,0,0,1-2.71,3.58c-1.65,1.71-3.29,1.71-5,0a16.27,16.27,0,0,1-2.13-3,17.75,17.75,0,0,1-.83-1.88C1120.75,165.86,1120.47,165.41,1119.79,164.18Zm-18.88-14.55a21.94,21.94,0,0,1,.3-2.2,2.78,2.78,0,0,1,3.1-2.07,2.33,2.33,0,0,1,1.92,2.34,17.69,17.69,0,0,1-.61,4,2.35,2.35,0,0,1-2.19,1.58,1.53,1.53,0,0,1-2-1C1101.22,151.36,1101.08,150.42,1100.92,149.63Zm-84.18,39.75c-0.12-4.61-1.19-8.18-2.79-10.22-1.39-1.78-2.63-2.1-4.62-1a23.35,23.35,0,0,0-7.07,6.11,3.63,3.63,0,0,0-.55,3.44c1,3.82,1.95,7.66,2.83,11.5,0.67,2.92,1.18,5.88,1.81,8.81,0.21,1,1.07,1.17,1.84.48C1014.17,203.17,1016.37,196.19,1016.74,189.38Zm110.55-39.69c2,0.06,2.81-.86,2.29-2.74a9.53,9.53,0,0,0-1.13-2.58,1.63,1.63,0,0,0-1.35-.58,3.12,3.12,0,0,0-2.63,3.55A2.58,2.58,0,0,0,1127.29,149.69Zm-105.23,55c-1,0-1.6.53-1.45,1.39a1.3,1.3,0,0,0,1.16,1.37,2.12,2.12,0,0,0,2-1.56A1.49,1.49,0,0,0,1022.06,204.69Z" transform="translate(-992.72 -129.58)" fill="#333"/></g></svg>