<svg id="图层_1" data-name="图层 1" xmlns="http://www.w3.org/2000/svg" viewBox="0 0 269.36 250.46"><title>W-B-Tshirt</title><path d="M163.81,347s-2.42.6-1.41,4,14.1,44.12,14.1,44.12,0.61,1.21,3.83.6c2.94-.55,28.37-5.13,32.78-5.92,10.67-15.8,23.14-52.07,27.8-66.29-15.53,3.18-40.12,9.7-77.1,23.46m2.24-.7,0.77-.24,0.71,2.31-0.77.24Zm1.41,4.62,0.77-.23,0.7,2.31-0.77.24Zm1.42,4.63,0.77-.24,0.7,2.31-0.77.24Zm1.41,4.62,0.77-.23,0.7,2.31-0.77.24Zm1.41,4.62,0.77-.24,0.71,2.31-0.77.24Zm1.41,4.62,0.77-.24,0.71,2.31-0.77.23Zm1.42,4.62,0.77-.23,0.71,2.31-0.77.24Zm2.12,6.94-0.71-2.31,0.77-.23,0.71,2.31Zm0.7,2.31,0.77-.24,0.71,2.31-0.77.23Zm1.42,4.62,0.77-.23,0.71,2.31-0.77.24Zm2.11,6.94-0.7-2.31,0.77-.24,0.7,2.31Zm115.36-55.31a31.33,31.33,0,0,0,28.65-18.74c-4.19.8-8.14,2.42-12.45,3.23A102.71,102.71,0,0,1,298,325.26h-0.28s-10.41,0-16.86-1.18c-4.61-.87-8.82-2.66-13.35-3.38a31.33,31.33,0,0,0,28.73,18.89m35.14-19.14a22.39,22.39,0,0,0-5.53.24,32.1,32.1,0,0,1-59.27-.13,22,22,0,0,0-4.66-.11,166,166,0,0,0-20.09,3c-4.55,14-17.09,50.78-28.06,66.94L214,570.47l82.68-.14,82.68,0.14,0.2-180.25c-11-16.42-23.42-53.06-27.88-66.78a166.09,166.09,0,0,0-20.27-3m-66.58,9.69c0.46,0.66.93,1.29,1.43,1.92l-0.63.5q-0.75-1-1.46-2Zm-4.44-8.46q0.42,1.13.91,2.22l-0.74.33q-0.5-1.12-.93-2.26ZM218.2,566.44h-2.42v-0.81h2.42v0.81Zm4.84,0h-2.42v-0.81H223v0.81Zm4.83,0h-2.41v-0.81h2.41v0.81Zm4.84,0h-2.42v-0.81h2.42v0.81Zm4.83,0h-2.42v-0.81h2.42v0.81Zm4.83,0H240v-0.81h2.41v0.81Zm4.84,0h-2.42v-0.81h2.42v0.81Zm4.84,0h-2.42v-0.81H252v0.81Zm4.84,0h-2.42v-0.81h2.42v0.81Zm4.83,0H259.3v-0.81h2.42v0.81Zm1.09-237.88c-0.42-.7-0.83-1.41-1.2-2.13l0.71-.37q0.56,1.06,1.18,2.08Zm3.75,237.88h-2.42v-0.81h2.42v0.81Zm0.62-232,0.6-.54q0.8,0.89,1.65,1.73l-0.57.58q-0.87-.85-1.69-1.76m4.21,232H269v-0.81h2.41v0.81Zm1.16-227c-0.65-.5-1.28-1-1.89-1.54l0.53-.61q0.9,0.78,1.85,1.51Zm3.67,227h-2.41v-0.81h2.41v0.81Zm0.38-224.34q-1.06-.61-2.07-1.29l0.45-.67c0.66,0.44,1.34.86,2,1.26Zm4.45,224.34h-2.42v-0.81h2.42v0.81ZM281,344.28c-0.75-.32-1.49-0.66-2.21-1l0.36-.72c0.71,0.36,1.43.69,2.16,1Zm2.54,0.12q1.12,0.39,2.28.72l-0.22.78q-1.18-.33-2.33-0.74Zm2.39,222h-2.42v-0.81h2.42v0.81Zm2.21-220.73c0.78,0.17,1.56.31,2.35,0.43l-0.12.8c-0.81-.12-1.61-0.27-2.41-0.44Zm2.62,220.73h-2.42v-0.81h2.42v0.81Zm2.1-220q1.18,0.1,2.39.14l0,0.81c-0.82,0-1.63-.07-2.44-0.14Zm2.73,220h-2.42v-0.81h2.42v0.81Zm2-219.89c0.8,0,1.6-.08,2.39-0.16l0.08,0.8c-0.81.08-1.62,0.13-2.44,0.16Zm2.79,219.89H298v-0.81h2.42v0.81Zm2-220.35q1.19-.19,2.35-0.45l0.18,0.79c-0.79.18-1.59,0.33-2.39,0.46Zm2.87,220.35h-2.41v-0.81h2.41v0.81ZM307,345q1.15-.34,2.27-0.75l0.28,0.76c-0.76.28-1.54,0.53-2.32,0.76Zm3,221.41h-2.42v-0.81h2.42v0.81Zm1.46-223q1.1-.48,2.16-1l0.37,0.72c-0.73.37-1.46,0.72-2.21,1Zm3.38,223h-2.42v-0.81h2.42v0.81Zm0.88-225.22c0.69-.41,1.35-0.84,2-1.29l0.45,0.66q-1,.69-2.06,1.32Zm4,225.22h-2.41v-0.81h2.41v0.81Zm0.49-227.29-0.5-.64c0.63-.49,1.25-1,1.84-1.53l0.53,0.6q-0.91.81-1.88,1.56m4.35,227.29h-2.42v-0.81h2.42v0.81Zm-0.69-230.52-0.57-.57c0.56-.56,1.11-1.15,1.64-1.75l0.61,0.53q-0.81.92-1.67,1.78m4-6.09,0.67,0.45c-0.46.67-.94,1.33-1.44,2l-0.64-.49q0.73-.94,1.41-1.93m1.52,236.6H327v-0.81h2.41v0.81Zm0.45-238.21-0.69-.41q0.61-1,1.15-2.09L331,326.1c-0.38.72-.77,1.43-1.18,2.13m2.37-6.88,0.76,0.28q-0.42,1.15-.9,2.26l-0.74-.32c0.31-.73.61-1.47,0.88-2.22m2,245.09h-2.42v-0.81h2.42v0.81Zm4.83,0h-2.42v-0.81h2.42v0.81Zm4.84,0H341.5v-0.81h2.42v0.81Zm4.83,0h-2.42v-0.81h2.42v0.81Zm26.6-.81h2.42v0.81h-2.42v-0.81Zm-4.84,0h2.42v0.81h-2.42v-0.81Zm-4.83,0h2.42v0.81h-2.42v-0.81Zm-4.83,0h2.42v0.81h-2.42v-0.81Zm-4.84,0h2.42v0.81H356v-0.81Zm-2.42.81h-2.42v-0.81h2.42v0.81ZM429.5,347l-1.73-.64-0.57,1.85-0.77-.24,0.58-1.9c-35.47-13.08-59.25-19.38-74.44-22.5,4.59,14,17,50.28,27.72,66.27,4.7,0.84,29.77,5.36,32.68,5.91,3.22,0.61,3.83-.6,3.83-0.6s13.09-40.7,14.1-44.12-1.41-4-1.41-4M413.07,394.5l-0.77-.24,0.7-2.31,0.77,0.24Zm1.41-4.62-0.77-.24,0.71-2.31,0.77,0.23Zm1.42-4.62-0.77-.24,0.71-2.31,0.77,0.23Zm1.41-4.62-0.77-.24,0.7-2.31,0.77,0.24Zm1.41-4.62-0.77-.24,0.71-2.31,0.77,0.24Zm1.41-4.62-0.77-.23,0.71-2.31,0.77,0.23Zm1.41-4.62-0.77-.24,0.71-2.31,0.77,0.24Zm1.42-4.62-0.77-.24,0.71-2.31,0.77,0.24Zm1.41-4.63-0.77-.23,0.71-2.31,0.77,0.24Zm1.41-4.62-0.77-.24,0.71-2.31,0.77,0.23Z" transform="translate(-161.97 -320.19)" fill="#fff"/><path d="M163.81,347s-2.42.6-1.41,4,14.1,44.12,14.1,44.12,0.61,1.21,3.83.6c2.94-.55,28.37-5.13,32.78-5.92,10.67-15.8,23.14-52.07,27.8-66.29C225.38,326.77,200.79,333.29,163.81,347Zm2.24-.7,0.77-.24,0.71,2.31-0.77.24Zm1.41,4.62,0.77-.23,0.7,2.31-0.77.24Zm1.42,4.63,0.77-.24,0.7,2.31-0.77.24Zm1.41,4.62,0.77-.23,0.7,2.31-0.77.24Zm1.41,4.62,0.77-.24,0.71,2.31-0.77.24Zm1.41,4.62,0.77-.24,0.71,2.31-0.77.23Zm1.42,4.62,0.77-.23,0.71,2.31-0.77.24Zm2.12,6.94-0.71-2.31,0.77-.23,0.71,2.31Zm0.7,2.31,0.77-.24,0.71,2.31-0.77.23Zm1.42,4.62,0.77-.23,0.71,2.31-0.77.24Zm2.11,6.94-0.7-2.31,0.77-.24,0.7,2.31Zm115.36-55.31a31.33,31.33,0,0,0,28.65-18.74c-4.19.8-8.14,2.42-12.45,3.23A102.71,102.71,0,0,1,298,325.26h-0.28s-10.41,0-16.86-1.18c-4.61-.87-8.82-2.66-13.35-3.38A31.33,31.33,0,0,0,296.24,339.59Zm35.14-19.14a22.39,22.39,0,0,0-5.53.24,32.1,32.1,0,0,1-59.27-.13,22,22,0,0,0-4.66-.11,166,166,0,0,0-20.09,3c-4.55,14-17.09,50.78-28.06,66.94L214,570.47l82.68-.14,82.68,0.14,0.2-180.25c-11-16.42-23.42-53.06-27.88-66.78A166.09,166.09,0,0,0,331.38,320.45Zm-66.58,9.69c0.46,0.66.93,1.29,1.43,1.92l-0.63.5q-0.75-1-1.46-2Zm-4.44-8.46q0.42,1.13.91,2.22l-0.74.33q-0.5-1.12-.93-2.26ZM218.2,566.44h-2.42v-0.81h2.42v0.81Zm4.84,0h-2.42v-0.81H223v0.81Zm4.83,0h-2.41v-0.81h2.41v0.81Zm4.84,0h-2.42v-0.81h2.42v0.81Zm4.83,0h-2.42v-0.81h2.42v0.81Zm4.83,0H240v-0.81h2.41v0.81Zm4.84,0h-2.42v-0.81h2.42v0.81Zm4.84,0h-2.42v-0.81H252v0.81Zm4.84,0h-2.42v-0.81h2.42v0.81Zm4.83,0H259.3v-0.81h2.42v0.81Zm1.09-237.88c-0.42-.7-0.83-1.41-1.2-2.13l0.71-.37q0.56,1.06,1.18,2.08Zm3.75,237.88h-2.42v-0.81h2.42v0.81Zm0.62-232,0.6-.54q0.8,0.89,1.65,1.73l-0.57.58Q268,335.34,267.17,334.43Zm4.21,232H269v-0.81h2.41v0.81Zm1.16-227c-0.65-.5-1.28-1-1.89-1.54l0.53-.61q0.9,0.78,1.85,1.51Zm3.67,227h-2.41v-0.81h2.41v0.81Zm0.38-224.34q-1.06-.61-2.07-1.29l0.45-.67c0.66,0.44,1.34.86,2,1.26Zm4.45,224.34h-2.42v-0.81h2.42v0.81ZM281,344.28c-0.75-.32-1.49-0.66-2.21-1l0.36-.72c0.71,0.36,1.43.69,2.16,1Zm2.54,0.12q1.12,0.39,2.28.72l-0.22.78q-1.18-.33-2.33-0.74Zm2.39,222h-2.42v-0.81h2.42v0.81Zm2.21-220.73c0.78,0.17,1.56.31,2.35,0.43l-0.12.8c-0.81-.12-1.61-0.27-2.41-0.44Zm2.62,220.73h-2.42v-0.81h2.42v0.81Zm2.1-220q1.18,0.1,2.39.14l0,0.81c-0.82,0-1.63-.07-2.44-0.14Zm2.73,220h-2.42v-0.81h2.42v0.81Zm2-219.89c0.8,0,1.6-.08,2.39-0.16l0.08,0.8c-0.81.08-1.62,0.13-2.44,0.16Zm2.79,219.89H298v-0.81h2.42v0.81Zm2-220.35q1.19-.19,2.35-0.45l0.18,0.79c-0.79.18-1.59,0.33-2.39,0.46Zm2.87,220.35h-2.41v-0.81h2.41v0.81ZM307,345q1.15-.34,2.27-0.75l0.28,0.76c-0.76.28-1.54,0.53-2.32,0.76Zm3,221.41h-2.42v-0.81h2.42v0.81Zm1.46-223q1.1-.48,2.16-1l0.37,0.72c-0.73.37-1.46,0.72-2.21,1Zm3.38,223h-2.42v-0.81h2.42v0.81Zm0.88-225.22c0.69-.41,1.35-0.84,2-1.29l0.45,0.66q-1,.69-2.06,1.32Zm4,225.22h-2.41v-0.81h2.41v0.81Zm0.49-227.29-0.5-.64c0.63-.49,1.25-1,1.84-1.53l0.53,0.6Q321.19,338.4,320.23,339.15Zm4.35,227.29h-2.42v-0.81h2.42v0.81Zm-0.69-230.52-0.57-.57c0.56-.56,1.11-1.15,1.64-1.75l0.61,0.53Q324.75,335.06,323.89,335.92Zm4-6.09,0.67,0.45c-0.46.67-.94,1.33-1.44,2l-0.64-.49Q327.21,330.82,327.89,329.83Zm1.52,236.6H327v-0.81h2.41v0.81Zm0.45-238.21-0.69-.41q0.61-1,1.15-2.09L331,326.1C330.67,326.82,330.28,327.53,329.86,328.23Zm2.37-6.88,0.76,0.28q-0.42,1.15-.9,2.26l-0.74-.32C331.66,322.84,332,322.1,332.23,321.35Zm2,245.09h-2.42v-0.81h2.42v0.81Zm4.83,0h-2.42v-0.81h2.42v0.81Zm4.84,0H341.5v-0.81h2.42v0.81Zm4.83,0h-2.42v-0.81h2.42v0.81Zm26.6-.81h2.42v0.81h-2.42v-0.81Zm-4.84,0h2.42v0.81h-2.42v-0.81Zm-4.83,0h2.42v0.81h-2.42v-0.81Zm-4.83,0h2.42v0.81h-2.42v-0.81Zm-4.84,0h2.42v0.81H356v-0.81Zm-2.42.81h-2.42v-0.81h2.42v0.81ZM429.5,347l-1.73-.64-0.57,1.85-0.77-.24,0.58-1.9c-35.47-13.08-59.25-19.38-74.44-22.5,4.59,14,17,50.28,27.72,66.27,4.7,0.84,29.77,5.36,32.68,5.91,3.22,0.61,3.83-.6,3.83-0.6s13.09-40.7,14.1-44.12S429.5,347,429.5,347ZM413.07,394.5l-0.77-.24,0.7-2.31,0.77,0.24Zm1.41-4.62-0.77-.24,0.71-2.31,0.77,0.23Zm1.42-4.62-0.77-.24,0.71-2.31,0.77,0.23Zm1.41-4.62-0.77-.24,0.7-2.31,0.77,0.24Zm1.41-4.62-0.77-.24,0.71-2.31,0.77,0.24Zm1.41-4.62-0.77-.23,0.71-2.31,0.77,0.23Zm1.41-4.62-0.77-.24,0.71-2.31,0.77,0.24Zm1.42-4.62-0.77-.24,0.71-2.31,0.77,0.24Zm1.41-4.63-0.77-.23,0.71-2.31,0.77,0.24Zm1.41-4.62-0.77-.24,0.71-2.31,0.77,0.23Z" transform="translate(-161.97 -320.19)" fill="none" stroke="#040000" stroke-width="0.36"/></svg>