<svg xmlns="http://www.w3.org/2000/svg" viewBox="0 0 30.91 28.14"><title>transport</title><g style="isolation:isolate"><g id="o"><path d="M24.55,188.71a0.4,0.4,0,0,0,.39.41h2.48a0.4,0.4,0,0,0,.39-0.41h0a0.4,0.4,0,0,0-.39-0.41H24.94a0.4,0.4,0,0,0-.39.41h0Z" transform="translate(-13.13 -160.98)" fill="#d9d9d9" style="mix-blend-mode:multiply"/><path d="M15.57,188.71a0.4,0.4,0,0,0,.39.41h2.48a0.4,0.4,0,0,0,.39-0.41h0a0.4,0.4,0,0,0-.39-0.41H16a0.4,0.4,0,0,0-.39.41h0Z" transform="translate(-13.13 -160.98)" fill="#d9d9d9" style="mix-blend-mode:multiply"/><path d="M32.27,184.23a0.84,0.84,0,0,1-.7,1h-9a0.84,0.84,0,0,1-.7-1l0.57-6.37a0.74,0.74,0,0,1,.67-0.75h8a0.73,0.73,0,0,1,.67.75Z" transform="translate(-13.13 -160.98)" fill="#e36d94"/><path d="M25.85,185.19H13.94a0.79,0.79,0,0,1-.82-0.76V172.66a0.79,0.79,0,0,1,.82-0.75H25.05a0.79,0.79,0,0,1,.81.75Z" transform="translate(-13.13 -160.98)" fill="#ffbf52"/><path d="M13.81,178.21v6.21a0.13,0.13,0,0,0,.13.09H25.16v-6.3H13.81Z" transform="translate(-13.13 -160.98)" fill="#e6ac4a"/><path d="M26.58,182.37h4.2a0.63,0.63,0,0,0,.57-0.69l-0.46-3.31a0.56,0.56,0,0,0-.54-0.54H26.58v4.55Z" transform="translate(-13.13 -160.98)" fill="#4d4d4d"/><path d="M27.13,181.81v-3.42h3a0.24,0.24,0,0,1,.22.23l0.41,2.87a0.37,0.37,0,0,1-.1.25,0.21,0.21,0,0,1-.15.07H27.13Z" transform="translate(-13.13 -160.98)" fill="#fff"/><circle cx="4.04" cy="25.16" r="2.52" fill="#4d4d4d"/><circle cx="4.04" cy="25.16" r="1.26" fill="#fff"/><circle cx="4.04" cy="25.16" r="0.76" fill="#e36d94"/><circle cx="13.06" cy="25.16" r="2.52" fill="#4d4d4d"/><circle cx="13.06" cy="25.16" r="1.26" fill="#fff"/><circle cx="13.06" cy="25.16" r="0.76" fill="#e36d94"/><path d="M27.69,183a0.12,0.12,0,0,1-.12.12H26.84a0.12,0.12,0,0,1-.12-0.12h0a0.12,0.12,0,0,1,.12-0.12h0.73a0.12,0.12,0,0,1,.12.12h0Z" transform="translate(-13.13 -160.98)" fill="#344756"/><ellipse cx="18.01" cy="22.76" rx="0.6" ry="0.68" fill="#fff"/><path d="M41.41,165.26a29.3,29.3,0,0,0-5.27-.22l-3.94-3.28H30l2.28,3.35c-2.5.07-4.52,0.15-4.52,0.15l-2.88-2.39H23.24s1,1.74,1.58,2.6l-1.53,2.12H24.5l1.26-1.06a11.87,11.87,0,0,0,5.89,2.38l-2.12,3.51H32l3.34-3.14c2.28,0.11,4.47,0,6.09,0C46.35,169.08,43.1,165.79,41.41,165.26Z" transform="translate(-13.13 -160.98)" fill="#ccc" style="mix-blend-mode:multiply"/><polygon points="18.67 3.63 16.2 0 18.44 0 22.61 3.48 18.67 3.63" fill="#e36d94"/><path d="M40.77,164.48c-1.63-.51-13.68,0-13.68,0L24.2,162.1H22.59S24,164.47,24.42,165c3.16,3.94,11.93,3.59,16.39,3.43C45.7,168.3,42.45,165,40.77,164.48Z" transform="translate(-13.13 -160.98)" fill="#4d4d4d"/><polygon points="18.5 6.12 15.76 10.67 18.25 10.67 22.88 6.31 18.5 6.12" fill="#e36d94"/><polygon points="11.09 3.66 9.52 5.83 10.72 5.83 13.21 3.75 11.09 3.66" fill="#e36d94"/><path d="M39.71,166.21V165l1,0a0.06,0.06,0,0,1,.06.06l0.94,1a0.1,0.1,0,0,1,0,.07l0,0Z" transform="translate(-13.13 -160.98)" fill="#fff"/><rect x="24.47" y="4.06" width="1.15" height="1.15" fill="#fff"/><rect x="22.29" y="4.06" width="1.15" height="1.15" fill="#fff"/><rect x="20.11" y="4.06" width="1.15" height="1.15" fill="#fff"/><rect x="17.93" y="4.06" width="1.15" height="1.15" fill="#fff"/><rect x="15.75" y="4.06" width="1.15" height="1.15" fill="#fff"/></g></g></svg>