<?xml version="1.0" encoding="utf-8"?>
<!-- Generator: Adobe Illustrator 19.2.1, SVG Export Plug-In . SVG Version: 6.00 Build 0)  -->
<svg version="1.1" id="图层_1" xmlns="http://www.w3.org/2000/svg" xmlns:xlink="http://www.w3.org/1999/xlink" x="0px" y="0px"
	 viewBox="0 0 240 361" style="enable-background:new 0 0 240 361;" xml:space="preserve">
<style type="text/css">
	.st0{fill:#333333;}
	.st1{fill:none;stroke:#040000;stroke-miterlimit:10;}
	.st2{fill:#F0EFEF;stroke:#040000;stroke-linecap:round;stroke-miterlimit:10;}
	.st3{fill:#4F4D4D;}
	.st4{fill:none;stroke:#040000;stroke-linecap:round;stroke-miterlimit:10;}
</style>
<g>
	<title>arrow_down</title>
</g>
<g>
	<title>arrow_down</title>
</g>
<g>
	<title>arrow_down</title>
</g>
<g>
	<title>arrow_down</title>
</g>
<g>
	<title>car</title>
	<g id="Layer_1_1_">
		<path class="st0" d="M80.5,193.6c1.3,0.1,2.6,0.3,3.9,0.5c1,0.2,1.7,1,1.8,2c0,1-0.5,1.9-1.4,2.2c-1,0.4-2,0.8-3,1.1
			c-1.5,0.5-1.8,1.1-1.6,2.7c0.1,0.5,0.2,1,0.4,1.5c0.3,1,0.9,1.2,1.8,0.5c0.4-0.3,1.3-0.5,1.3,0.1c0,2.3,3,1.3,3.3,3.2
			c0.1,0.5,1.2,0.2,1.3-0.3c0.3-1.5,1.5-2.8,1.2-4.5s0.7-2.5,1.9-3.2c4.4-2.6,10.1-1.4,13,2.8c1.1,1.8,2.1,3.6,3.3,5.8
			c0.5-0.9,0.9-1.6,1.3-2.2c0.2-0.3,0.5-0.5,0.9-0.6c0.3,0.1,0.6,0.4,0.7,0.8s-0.1,0.8,0,1.2c0.2,0.4,0.5,0.8,0.9,1
			c0.5,0,1-0.2,1.3-0.6c0.2-0.2,0.3-0.4,0.4-0.7c0.4-0.7,0.6-1.7,1.6-1.4c0.3,0.1,0.2,1.2,0.4,1.8c0.4,1,1.6,1.5,2.6,1.1
			c0.1,0,0.2-0.1,0.3-0.1c0.3-0.2,0.6-0.5,0.7-0.9c0.3-0.5,0.4-1.4,1.2-1.3c0.9,0.1,0.6,1,0.9,1.5c0.1,0.2,0.2,0.5,0.4,0.6
			c0.4,0,0.7-0.2,1-0.5c0.2-0.3,0.2-0.8,0.5-1c0.4-0.3,0.8-0.5,1.3-0.6c0.2,0.3,0.4,0.6,0.5,0.9c-0.1,0.5,0.3,1,0.9,1.1l0,0
			c0.7,0.2,1.3,0.2,2,0c0.9-0.4,1.7-1.6,2.4-1.6s1.3,1.6,2.6,1.4c0.5-0.1,1.1,0,1.6,0c1.1,0.1,2.1-0.7,2.3-1.8
			c0.2-0.8,0.4-1.5,0.6-2.3c1-3.6,4.3-6,8-5.9c1.6,0,3.2,0.3,4.7,0.8c1.9,0.7,3.4,2.4,3.8,4.4c1.2,3.9,0.6,8.1-1.7,11.5
			c-0.7,1-1.5,1.9-2.5,2.6c-2.5,1.8-5,2.5-8.1,0.7c-2.5-1.4-4.2-3.1-4.9-5.9c-0.6-2.2-0.7-2.2-3.1-2.2c-2.8,0-5.6,0.1-8.4,0.3
			c-3.7,0.3-7.4,0.3-11.2,0c-1.5-0.2-2.9-0.1-4.4-0.3c-1.7-0.2-2.7,0.3-3.2,2.1c-1.1,4-4.2,6-8,7.1c-3.2,1.1-6.6-0.4-8.1-3.4
			c-0.6-1.1-1-2.2-1.2-3.4c-0.3-2.1-1.5-3-3.3-3.4c-0.8-0.2-1.5-0.5-2.3-0.7c-2-0.5-3.5-2.1-3.8-4.2c-0.4-1.8-0.7-3.7-0.6-5.5
			c0.7-13.6,6.2-25.2,15.9-34.7c2.7-2.6,6.1-4.4,9.7-5.3c6.7-1.8,13.4-3.3,20.2-4.9c3.5-0.7,7.2-0.7,10.7,0.1
			c8.8,1.7,14.8,6.8,18.3,15c2,4.4,3.1,9.2,3.1,14c0,2.1,0.5,2.6,2.4,3c1.6,0.3,3.2,0.4,4.7,0.8c1.3,0.3,2.6,0.7,3.8,1.3
			c2.3,1.1,4,3.3,4.4,5.8c0.7,4.3,0.5,8.5-1.6,12.4c-1.2,2.5-3.5,4.2-6.2,4.6c-2.8,0.4-5.5,0.7-8.3,1c-0.3,0-0.5-0.2-0.6-0.4
			c0-0.4,0.1-0.7,0.3-1c1.4-0.5,2.8-0.8,4.2-1.1c1.1-0.1,2.1-0.1,3.2-0.1c2.7,0,5.2-1.7,6.2-4.3c1.5-3.4,1.8-7.3,0.8-10.9
			c-0.5-2.4-2.4-4.3-4.8-4.8c-2.1-0.5-4.2-0.8-6.3-1.1c-4.3-0.5-4.2-0.5-4.1-4.7c0.3-7-1.8-13.9-6-19.5c-4.9-6.4-11.9-9.2-20-8.6
			c-1.3,0.1-2.1,0.9-1.8,2.1c0.7,2.9,0.3,5.8,0.5,8.7c0.1,1.6-0.1,3.2-0.1,4.8c0,0.5,0.3,1,0.8,1c0.2,0,0.4,0,0.5-0.1
			c1-0.5,1.9-1,2.8-1.5s2.1-1.2,3.2-1.6c0.5-0.1,1,0,1.4,0.1c-0.2,0.3-0.4,0.7-0.6,0.9c-0.6,0.4-1.1,0.7-1.7,1
			c-1.6,0.9-3.2,1.9-4.8,2.8c-0.5,0.3-0.9,0.6-1.3,0.9c-0.2,0.3-0.4,0.6-0.5,1c0.3,0.2,0.7,0.2,1,0.2c1.2-0.5,2.4-1,3.7-1.6
			c1.8-0.8,3.6-1.6,5.5-2.3c0.3,0,0.5,0.1,0.6,0.3c0,0.3-0.1,0.5-0.2,0.7c-1.4,0.8-2.9,1.4-4.2,2.2c-2.2,1.2-4.4,2.5-6.5,3.9
			c-0.2,0.4-0.3,0.9-0.2,1.4c0.3,0.2,0.6,0.3,1,0.2c2.3-1.1,4.6-2.2,6.8-3.3c1.6-0.9,3.2-1.9,4.8-2.8c0.7-0.4,1.9-0.3,1.7,0
			c-0.2,0.4-0.6,0.8-1,1.1c-2.5,1.5-5,3-7.5,4.5c-0.6,0.2-1.2,0.6-1.7,1c-1.3,1.7-3.2,1.7-5.1,1.7c-0.7,0.1-1.3-0.4-1.4-1.1
			c0-0.2,0-0.3,0-0.5c0-2.1-0.1-4.2,0-6.3c0.1-2.1,0.8-3.9,1.1-5.8c0.6-3.8,0-4.1-3.3-2.5c-1.4,0.8-2.9,1.2-4.5,1.4
			c0-1.2,0.8-1.2,1.4-1.5c1.8-0.9,3.6-1.8,5.3-2.7c0.3-0.3,0.5-0.6,0.6-0.9c-0.3-0.1-0.7-0.1-1,0c-1.4,0.7-2.8,1.6-4.2,2.3
			c-0.6,0.2-1.2,0.4-1.8,0.5c-0.2-1,0.4-1,0.8-1.3c1.8-1.2,3.6-2.3,5.3-3.5c0.6-0.3,1-0.9,1.2-1.5c0.2-1,0-2.1-0.4-3
			c-0.6-1-1.7-0.2-2.6,0c-1.8,0.4-3.7,0.8-5.4,1.3c-1.2,0.5-2.4,1-3.6,1.6c-0.4-0.1-0.8-0.1-1.2-0.2c-1.8,0-3.6,0.5-5.2,1.4
			c-0.3,0.2-0.4,0.6-0.4,1c0.1,0.5,0.5,0.8,1,0.7c0.1,0,0.2,0,0.2-0.1c0.5-0.2,1-0.4,1.4-0.7l4.1-2.2c0.2-0.1,0.5-0.1,0.7,0
			c0.1,0.2,0.1,0.4,0,0.6c-0.6,0.5-1.2,1-1.9,1.4c-1.6,1-3.1,2-4.7,3c0.8,0.8,1.3,0.2,1.8,0c2.8-1.2,5.5-2.6,8.4-3.8
			c0.3,0,0.7,0.1,0.9,0.3c-0.1,0.2-0.2,0.4-0.4,0.6c-1.6,0.9-3.3,1.8-4.9,2.6c-1,0.5-1.9,0.9-2.9,1.3c-1.4,0.7-3,1.3-3.6,2.8
			c-0.3,0.8,1.9,0.5,4.6-1c0.9-0.4,1.9-0.8,2.9-1.2c0.1,0,0.2,0.1,0.3,0.2c0.1,0.1,0.1,0.2,0,0.4c-0.1,0.2-0.3,0.4-0.5,0.5
			c-1.9,1-3.8,2-5.6,2.9c-0.6,0.2-1.2,0.5-1.8,0.9c-0.3,0.4-0.4,0.9-0.2,1.4c0.3,0.3,0.6,0.4,1,0.3c1.2-0.5,2.4-1.1,3.6-1.7
			c0.9-0.5,1.8-1,2.8-1.5c0.2-0.1,0.5,0,0.7,0.2c0.1,0.2,0.1,0.5,0,0.7c-0.8,0.7-1.7,1.3-2.6,1.9c-1.4,0.8-2.8,1.6-4.2,2.3
			c-1,0.4-1.7,1.4-1.6,2.5s0,2.1,0,3.2c0,4.2,0,4.3,4,4.3c6.7,0,13.3,0,20-0.1c0.9,0,1.9,0.1,2.6-0.8c1-1.4,2.5-1.9,4-2.5
			c1.7-0.7,3.4-1.5,5.2-2.1c0.6-0.4,1.4-0.4,1.9,0.1c-0.9,0.8-1.9,1.3-3.1,1.6c-0.9,0.4-1.7,0.8-2.5,1.2c-1.1,0.6-1.8,1.6-1.3,2
			c0.7,0.6,1.8,0.8,2.6,0.3c1.7-0.8,3.3-1.6,5-2.4c0.4-0.1,0.7-0.2,1.1-0.3c0.1,0,0.2,0.1,0.3,0.2c0.1,0.1,0.1,0.3,0,0.4
			c-0.7,0.6-1.5,1.1-2.1,1.7c-0.2,0.3-0.3,0.6-0.4,1c0.3,0.2,0.7,0.3,1.1,0.2c0.6-0.3,1.1-0.7,1.6-1.1c1.1-0.8,1.4-0.7,2.4,0.8
			c0.2,0.3,0.5,0.6,0.8,0.8c1,0.3,2,0.5,3.1,0.8c-0.4,0.8-1.1,0.6-1.7,0.6c-1.7,0.1-3.5,0-5.2-0.2c-7.7-1.2-15.4-0.7-23.1-1.1
			c-3.4-0.2-6.9,0.2-10.4,0.3c-2.9,0-5.9-0.2-8.8-0.3c-1.3,0-2.7-0.2-4-0.2c-4.3,0.1-8.5-0.2-12.7-0.9c-0.7-0.1-1.3-0.2-2-0.2
			c-0.7-0.1-1.4,0.4-1.6,1.2c0,0.1,0,0.1,0,0.2c-0.1,1,0.6,1,1.3,1.1s1.3,0.2,2,0.3c0.9,0.3,1.9,0.8,1.8,1.8
			c-0.1,0.8-0.6,1.4-1.2,1.9c-1,0.6-2.1,1.1-3.2,1.5C82.4,192.7,81.5,193.2,80.5,193.6c0,1-0.2,1.9-0.2,2.8c0,0.4,0.2,0.8,0.5,1
			c0.6,0.5,2.6,0,2.8-0.7s-0.6-0.9-1.1-1.2C81.8,194.9,81.1,194.3,80.5,193.6z M169,197c0,1.8-0.8,3.5-2.2,4.7
			c-1.4,1.3-3.7,1.3-5.1-0.2c-0.5-0.6-0.9-1.3-0.9-2.1c0-1.1,0.1-2.1,0.4-3.1c0.9-3.1,3-3.8,6.3-2.9
			C168.7,193.8,169.1,194.8,169,197L169,197z M162.4,198c0.1,0.5,0.3,1,0.4,1.5c0.3,0.7,1.6,1.1,2,0.7c0.2-0.4,0.3-0.9,0.3-1.3
			c-0.1-1-0.2-2.1-0.4-3.1c-0.1-0.3-0.4-0.6-0.7-0.7c-0.4,0.1-0.7,0.3-0.8,0.7C162.9,196.5,162.6,197.2,162.4,198L162.4,198z
			 M87.3,176.9c3.4-1.4,6.7-3.1,9.8-5.2c0.9-0.6,1.6-1.8,3-0.9c-0.2,1.2-1.4,1.5-2.2,2.1c-0.7,0.6-1.5,1.1-2.3,1.6
			c-2.5,1.5-5,3-7.5,4.5c-0.5,0.2-1,0.3-1.5,0.3c-1.2,0.1-2.1,1.1-2,2.3l0,0c0.1,0.3,0.4,0.6,0.8,0.6c0.7-0.1,1.3-0.3,1.9-0.6
			c3.4-1.8,6.8-3.7,10.1-5.5c1.2-0.6,2.3-1.3,3.5-1.9c0.2-0.1,0.5,0,0.7,0.2c0.1,0.2,0.1,0.4,0,0.7c-0.3,0.3-0.6,0.5-0.9,0.7l-9,5.1
			c-0.6,0.3-1.1,0.7-1.7,1c-0.3,0.3-0.3,0.8,0,1.1c0.1,0.1,0.1,0.1,0.2,0.2c0.8,0.1,1.9,0.3,2.2-0.1c1.7-2.1,4.2-2.7,6.4-4
			c1.4-0.8,2.8-1.6,4.1-2.5c0.5-0.4,0.9-0.9,1-1.6c0.3-4,0.5-8,0.7-11.9c0.1-0.8-0.4-1.5-1.2-1.6c-0.3,0-0.7,0-0.9,0.2
			c-0.9,0.3-1.7,0.7-2.5,1.2C94.3,166.1,89.9,171,87.3,176.9z M93.6,210.8c0.1,0.6,0.2,1.3,0.4,1.9c0.3,1.2,1.3,2,2.6,2.2
			c2.4,0.5,4.7-1,5.3-3.3c0-0.2,0.1-0.4,0.1-0.6c0.4-3.1-0.6-5.5-3-6.7c-1.3-0.8-3-0.5-3.8,0.8c0,0,0,0,0,0.1
			C93.9,206.7,93.4,208.7,93.6,210.8L93.6,210.8z M141.5,210.8c0,0.4,0,0.8,0,1.2c0.1,1.3,0.6,2.5,1.9,2.8c1.4,0.5,3,0.2,4.1-0.7
			c2.1-2,2.6-6.8,1-9.3c-0.7-1.3-2.4-1.8-3.7-1c-0.3,0.2-0.5,0.4-0.7,0.6C142.5,206,141.6,208.3,141.5,210.8L141.5,210.8z
			 M103.8,179.1c-0.3-0.2-0.6-0.3-1-0.3c-2,1-3.9,2.1-5.9,3.1c-0.2,0.1-0.4,0.3-0.6,0.5s-0.2,0.4-0.2,0.7c0.1,0.2,0.4,0.3,0.6,0.3
			c1.7-0.9,3.5-1.8,5.1-2.8C102.6,180.1,103.2,179.6,103.8,179.1L103.8,179.1z M84,188.4c-0.4,0-0.7,0-1,0c-0.7-0.1-1.3,0.4-1.4,1
			c-0.1,0.2-0.1,0.5,0,0.7c0.4,0.7,1.1,0.5,1.7,0.2c0.6-0.3,1.1-0.6,1.6-0.9c0.1-0.2,0.1-0.5-0.1-0.6
			C84.5,188.6,84.3,188.5,84,188.4L84,188.4z M102.4,183.9c1,0.1,1.5-0.4,1.4-1.1c-0.1-0.2-0.2-0.5-0.4-0.6c-0.7-0.2-1.9,0.5-1.7,1
			C101.8,183.5,102.1,183.7,102.4,183.9L102.4,183.9z"/>
	</g>
</g>
<path class="st1" d="M93.8,84.1c2.6-14.6,15.5-25.2,30.2-25c14.4,0.2,26.8,10.7,29.4,25"/>
<line class="st1" x1="93.8" y1="85.3" x2="153.4" y2="85.3"/>
<circle class="st2" cx="123.1" cy="45.5" r="17.8"/>
<path class="st3" d="M124.2,105.6C124.2,105.6,124.2,105.4,124.2,105.6c0,1.1,0,2,0,3l0,0v2.6c0,1.6,0,3.2,0,4.9l0,0
	c0,0.9,0,1.7,0,2.6v0.4l0,0c0,0.4,0,0.8,0,1.2c0,3.5-0.3,6.9-0.6,10.8v0.6h-0.5c-0.2,0-0.3-0.1-0.5-0.2v-0.3c0-0.1,0-0.3,0-0.4
	c0-0.2,0-0.4,0-0.6c0-0.4,0-0.7,0-1.1v-2l0.3-3.3l0.3-5.2c0.2-0.9,0.4-1.8,0.7-2.7c0-0.9,0.1-1.8,0.2-2.7c0.5-1.2,0.7-2.5,0.7-3.8
	c0-1.1,0-2.7,0-3.1s0,1.4,0.2,0.8c0,4-0.4,7.9-0.6,11.9l-0.3,5.9c-0.1,1.9-0.1,3.8,0,5.6c-0.3,0.1-0.5,0.3-0.7,0.5h-0.9
	c0.4-3.8,0.5-20.8,0.5-25.4v0.2c-0.1-2.6,0-5.3,0.2-7.9l0.3-3v1.3c0-1,0-2.1,0-2.5c0.2-2.2,0.2-1,0.3,0c0.1,0.2,0.2,0.5,0.2,0.8
	v-1.7c0,0.5,0,1.1,0,1.6c0-0.6,0-1.4,0-2.1c0,0.2,0,2.4,0,2.3c0-0.7,0-1.4,0-2.1c0,0.3,0,0.7,0,1c0-2.1,0.2-3.3,0.3-1.3
	c0-0.6,0-1.6,0-2.4l0,0c0,0.3,0,1,0,1.3V90c0,0.4,0,0.7,0,0.9v-0.8v0.7c0,1,0,1.9,0,2.4C124.3,97.4,124.1,101.5,124.2,105.6z"/>
<path class="st3" d="M120.5,129.9L120.5,129.9c0.2,0.3,0.3,0.5,0.5,0.8l0,0l0.5,0.6l0.7,1.3l0,0l0.5,0.6l0,0l0,0h0.2
	c0,0.1,0,0.2,0,0.3l0.4,0.4l1.5-1.6c0.2-0.2,0.5-0.4,0.7-0.7c0.3-0.4,0.6-0.8,0.9-1.3c0.3-0.1,0.6-0.2,0.9-0.2
	c0.1-0.3,0.3-0.5,0.5-0.7c0.2,0,0.5,0,1-0.8c0.1-0.4,0.2-0.8,0.3-1.2c0-0.2,0,0.6,0,0.4c-0.4,1.4-1,2.7-1.8,3.8
	c-0.7,1-1.4,1.9-2.2,2.9l-0.3,0.4l-0.7,0.8l-0.5,0.7l-0.3,0.4c0,0-0.2,0.3-0.3,0l-1.3-1.7c-0.8-1.1-1.6-2.3-2.3-3.6l0,0
	c-0.4-0.7-0.8-1.5-1.1-2.3l-0.3-1l0.3,0.3c-0.1-0.2-0.2-0.5-0.3-0.7c-0.2-0.7,0-0.4,0.3-0.3s0,0,0.3,0l-0.2-0.5
	c0.1,0.2,0.2,0.3,0.3,0.4c-0.1-0.2-0.2-0.4-0.3-0.6l0.4,0.6c-0.1-0.2-0.2-0.4-0.3-0.6c0.1,0.1,0.1,0.2,0.2,0.3c-0.3-0.6-0.3-1,0-0.5
	c0,0-0.2-0.4-0.3-0.6l0,0l0.2,0.3l-0.2-0.3l0,0v0.2V126h0.2c0.2,0.2,0.3,0.4,0.5,0.6L120.5,129.9z"/>
<path class="st4" d="M57.8,175.5"/>
<path class="st4" d="M119.3,129.1"/>
<path class="st4" d="M199.7,170.6"/>
<path class="st4" d="M120.9,129.6"/>
<path class="st4" d="M91.4,215.9"/>
<path class="st4" d="M91.4,150.1"/>
<path class="st4" d="M154.8,215.9"/>
<path class="st4" d="M154.8,147.2"/>
<path class="st4" d="M154.8,215.9"/>
<path class="st4" d="M91.4,215.9"/>
<g>
	<title>arrow_down</title>
	<path class="st3" d="M124.8,242C124.8,242,124.8,241.7,124.8,242c0,1.1,0,2,0,3l0,0v2.6c0,1.6,0,3.2,0,4.9l0,0c0,0.9,0,1.7,0,2.6
		v0.4l0,0c0,0.4,0,0.8,0,1.2c0,3.5-0.3,6.9-0.6,10.8v0.6h-0.5c-0.2,0-0.3-0.1-0.5-0.2v-0.3c0-0.1,0-0.3,0-0.4c0-0.2,0-0.4,0-0.6
		c0-0.4,0-0.7,0-1.1v-2.2l0.3-3.3l0.3-5.2c0.2-0.9,0.4-1.8,0.7-2.7c0-0.9,0.1-1.8,0.2-2.7c0.5-1.2,0.7-2.5,0.7-3.8
		c0-1.1,0-2.7,0-3.1c0-0.4,0,1.4,0.2,0.8c0,4-0.4,7.9-0.6,11.9l-0.3,5.9c-0.1,1.9-0.1,3.8,0,5.6c-0.3,0.1-0.5,0.3-0.7,0.5h-1
		c0.4-3.8,0.5-20.8,0.5-25.4v0.2c-0.1-2.6,0-5.3,0.2-7.9l0.3-3v1.3c0-1,0-2.1,0-2.5c0.2-2.2,0.2-1,0.3,0c0.1,0.2,0.2,0.5,0.2,0.8
		V229c0,0.5,0,1.1,0,1.6c0-0.6,0-1.4,0-2.1c0,0.2,0,2.4,0,2.3c0-0.7,0-1.4,0-2.1c0,0.3,0,0.7,0,1c0-2.1,0.2-3.3,0.3-1.3
		c0-0.6,0-1.6,0-2.4l0,0c0,0.3,0,1,0,1.3v-1.1c0,0.4,0,0.7,0,0.9v-0.8v0.7c0,1,0,1.9,0,2.4C124.8,233.7,124.7,237.8,124.8,242z"/>
	<path class="st3" d="M121.1,266.2L121.1,266.2c0.2,0.3,0.3,0.5,0.5,0.8l0,0l0.5,0.6l0.7,1.3l0,0l0.5,0.6l0,0l0,0h0.2
		c0,0.1,0,0.2,0,0.3l0.4,0.4l1.5-1.6c0.2-0.2,0.5-0.4,0.7-0.7c0.3-0.4,0.6-0.8,0.9-1.3c0.3-0.1,0.6-0.2,0.9-0.2
		c0.1-0.3,0.3-0.5,0.5-0.7c0.2,0,0.5,0,1-0.8c0.1-0.4,0.2-0.8,0.3-1.2c0-0.2,0,0.6,0,0.4c-0.4,1.4-1,2.7-1.8,3.8
		c-0.7,1-1.4,1.9-2.2,2.9l-0.3,0.4l-0.7,0.8l-0.5,0.7l-0.3,0.4c0,0-0.2,0.3-0.3,0l-1.3-1.7c-0.8-1.1-1.6-2.3-2.3-3.6l0,0
		c-0.4-0.7-0.8-1.5-1.1-2.3l-0.3-1l0.3,0.3c-0.1-0.2-0.2-0.5-0.3-0.7c-0.2-0.7,0-0.4,0.3-0.3c0.3,0.1,0,0,0.3,0l-0.2-0.5
		c0.1,0.2,0.2,0.3,0.3,0.4c-0.1-0.2-0.2-0.4-0.3-0.6l0.4,0.6c-0.1-0.2-0.2-0.4-0.3-0.6c0.1,0.1,0.1,0.2,0.2,0.3
		c-0.3-0.6-0.3-1,0-0.5c0,0-0.2-0.4-0.3-0.6l0,0l0.2,0.3l-0.2-0.3l0,0v0.2v-0.4h0.2c0.2,0.2,0.3,0.4,0.5,0.6L121.1,266.2z"/>
</g>
<g>
	<title>arrow_down</title>
	<path class="st3" d="M170.4,240.8C170.4,240.8,170.3,240.6,170.4,240.8c0.6,0.9,1.1,1.6,1.7,2.5l0,0l1.5,2.2
		c0.9,1.3,1.8,2.6,2.8,4.1l0,0c0.5,0.7,0.9,1.4,1.5,2.2l0.2,0.3l0,0c0.2,0.3,0.5,0.7,0.7,1c2,2.9,3.7,5.9,5.6,9.2l0.3,0.5l-0.4,0.3
		c-0.1,0.1-0.3,0.1-0.5,0.1l-0.2-0.2c-0.1-0.1-0.2-0.2-0.2-0.3c-0.1-0.2-0.2-0.3-0.3-0.5c-0.2-0.3-0.4-0.6-0.6-0.9l-1.2-1.8
		l-1.6-2.9l-2.7-4.4c-0.4-0.9-0.7-1.8-1-2.7c-0.5-0.8-0.9-1.5-1.3-2.3c-0.3-1.2-0.8-2.5-1.6-3.5c-0.6-0.9-1.5-2.3-1.8-2.6
		c-0.2-0.3,0.8,1.2,0.6,0.6c2.3,3.3,4.2,6.8,6.2,10.1l3,5c1,1.6,2,3.2,3.2,4.6c-0.1,0.2-0.2,0.5-0.3,0.8l-0.8,0.5
		c-1.8-3.3-11.4-17.5-13.9-21.2l0.1,0.1c-1.6-2.1-3-4.4-4.4-6.6l-1.5-2.7l0.7,1.1c-0.6-0.8-1.2-1.7-1.4-2c-1.1-1.9-0.3-0.9,0.3-0.2
		c0.2,0.1,0.4,0.3,0.6,0.5l-1-1.4c0.3,0.5,0.6,0.9,0.9,1.3c-0.4-0.5-0.8-1.2-1.2-1.7c0.1,0.2,1.4,2,1.3,1.9
		c-0.4-0.5-0.8-1.1-1.2-1.7c0.2,0.3,0.4,0.6,0.6,0.8c-1.2-1.8-1.6-2.8-0.5-1.3c-0.3-0.5-0.9-1.3-1.3-1.9l0,0
		c0.2,0.3,0.6,0.8,0.7,1.1l-0.6-0.9c0.2,0.3,0.4,0.6,0.5,0.8l-0.5-0.7l0.4,0.6c0.5,0.8,1.1,1.6,1.4,2
		C165.8,233.9,167.9,237.4,170.4,240.8z"/>
	<path class="st3" d="M181,262.9L181,262.9c0.3,0.1,0.6,0.3,0.8,0.4l0,0l0.7,0.2l1.3,0.6l0,0l0.7,0.2l0,0l0,0l0.1-0.1
		c0,0.1,0.1,0.2,0.2,0.2l0.5,0.1l0.3-2.1c0.1-0.3,0.1-0.6,0.2-0.9c0-0.5,0-1,0-1.5c0.2-0.3,0.4-0.5,0.6-0.7c-0.1-0.3-0.1-0.6,0-0.8
		c0.2-0.1,0.4-0.3,0.3-1.2c-0.1-0.4-0.3-0.8-0.4-1.2c-0.1-0.2,0.3,0.5,0.2,0.3c0.5,1.4,0.7,2.8,0.7,4.1c0,1.2-0.1,2.4-0.1,3.6
		l-0.1,0.5l-0.1,1.1v0.9v0.5c0,0,0,0.4-0.3,0.2l-2-0.7c-1.3-0.5-2.7-1-4-1.7l0,0c-0.7-0.4-1.5-0.8-2.2-1.3l-0.8-0.6l0.4,0.1
		c-0.2-0.1-0.5-0.3-0.7-0.4c-0.6-0.4-0.2-0.3,0.1-0.4c0.3-0.1,0,0,0.3-0.2l-0.5-0.2c0.1,0.1,0.3,0.2,0.5,0.2
		c-0.2-0.1-0.4-0.2-0.6-0.3c0,0,0.7,0.3,0.6,0.2c-0.2-0.1-0.4-0.2-0.6-0.3c0.1,0,0.2,0.1,0.3,0.1c-0.6-0.3-0.8-0.6-0.3-0.4
		c0,0-0.4-0.2-0.6-0.3l0,0l0.3,0.2l-0.3-0.2l0,0l0.1,0.2l-0.1-0.2l0.2-0.1c0.2,0.1,0.5,0.1,0.7,0.2L181,262.9z"/>
</g>
<g>
	<title>arrow_down</title>
	<path class="st3" d="M77.3,241.9C77.3,241.9,77.4,241.7,77.3,241.9c-0.7,0.9-1.3,1.5-1.9,2.3l0,0l-1.7,2c-1,1.2-2,2.5-3.1,3.8l0,0
		c-0.6,0.7-1.1,1.3-1.7,2l-0.3,0.3l0,0c-0.3,0.3-0.5,0.6-0.8,0.9c-2.2,2.7-4.6,5.1-7.3,7.9l-0.4,0.5l-0.4-0.3
		c-0.1-0.1-0.2-0.3-0.2-0.5l0.2-0.2c0.1-0.1,0.2-0.2,0.2-0.3c0.1-0.2,0.2-0.3,0.4-0.4c0.2-0.3,0.5-0.6,0.7-0.9l1.4-1.7l2.3-2.4
		l3.5-3.8c0.7-0.6,1.5-1.2,2.3-1.7c0.6-0.7,1.2-1.3,1.9-1.9c1.1-0.6,2.1-1.5,2.9-2.5c0.7-0.8,1.7-2.1,2-2.4s-0.9,1.1-0.4,0.7
		c-2.6,3.1-5.3,5.9-8,8.8l-4,4.3c-1.3,1.4-2.5,2.8-3.6,4.3c-0.3-0.1-0.6-0.1-0.9,0l-0.7-0.6c2.7-2.7,13.6-15.8,16.5-19.3l-0.1,0.1
		c1.6-2.1,3.4-4.1,5.2-6l2.1-2.2l-0.8,1c0.7-0.8,1.3-1.6,1.6-1.9c1.5-1.6,0.8-0.6,0.3,0.2c-0.1,0.2-0.2,0.5-0.3,0.7l1.1-1.3
		c-0.4,0.4-0.7,0.8-1,1.3c0.4-0.5,0.9-1.1,1.3-1.6c-0.1,0.2-1.5,1.8-1.4,1.8c0.4-0.6,0.8-1.1,1.3-1.6c-0.2,0.3-0.4,0.5-0.7,0.8
		c1.4-1.6,2.3-2.4,1.1-0.8c0.4-0.4,1-1.2,1.5-1.8l0,0c-0.2,0.2-0.7,0.8-0.8,1l0.7-0.9c-0.2,0.3-0.5,0.6-0.6,0.7l0.5-0.6l-0.4,0.5
		c-0.6,0.7-1.2,1.5-1.5,1.8C82.6,235.5,79.8,238.6,77.3,241.9z"/>
	<path class="st3" d="M59,258.3L59,258.3c-0.1,0.3-0.1,0.6-0.1,0.9l0,0v0.7l-0.2,1.4l0,0v0.7l0,0l0,0l0.1,0.1
		c-0.1,0.1-0.1,0.1-0.2,0.2v0.5l2.1-0.3c0.3,0,0.6,0,1-0.1c0.5-0.1,1-0.3,1.5-0.5c0.3,0.1,0.6,0.2,0.8,0.4c0.3-0.1,0.5-0.2,0.8-0.2
		c0.1,0.1,0.4,0.3,1.3,0c0.4-0.2,0.7-0.5,1-0.7c0.1-0.2-0.4,0.5-0.2,0.3c-1.2,0.9-2.5,1.5-3.8,1.8c-1.2,0.3-2.3,0.6-3.5,0.9
		l-0.5,0.1l-1,0.2l-0.9,0.2l-0.5,0.1c0,0-0.4,0.1-0.2-0.2l0.1-2.1c0.1-1.4,0.2-2.8,0.5-4.3l0,0c0.1-0.8,0.4-1.6,0.6-2.4l0.4-0.9v0.4
		c0-0.3,0.1-0.5,0.2-0.8c0.3-0.7,0.2-0.3,0.4,0c0.1,0.3,0,0,0.2,0.2l0.1-0.5c0,0.2-0.1,0.3-0.1,0.5c0-0.2,0.1-0.4,0.2-0.6L59,255
		c0-0.2,0-0.4,0.1-0.6c0,0.1,0,0.2-0.1,0.3c0.2-0.6,0.4-1,0.3-0.4c0,0,0.1-0.5,0.2-0.7l0,0l-0.1,0.4l0.1-0.4l0,0l-0.1,0.2l0.1-0.2
		l0.1,0.1c0,0.2,0,0.5,0,0.7L59,258.3z"/>
</g>
<path class="st1" d="M25.3,338.9c2.6-14.6,15.5-25.2,30.2-25c14.4,0.2,26.8,10.7,29.4,25"/>
<line class="st1" x1="25.3" y1="338.1" x2="84.9" y2="338.1"/>
<circle class="st2" cx="54.6" cy="298.3" r="17.8"/>
<path class="st1" d="M95.5,338.9c2.6-14.6,15.5-25.2,30.2-25c14.4,0.2,26.8,10.7,29.4,25"/>
<line class="st1" x1="95.5" y1="338.1" x2="155" y2="338.1"/>
<circle class="st2" cx="124.8" cy="298.3" r="17.8"/>
<path class="st1" d="M162.1,338.9c2.6-14.6,15.5-25.2,30.2-25c14.4,0.2,26.8,10.7,29.4,25"/>
<line class="st1" x1="162.9" y1="338.9" x2="222.4" y2="338.9"/>
<circle class="st2" cx="191.4" cy="298.3" r="17.8"/>
</svg>
