<svg id="Page_1" data-name="Page 1" xmlns="http://www.w3.org/2000/svg" viewBox="0 0 100.15 88.78"><title>water</title><g id="Layer_1" data-name="Layer 1"><path d="M985.36,50.05c0.45-4.19.66-8.41,1.42-12.54a33.4,33.4,0,0,1,2.83-8.33,16,16,0,0,1,10.63-8.89c0.68-.18,1.34-0.43,2-0.62a12.32,12.32,0,0,1,14.52,6.3,31.93,31.93,0,0,1,3.51,14.19A94.08,94.08,0,0,1,1019,62.41a72,72,0,0,1-2.76,9.71,10.61,10.61,0,0,1-8.24,7.09c-3.42.75-6.8,1.67-10.4,1-6.15-1.19-9.46-4.25-10.62-10.4A82.92,82.92,0,0,1,985.36,50.05ZM921,60.81c0-12.15,0-20.73,0-29.31,0-.7.08-1.41,0-2.11-0.24-3,2.12-4.07,4.73-4a2.29,2.29,0,0,1,1.46,1.26,4.63,4.63,0,0,1,.2,2c-0.08,3.23-.21,6.45-0.28,9.68-0.09,4.08-.15,8.16-0.17,12.23,0,2.24.44,2.75,2.7,2.79,2,0,3.92-.17,5.88-0.31,1.12-.08,2.22-0.3,3.34-0.4,3.32-.3,3.72-0.57,3.92-3.68,0.36-5.47.67-10.95,0.83-16.42,0.07-2.23-.37-4.48-0.44-6.73-0.06-1.72.56-2.2,2.33-2.14,3.36,0.11,4,.74,4,3.91-0.23,8.3.42,16.58,0.62,24.86,0.23,9.42.23,18.84,0.31,28.26a19.13,19.13,0,0,1-.14,2.53,2.33,2.33,0,0,1-2.46,2.34c-2.21.21-3.16-.49-3.25-2.79-0.16-3.93-.09-7.87-0.23-11.81-0.12-3.23-.38-6.46-0.66-9.68-0.13-1.53-.62-1.92-2.14-2-4.11-.34-8.13.55-12.17,1A1.63,1.63,0,0,0,927.91,62c0,1.54.17,3.08,0.24,4.63,0.24,5.62.52,11.23,0.67,16.85,0.06,2.26-.18,2.38-2.64,2.91-1,.21-1.91.46-2.88,0.64-2.6.49-3.1,0.08-3-2.42,0-.42.09-0.84,0.11-1.26C920.65,74.67,920.89,66,921,60.81Zm1.21-5.59h-0.12c0,1.13,0,2.25,0,3.38,0.09,8,.23,16,0.26,24,0,2.2,1,2.36,2.66,1.9a2.29,2.29,0,0,0,2-2.39c-0.13-4.64-.23-9.28-0.44-13.91-0.11-2.39-.52-4.76-0.63-7.15-0.09-2,.68-2.87,2.67-3,4.48-.33,9-0.6,13.44-0.84,2.22-.12,3.07.63,3.24,2.9,0.21,2.8.32,5.61,0.45,8.42,0.18,3.93.32,7.87,0.55,11.8a9.23,9.23,0,0,0,.63,2.4,0.83,0.83,0,0,0,.68.38,0.85,0.85,0,0,0,.63-0.48,11.94,11.94,0,0,0,.54-2.86c0-10.41-.08-20.83-0.23-31.24,0-3.37-.41-6.74-0.59-10.11s-0.28-6.74-.46-10.11a4.77,4.77,0,0,0-.44-1.59,0.83,0.83,0,0,0-.67-0.39,1.5,1.5,0,0,0-1.06.42,4.89,4.89,0,0,0-.49,2c0,2.67.11,5.34,0.08,8-0.06,4.92-.15,9.85-0.31,14.77-0.07,2.16-.57,2.58-2.83,2.86-2.51.31-5,.69-7.54,0.86-2.24.15-4.5,0.12-6.75,0-1.66-.05-2.13-0.67-2.13-2.45a14.43,14.43,0,0,1,.1-1.68c0.84-7.31-.16-14.62,0-21.94a4.09,4.09,0,0,0-.12-0.83,1.23,1.23,0,0,0-1.71-.59,2.35,2.35,0,0,0-1.17,2.11c-0.15,2.81-.27,5.61-0.33,8.42,0,1.26.12,2.52,0.13,3.78C922.25,46.49,922.24,50.85,922.24,55.21Zm57.4,21.84c-0.12,5.26-2.46,9.49-5.8,13.29-1.58,1.79-3.23,3.52-4.83,5.3a15.27,15.27,0,0,0-1.83,2.31c-0.41.69-1,1.75-.74,2.24,0.57,1.07,1.72.4,2.64,0.21,1.92-.4,3.83-0.92,5.77-1.21s2.73,0.31,3.08,2.45a8,8,0,0,1,.1.84,1.93,1.93,0,0,1-1.79,2.36q-3.13.48-6.27,0.8a11.19,11.19,0,0,0-4.84,1.29c-1.64,1-3.5.94-5.32,1a1.48,1.48,0,0,1-1.51-1.66c1-6.49,2.62-12.7,7.86-17.25,1.06-.92,2.18-1.78,3.27-2.67a12.68,12.68,0,0,0,4.23-7.59,8.36,8.36,0,0,0-.24-3.72,4.52,4.52,0,0,0-5-3,3.81,3.81,0,0,0-3.39,3.7c-0.17,1.53-.11,3.09-0.24,4.63a1.74,1.74,0,0,1-1.86,1.87c-1.4.12-2.81,0.18-4.21,0.19a1.38,1.38,0,0,1-1.39-1.7,24.63,24.63,0,0,1,3.55-11.58,9.06,9.06,0,0,1,9.73-4.48c4,0.62,7,2.81,8.12,7C979.17,73.42,979.34,75.25,979.64,77.05Zm-14.54,17c0.29-.41.59-0.82,0.85-1.25a3.61,3.61,0,0,0-.42-0.35c-0.29.43-.58,0.85-0.85,1.29Zm32.69-70.23a5,5,0,0,0,3.72-1.47c-1.87.21-2.92,0.5-3.65,1.55a12.66,12.66,0,0,0-6.62,6.15A30.26,30.26,0,0,0,987.86,40a107.49,107.49,0,0,0-.67,21.89,47.38,47.38,0,0,0,1.43,8.3,10.59,10.59,0,0,0,10.51,8.16,52.92,52.92,0,0,0,9.54-1.45,8.11,8.11,0,0,0,5.73-4.6,34,34,0,0,0,2-5.09c2.52-9.2,2.75-18.59,2.11-28a16.12,16.12,0,0,0-.46-3.34,59.4,59.4,0,0,0-2.7-8.39c-1.59-3.47-4.42-5.52-8.93-5.86a21.3,21.3,0,0,0,2.35,2c2.8,1.67,4.36,4.28,5.75,7.09a20.36,20.36,0,0,1,1.86,8.59c0.14,5.06.2,10.12,0.1,15.18a71.8,71.8,0,0,1-.76,8.8c-1,7.17-5.18,11.52-13.33,12.16-5,.39-8.77-2-10.48-6.7-0.29-.79-0.48-1.62-0.69-2.43a93.29,93.29,0,0,1-2.31-17.11,34.66,34.66,0,0,1,1-11.72c1.4-5,3.32-9.88,7.72-13.22A0.94,0.94,0,0,0,997.79,23.86Zm17.15,25.88c-0.13-3.09-.27-6.17-0.39-9.26a24.82,24.82,0,0,0-3.17-11.21,13,13,0,0,0-5.21-4.74,3.23,3.23,0,0,0-2.43-.24c-4.29,1.52-8.19,3.43-10.17,8.08a39.06,39.06,0,0,0-3.19,17.21,94.87,94.87,0,0,0,.94,10.05,40.65,40.65,0,0,0,1.93,8.16,9.7,9.7,0,0,0,12.07,5.63,12.73,12.73,0,0,0,8.76-9.86C1015.09,59,1014.73,54.35,1014.94,49.74Z" transform="translate(-920.28 -19.17)" fill="#333"/></g></svg>