<svg id="Layer_1" data-name="Layer 1" xmlns="http://www.w3.org/2000/svg" xmlns:xlink="http://www.w3.org/1999/xlink" viewBox="0 0 3024.54 5698.78"><defs><linearGradient id="linear-gradient" x1="-8156.61" y1="3696.47" x2="-8156.61" y2="4983.6" gradientUnits="userSpaceOnUse"><stop offset="0" stop-color="#6e85b3"/><stop offset="1" stop-color="#fff"/></linearGradient><linearGradient id="linear-gradient-2" x1="-7340.14" y1="3878.51" x2="-7340.14" y2="4983.57" gradientUnits="userSpaceOnUse"><stop offset="0" stop-color="#44557d"/><stop offset="1" stop-color="#fff"/></linearGradient><linearGradient id="linear-gradient-3" x1="-9077.6" y1="3570.36" x2="-9090.59" y2="4974.31" gradientUnits="userSpaceOnUse"><stop offset="0" stop-color="#7697c9"/><stop offset="1" stop-color="#fff"/></linearGradient><radialGradient id="New_Gradient_87" cx="-1838.35" cy="2845.97" r="824.69" gradientTransform="translate(-3613.66 -3571.72) scale(2.27 2.29)" gradientUnits="userSpaceOnUse"><stop offset="0" stop-color="#305391"/><stop offset="1" stop-color="#002254"/></radialGradient><radialGradient id="New_Gradient_89" cx="-3560.83" cy="3491.29" r="383.26" gradientTransform="translate(-2586.72 -2455.68) scale(1.44 1.45)" gradientUnits="userSpaceOnUse"><stop offset="0" stop-color="#e8f1f7"/><stop offset="1" stop-color="#b3cde6"/></radialGradient><linearGradient id="linear-gradient-4" x1="-9541.47" y1="3704.12" x2="-8953.59" y2="2071.14" gradientUnits="userSpaceOnUse"><stop offset="0.01" stop-color="#234380"/><stop offset="0.59" stop-color="#3a5891"/><stop offset="1" stop-color="#234382"/></linearGradient><linearGradient id="linear-gradient-5" x1="-7423.77" y1="1837.05" x2="-7300.76" y2="3156.3" gradientUnits="userSpaceOnUse"><stop offset="0" stop-color="#234380"/><stop offset="0.57" stop-color="#3a5891"/><stop offset="1" stop-color="#234382"/></linearGradient><linearGradient id="linear-gradient-6" x1="-8926.74" y1="1955.46" x2="-7600.44" y2="3228.71" gradientUnits="userSpaceOnUse"><stop offset="0.01" stop-color="#234380"/><stop offset="0.57" stop-color="#3a5891"/><stop offset="1" stop-color="#234382"/></linearGradient><radialGradient id="New_Gradient_86" cx="-1903.81" cy="2710.43" r="495.56" gradientTransform="translate(-3542.59 -3363.9) scale(2.21 2.13)" gradientUnits="userSpaceOnUse"><stop offset="0.02" stop-color="#ebd099"/><stop offset="0.98" stop-color="#bf7027"/></radialGradient><radialGradient id="New_Gradient_18" cx="-1882.68" cy="2547.01" r="500.91" gradientTransform="translate(-3612.64 -3708.81) scale(2.27 2.29)" gradientUnits="userSpaceOnUse"><stop offset="0" stop-color="#d6995c"/><stop offset="1" stop-color="#ad5d21"/></radialGradient><linearGradient id="linear-gradient-7" x1="-8663.15" y1="1577.62" x2="-7621.11" y2="1685.89" gradientUnits="userSpaceOnUse"><stop offset="0" stop-color="#b26226"/><stop offset="1" stop-color="#c28950"/></linearGradient><radialGradient id="New_Gradient_60" cx="-2077.37" cy="2172.49" r="486.14" gradientTransform="translate(-3477 -3685.48) scale(2.15 2.17)" gradientUnits="userSpaceOnUse"><stop offset="0" stop-color="#f5daa5"/><stop offset="1" stop-color="#bf7027"/></radialGradient><radialGradient id="New_Gradient_59" cx="164.92" cy="1582.82" r="85.76" gradientTransform="translate(-8950.91 -10066.77) scale(7.15 6.86)" gradientUnits="userSpaceOnUse"><stop offset="0" stop-color="#f1d8a6"/><stop offset="1" stop-color="#e7bc8d"/></radialGradient><linearGradient id="linear-gradient-8" x1="-7847.52" y1="1952.83" x2="-8625.83" y2="1447.35" gradientUnits="userSpaceOnUse"><stop offset="0" stop-color="#d79f69"/><stop offset="0.52" stop-color="#dfb682"/><stop offset="1" stop-color="#ddac74"/></linearGradient><linearGradient id="linear-gradient-9" x1="-8573.87" y1="1653.05" x2="-8177.78" y2="2516.37" gradientUnits="userSpaceOnUse"><stop offset="0" stop-color="#8db2cc"/><stop offset="1" stop-color="#f0f8fa"/></linearGradient><linearGradient id="linear-gradient-10" x1="-7515.77" y1="1830.1" x2="-7415.18" y2="2499.3" gradientUnits="userSpaceOnUse"><stop offset="0.01" stop-color="#8db2cc"/><stop offset="1" stop-color="#f0f8fa"/></linearGradient><linearGradient id="linear-gradient-11" x1="-7522.42" y1="1837.11" x2="-7548.75" y2="2501.67" gradientUnits="userSpaceOnUse"><stop offset="0" stop-color="#6d91ab"/><stop offset="1" stop-color="#aac9d4"/></linearGradient><linearGradient id="linear-gradient-12" x1="-8757.81" y1="1690.28" x2="-8483.54" y2="2421.66" gradientUnits="userSpaceOnUse"><stop offset="0" stop-color="#6d91ab"/><stop offset="1" stop-color="#bdd4e3"/></linearGradient><linearGradient id="linear-gradient-13" x1="-7912.47" y1="481.38" x2="-7393.12" y2="331.03" gradientUnits="userSpaceOnUse"><stop offset="0" stop-color="#696969"/><stop offset="1" stop-color="#080808"/></linearGradient><linearGradient id="linear-gradient-14" x1="-8818.05" y1="1021.16" x2="-8027.93" y2="92.35" gradientUnits="userSpaceOnUse"><stop offset="0"/><stop offset="0.55" stop-color="#696969"/><stop offset="1" stop-color="#080808"/></linearGradient><linearGradient id="linear-gradient-15" x1="-8983.13" y1="1256.83" x2="-8795.07" y2="149.12" gradientUnits="userSpaceOnUse"><stop offset="0" stop-color="#212121"/><stop offset="1" stop-color="#545454"/></linearGradient><linearGradient id="linear-gradient-16" x1="-7739.73" y1="568.63" x2="-7282.25" y2="748.64" gradientUnits="userSpaceOnUse"><stop offset="0" stop-color="#191919"/><stop offset="0.49" stop-color="#bababa"/><stop offset="1" stop-color="#3c3c3c"/></linearGradient><linearGradient id="linear-gradient-17" x1="-8580.04" y1="1148.82" x2="-7836.14" y2="444.79" gradientUnits="userSpaceOnUse"><stop offset="0" stop-color="#414141"/><stop offset="0.6" stop-color="#b5b5b5"/><stop offset="1" stop-color="#3c3c3c"/></linearGradient><linearGradient id="linear-gradient-18" x1="-8058.44" y1="582.44" x2="-8280.97" y2="-124.46" gradientUnits="userSpaceOnUse"><stop offset="0" stop-color="#193f78"/><stop offset="1" stop-color="#3e69b3"/></linearGradient><linearGradient id="linear-gradient-19" x1="-7481.59" y1="81.72" x2="-7694.34" y2="161.47" gradientUnits="userSpaceOnUse"><stop offset="0" stop-color="#00327d"/><stop offset="1" stop-color="#365ea3"/></linearGradient><linearGradient id="linear-gradient-20" x1="-8284.57" y1="471.74" x2="-8271.58" y2="-372.97" gradientUnits="userSpaceOnUse"><stop offset="0" stop-color="#002254"/><stop offset="1" stop-color="#305391"/></linearGradient><linearGradient id="linear-gradient-21" x1="-8812.47" y1="-15.93" x2="-7880.32" y2="213.76" gradientUnits="userSpaceOnUse"><stop offset="0" stop-color="#002254"/><stop offset="1" stop-color="#385fa3"/></linearGradient></defs><title>worker</title><path d="M-8083.87,5267.4c458-5.33,956.19-242.19,1138.86-455,215.71-251.23,300.66-1248.11,300.66-1548.57,0-620.91-973.35-663.29-1471.4-663.29-812.48,0-1553.11,130.19-1553.11,649.86,0,255.79,59.16,1289.56,335.17,1527.19,319.66,275.21,789.7,495,1249.83,489.78h0Z" transform="translate(9668.89 431.29)" fill-rule="evenodd" fill="url(#linear-gradient)"/><path d="M-7212.66,3937.07c-6.24-30.59-40.41-20-33.93,10.46-4.27,234.29-96.92,725.36-193.86,1045.66-64.93,214.52,2,54.33,38.56,12.17,13.56-15.63,192.85-702.53,189.24-1068.28h0Z" transform="translate(9668.89 431.29)" fill-rule="evenodd" fill="url(#linear-gradient-2)"/><path d="M-9566.58,3456.81c33.89-54.06,67.61-101.68,168-176-16.24,200.56-9.06,373.13-4.51,521.57,30.91,1006.38,484.66,921.83,807.7,1166.61-86,62.39-52.8,32.88-87.3,65-469-265.38-899.26-256.91-890.67-1392.58,0.45-59.33,3.92-118.84,6.8-184.61h0Z" transform="translate(9668.89 431.29)" fill-rule="evenodd" fill="url(#linear-gradient-3)"/><path d="M-8109.14,1777.41c458,5.9,956.17,270.2,1138.88,507.6,215.66,280.29,325.91,690.4,325.91,1025.62,0,673.56-993.58,740.05-1471.4,740.05-812.48,0-1553.14-145.24-1553.14-725.05,0-285.38,33.91-736.67,309.92-1001.78,319.64-307,789.7-552.34,1249.83-546.44h0Z" transform="translate(9668.89 431.29)" fill-rule="evenodd" fill="url(#New_Gradient_87)"/><path d="M-7441.25,3169.36c-348.25-216.73-561-478.41-742.41-719.42,459.31,166.32,547.69,171,696.27-111,46.37,140.42,129.84,702.89,46.14,830.47h0Z" transform="translate(9668.89 431.29)" fill-rule="evenodd" fill="url(#New_Gradient_89)"/><path d="M-8051.69,2527.29c-66.11,25.5,92.69,120.05,339.42,187.49,20.88,5.76,245.44,478.1,281.69,498.28-2.28-59.15-256.18-493.64-243.26-501.16,194.68-113.57,302.75-158.44,224.25-206.14-139.68-85-243.73-116.95-602.1,21.53h0Z" transform="translate(9668.89 431.29)" fill="#7d91b0" fill-rule="evenodd"/><path d="M-9573.38,3641.42c50.92,69.78,98.73,111.09,170.25,161-126.23-1559.57,388.8-1441,759.55-1721.89-86-62.39-52.8-32.92-87.3-65-493.53,279.21-900.69,300.65-842.5,1625.89h0Z" transform="translate(9668.89 431.29)" fill-rule="evenodd" fill="url(#linear-gradient-4)"/><path d="M-8602.1,2786.36c45.31,4.82,240.88-4.91,327.31,1.21-53.43,95.15-110.43,186.86-85.91,192.22,236.4,51.76,686.28,177.62,893.89,213.08,31.19,5.32,141.39,334.3,220.22,754.65a240.05,240.05,0,0,1,33.88-10.5c-84.55-416.88-130.8-596.49-199.44-748.8,22.88-36.39,191.94-312.64,282.14-462.87-19.62-14.23-95.56-62.35-111-71.13,42.25-39.91,69.47-65.1,94.9-94.6-15.21-61.76-289.37-534.76-329.14-623.42-22.36-10.32-56-60.81-116.35-86C-7593,2273.34-7463.17,3137.19-7464.37,3136c-283.48-282.77-1303.62-952-1296.15-1267-74.48-3.91-62.52-10.72-163.07,133.8,13.38,81.76,181,367.73,321.49,783.57h0Z" transform="translate(9668.89 431.29)" fill="#0a234a" fill-rule="evenodd"/><path d="M-7181.74,2552.6c-36.79,28.43-70.3,64.73-108.09,91.59,31.68,15.9,89.36,50.41,114,70.45-57.49,96-211.2,375.66-265.43,454.76-2-13.55-112.57-793.57-150.8-1262.79-1.65-20.14,2.7-37.16.4-56.4,0,0,53.67-19.5,108.18,103.43,37.38,108.11,269.54,505.89,301.73,599h0Z" transform="translate(9668.89 431.29)" fill-rule="evenodd" fill="url(#linear-gradient-5)"/><path d="M-8591.28,2747.89c32.57,5,277.56.18,339.77,4.68-21.28,57.13-94.61,176.86-72.09,183.21,267,75.15,722.23,197,882.37,233.61-94.1-126.76-1125.25-1218.24-1252.32-1391.36,0,0-6.38-75.23-6.38-75.23-69.39-3.69-107.34,34.29-221.62,298.8,49.59,114.7,190.41,324.07,330.27,746.28h0Z" transform="translate(9668.89 431.29)" fill-rule="evenodd" fill="url(#linear-gradient-6)"/><path d="M-8083.49,1788.54c202.82,0,376.38,42.61,529.92,106,47.78,80.63,114.63,100.09,101.24,265.91-18.92,234.44-158.14,479.37-240.72,547.12-116.63-31.9-313.8-182.22-613.18-354-85.28-48.92-247.41-269.92-464-400.66,196.53-118.12,393.7-164.38,686.73-164.38h0Z" transform="translate(9668.89 431.29)" fill-rule="evenodd" fill="url(#New_Gradient_86)"/><path d="M-7569.71,1911.12c77.51,188.16,120.13,594.59-123.34,796.41-261.87-179.88-632-430.53-637.52-519.09,80.49,59.24,411.49,306.42,626.32,466.34,191-150.77,124.63-675.23,134.53-743.65h0Z" transform="translate(9668.89 431.29)" fill="#a85e36" fill-rule="evenodd"/><path d="M-7092.57,2568.37c-48-66.54-118.46-162-260.15-241-56.77-31.64-112.88,106.8-171.69,211.49-13.56,24.14-2.34,38.43-7.67,79.51,179.45-123.71,171.42-217.4,439.5-50h0Zm-860.05,34-43.74-47.52c-306.33-212.09-694.87-662.48-705.57-852.18-248.11,50.63,105.25,823.76,162,1025,177.15-58.74,365.73-265.29,587.34-125.33h0Z" transform="translate(9668.89 431.29)" fill="#132e57" fill-rule="evenodd"/><path d="M-8108.88,1029.34c330.27,0,540.53,267.23,540.53,615.08,0,76.08-1.5,284.62-1.5,284.62-30,212.18-177.17,323.95-310.25,347.33-125.73,22.12-659.27-85.19-811.26-353.94,2.67-74.88-17.18-325.34-17.18-412.32,0-347.87,269.4-480.76,599.67-480.76h0Z" transform="translate(9668.89 431.29)" fill-rule="evenodd" fill="url(#New_Gradient_18)"/><path d="M-8093.46,1215c330.27,0,522.93,253.27,522.93,601.17,0,76.09-192.43,392.54-901.09,167.94-291.36-92.35-136-3.43-219.74-61.71-2.12-74.37-11.45-184.11-11.45-271.1,0-347.91,279.09-436.29,609.35-436.29h0Z" transform="translate(9668.89 431.29)" fill-rule="evenodd" fill="url(#linear-gradient-7)"/><path d="M-8154.54-44.08c493.36,0,904.24,462.69,884.43,991.56s-211.46,1022.78-638.36,1063.41c-311.78,29.69-715.07-189.74-934.79-503.78-93.09-161.36-173.6-365.57-173.6-558.82,0-562.17,369-992.37,862.33-992.37h0Z" transform="translate(9668.89 431.29)" fill="#9e562f" fill-rule="evenodd"/><path d="M-8140.61,8.32c480.41,0,889.78,424.18,870.49,939.17s-189.28,1004.93-605,1044.54c-303.59,28.87-711.75-170.11-939.58-467.07-90.63-157.08-165.65-362.15-165.65-550.32,0-547.42,359.3-966.33,839.7-966.33h0Z" transform="translate(9668.89 431.29)" fill-rule="evenodd" fill="url(#New_Gradient_60)"/><path d="M-7868.47,395.15c324.78,0,588.14,194.64,588.14,434.67s-263.37,434.67-588.14,434.67-588.14-194.6-588.14-434.67,263.37-434.67,588.14-434.67h0Z" transform="translate(9668.89 431.29)" fill-rule="evenodd" fill="url(#New_Gradient_59)"/><path d="M-7768.19,1965.17c-280.8,86.32-813.82-109-902.6-415,2.06-92.53,39.91-229.89,82.93-336.29-7.77,357.1,169.15,544.33,341.09,643.65,151.69,87.62,360,106.63,478.58,107.66h0Z" transform="translate(9668.89 431.29)" fill-rule="evenodd" fill="url(#linear-gradient-8)"/><path d="M-8700,1702.76c13.71,233.22,738.14,785,1006.91,1004.76-107.27-16.68-315.27-185.38-437.77-207.05-108.06-19.1-200.28,103.39-365.91,186.06-56.63-148.31-427.8-902.11-203.22-983.77h0Z" transform="translate(9668.89 431.29)" fill-rule="evenodd" fill="url(#linear-gradient-9)"/><path d="M-7569.31,1850.7c-19,159.39,148.36,582-123.74,856.83,118.27-68.48,226.15-197.13,319.68-265.83,120.47-88.52,173.51,73.79,271.51,85.13-57-92.89-376.66-528.78-438.21-706.22-10.79,11.62-16.52,17.44-29.24,30.09h0Z" transform="translate(9668.89 431.29)" fill-rule="evenodd" fill="url(#linear-gradient-10)"/><path d="M-7488.82,2139.51c-11-90-19.5-163.16-65.69-303.67-3.8,4-10.91,11.08-14.83,14.86-10.3,83.71,23.21,215.16,32,359.77,1.41,23.59,13.07,194.33-49.16,339.84,91-122.8,101.31-381.29,97.71-410.8h0Z" transform="translate(9668.89 431.29)" fill-rule="evenodd" fill="url(#linear-gradient-11)"/><path d="M-8406.67,2373.89c-57.37-110.91-295.52-467.19-327.64-647.83-124.42,184.2,149.41,580.35,244.76,727.17,59-26.13,96.61-52.75,82.88-79.33h0Z" transform="translate(9668.89 431.29)" fill-rule="evenodd" fill="url(#linear-gradient-12)"/><path d="M-8272.87-80.75c622.5-150.9,903.35,301.25,987.76,646.49,34.28,140.34,42.55,314.62,19.17,394.81-2.91,5.36-11.71-109.56-27.1-164.61-37.86-135.32-138.53-358.72-424.75-205-257-275.33-529.59-576.52-555.08-671.72h0Z" transform="translate(9668.89 431.29)" fill-rule="evenodd" fill="url(#linear-gradient-13)"/><path d="M-8272.87-80.75C-8154.54-44-7762.51,281.58-7717.79,591c-401.87-244.2-849.84,680.28-871.66,630.46-98-223.57-197.5-292.41-255.51-237.36-100.13,95-38.49,307.59,13.89,436.21,22.15,54.37-20.35,91.58-20.32,91.58-157-246.82-250.83-622.43-183-934.39C-8955.22,213.28-8655.91-87-8272.87-80.75h0Z" transform="translate(9668.89 431.29)" fill-rule="evenodd" fill="url(#linear-gradient-14)"/><path d="M-8870.07,1392c-72.75-183.13-73.61-322.91-12.6-418.37-102.34-176.55-5-655,182.5-816.59,30.43-26.22-10.65-16.4-40.55,1.62C-9094,371.41-9090.58,1001.31-8870.07,1392h0Z" transform="translate(9668.89 431.29)" fill-rule="evenodd" fill="url(#linear-gradient-15)"/><path d="M-7272,990.32c60.26-290-92.41-647.25-445.7-399.35,0,0-2.46-33.51-14.29-65,387.76-248,580,118.4,460,464.32h0Z" transform="translate(9668.89 431.29)" fill-rule="evenodd" fill="url(#linear-gradient-16)"/><path d="M-8704.56,1439.19c191.47-169,534.66-1157.25,986.75-848.22A580.49,580.49,0,0,0-7732,526c-643.15-361.46-853.67,779.17-972.53,913.19h0Z" transform="translate(9668.89 431.29)" fill-rule="evenodd" fill="url(#linear-gradient-17)"/><path d="M-7781.41-242.6s127,270.64,126,341.42c-96.33-44.11-647-225.38-769-294.26,0,0,88.85-229.28,129.39-235.85,0,0,465.39,166.56,513.66,188.69h0Z" transform="translate(9668.89 431.29)" fill="#0a234a" fill-rule="evenodd"/><path d="M-7818.62-216.38c241.49,243.25,283.64,617.34,131,812-551.7-80.19-688-134.75-1047-316.33C-8695,225.8-8397.83-295-8339.7-405.31c299.81,93.11,440.44,152,521.08,188.93h0Z" transform="translate(9668.89 431.29)" fill-rule="evenodd" fill="url(#linear-gradient-18)"/><path d="M-7781.41-242.6C-7718.86-204.72-7485,104.9-7476.62,162c17.06,116.86-111.17,394.63-211,433.69-12.86-327.19-20.39-630.28-93.8-838.26h0Z" transform="translate(9668.89 431.29)" fill-rule="evenodd" fill="url(#linear-gradient-19)"/><path d="M-7930.28-195.21C-7857-3.67-7727.94,462.63-7687.61,595.66c-463-91.82-833.23-180.29-1192.17-361.88,39.63-53.56,365.16-536.92,423.31-647.32,148.85,69.35,526.19,218.32,526.19,218.32h0Z" transform="translate(9668.89 431.29)" fill-rule="evenodd" fill="url(#linear-gradient-20)"/><path d="M-8029.75-110.61s228.61,447.15,310,629c1.22-357.64-51.63-583.33-72.35-706.62-5-29.69,6-45.15,10.72-54.33,122.24,312.49,92.09,832.49,93.77,838.26C-7784,551.6-8550-5.1-8672.05-74c0,0,176-272.18,176-272.18s431.81,213.3,466.26,235.56h0Z" transform="translate(9668.89 431.29)" fill="#0a234a" fill-rule="evenodd"/><path d="M-8073-88c191,342.86,385.2,659.06,385.37,683.61C-8277.16,548.63-8539,441-8898,259.41c19.87-66.89,258.41-453.95,321.56-607.48C-8283.4-179.63-8153.61-124.8-8073-88h0Z" transform="translate(9668.89 431.29)" fill-rule="evenodd" fill="url(#linear-gradient-21)"/><path d="M-7818.6-216.43s-111.68,21.26-111.68,21.26c-94.64-37.7-404.12-149.52-526.19-218.37,0,0,120.86-11.17,161.38-17.75,0,0,428.2,192.79,476.49,214.86h0Z" transform="translate(9668.89 431.29)" fill="#23467a" fill-rule="evenodd"/></svg>